{"glyphs":{"0":{"ha":819,"x_min":75,"x_max":745,"o":"m 404 -19 q 264 9 325 -19 q 161 90 203 37 q 97 216 119 142 q 75 383 75 290 q 98 556 75 479 q 167 687 122 633 q 275 770 212 741 q 418 800 338 800 q 556 771 495 800 q 659 691 617 743 q 723 565 701 639 q 745 398 745 490 q 723 231 745 307 q 659 99 701 155 q 552 12 616 43 q 404 -19 488 -19 m 407 34 q 463 40 437 34 q 511 60 489 45 q 551 101 533 75 q 580 167 568 127 q 598 263 592 207 q 605 394 605 319 q 591 573 605 505 q 553 681 578 642 q 493 733 528 720 q 413 747 457 747 q 331 733 368 747 q 269 680 294 719 q 229 570 243 640 q 214 387 214 499 q 220 258 214 313 q 238 164 227 203 q 266 100 250 125 q 304 60 283 75 q 351 40 326 45 q 407 34 377 34 z "},"1":{"ha":515,"x_min":37,"x_max":475,"o":"m 326 780 l 326 54 l 475 54 l 475 0 l 51 0 l 51 54 l 200 54 l 200 726 l 37 726 l 37 780 l 326 780 z "},"2":{"ha":775,"x_min":68,"x_max":684,"o":"m 68 47 q 212 148 148 102 q 325 235 276 194 q 409 314 374 276 q 467 392 444 353 q 499 473 489 431 q 510 565 510 515 q 497 660 510 624 q 462 714 484 695 q 414 740 441 734 q 360 747 387 747 q 276 734 315 747 q 207 694 237 721 q 237 651 227 675 q 247 606 247 627 q 227 553 247 575 q 169 532 207 532 q 137 537 152 532 q 111 552 122 542 q 94 577 100 562 q 87 612 87 592 q 108 681 87 647 q 166 741 128 715 q 256 784 203 768 q 375 800 309 800 q 490 784 439 800 q 576 738 541 768 q 630 667 611 709 q 648 572 648 625 q 635 487 648 528 q 598 410 621 447 q 542 338 574 372 q 473 273 510 304 q 395 211 435 241 q 313 151 354 180 l 252 109 l 254 105 l 476 105 q 549 110 522 105 q 592 129 576 114 q 616 173 608 144 q 632 251 624 201 l 684 251 l 669 0 l 68 0 l 68 47 z "},"3":{"ha":747,"x_min":47,"x_max":673,"o":"m 217 281 q 214 309 214 294 q 213 336 213 323 q 435 404 361 347 q 509 574 509 460 q 495 660 509 626 q 457 712 481 693 q 404 739 434 732 q 341 747 374 747 q 259 735 301 747 q 182 698 216 724 q 211 660 201 680 q 220 619 220 639 q 214 592 220 605 q 199 568 209 578 q 176 552 190 558 q 146 547 162 547 q 119 551 133 547 q 93 564 105 555 q 74 588 81 573 q 66 625 66 603 q 86 691 66 659 q 143 746 106 722 q 232 785 180 770 q 349 800 284 800 q 477 782 421 800 q 571 733 532 764 q 629 662 609 703 q 649 574 649 621 q 634 497 649 533 q 592 431 619 461 q 525 375 564 400 q 437 332 486 351 l 437 328 q 528 298 485 319 q 603 244 570 277 q 654 168 635 212 q 673 69 673 123 q 650 -38 673 12 q 584 -127 628 -89 q 476 -187 541 -165 q 328 -210 412 -210 q 201 -193 254 -210 q 114 -151 148 -176 q 63 -95 79 -125 q 47 -37 47 -65 q 53 -4 47 -20 q 70 23 59 12 q 97 42 81 35 q 132 49 112 49 q 161 44 147 49 q 187 30 176 39 q 205 5 198 20 q 212 -31 212 -10 q 202 -76 212 -54 q 170 -113 192 -97 q 208 -135 187 -127 q 249 -149 228 -144 q 289 -155 269 -153 q 325 -157 309 -157 q 396 -149 359 -157 q 463 -119 433 -142 q 513 -55 493 -97 q 532 56 532 -13 q 518 153 532 111 q 472 224 503 195 q 394 269 441 254 q 280 284 346 284 q 250 283 265 284 q 217 281 234 282 z "},"4":{"ha":796,"x_min":54,"x_max":749,"o":"m 54 151 l 531 790 l 593 790 l 593 182 l 749 182 l 743 93 l 593 93 l 593 -119 l 467 -119 l 467 93 l 54 93 l 54 151 m 465 606 l 149 182 l 467 182 l 467 606 l 465 606 z "},"5":{"ha":767,"x_min":58,"x_max":692,"o":"m 171 323 q 119 333 144 323 l 146 780 l 633 780 l 627 667 l 199 667 l 181 395 l 184 394 q 272 424 227 414 q 361 433 317 433 q 493 410 432 433 q 598 343 554 386 q 667 243 642 301 q 692 115 692 184 q 669 -8 692 50 q 601 -112 646 -67 q 488 -183 555 -157 q 330 -210 420 -210 q 207 -193 258 -210 q 122 -151 155 -176 q 73 -95 89 -125 q 58 -37 58 -65 q 63 -4 58 -20 q 80 23 69 12 q 107 42 92 35 q 142 49 122 49 q 172 44 157 49 q 197 30 186 39 q 215 5 208 20 q 222 -31 222 -10 q 211 -76 222 -54 q 179 -113 201 -98 q 216 -135 196 -127 q 255 -149 235 -144 q 292 -155 274 -153 q 325 -157 311 -157 q 378 -152 351 -157 q 430 -137 405 -148 q 477 -106 455 -125 q 516 -59 500 -87 q 543 10 533 -30 q 552 103 552 50 q 532 231 552 180 q 481 313 513 282 q 408 356 449 343 q 324 369 367 369 q 238 357 277 369 q 171 323 199 345 z "},"6":{"ha":807,"x_min":95,"x_max":726,"o":"m 240 502 q 287 550 261 532 q 339 578 313 568 q 392 592 366 589 q 439 596 418 596 q 551 574 499 596 q 642 513 604 552 q 703 419 681 473 q 726 300 726 365 q 706 182 726 240 q 646 80 686 125 q 548 8 607 35 q 413 -19 490 -19 q 291 3 349 -19 q 190 74 233 24 q 120 205 146 124 q 95 406 95 287 q 105 554 95 481 q 137 692 116 627 q 191 812 159 757 q 265 908 222 867 q 360 971 307 948 q 478 994 414 994 q 561 983 521 994 q 631 954 600 972 q 680 908 661 935 q 698 848 698 881 q 691 812 698 827 q 673 788 684 798 q 648 775 662 779 q 621 771 634 771 q 568 791 589 771 q 548 841 548 812 q 557 879 548 859 q 584 917 566 899 q 558 930 572 925 q 530 938 544 935 q 503 941 516 941 q 481 942 490 942 q 426 936 453 942 q 372 913 398 930 q 324 866 347 897 q 283 787 301 836 q 253 669 266 739 q 236 503 241 599 l 240 502 m 420 33 q 489 45 458 33 q 541 89 519 58 q 574 170 562 119 q 585 297 585 221 q 575 416 585 368 q 544 492 564 463 q 495 533 524 521 q 428 545 465 545 q 354 532 389 545 q 294 491 319 520 q 254 413 269 462 q 239 290 239 363 q 246 199 239 245 q 274 116 254 153 q 329 56 294 79 q 420 33 364 33 z "},"7":{"ha":700,"x_min":68,"x_max":632,"o":"m 632 780 l 632 732 l 479 368 q 429 237 449 295 q 396 136 408 180 q 379 59 384 92 q 374 4 374 26 q 379 -38 374 -23 q 391 -65 385 -54 q 403 -88 397 -77 q 408 -119 408 -100 q 402 -155 408 -140 q 385 -181 395 -171 q 359 -197 374 -192 q 330 -203 345 -203 q 298 -197 314 -203 q 270 -178 283 -191 q 250 -149 258 -166 q 243 -109 243 -131 q 252 -50 243 -83 q 276 23 260 -17 q 311 111 291 64 q 354 211 332 158 l 547 667 l 281 667 q 205 663 233 667 q 160 645 176 659 q 136 602 144 630 q 119 524 127 573 l 68 524 l 68 780 l 632 780 z "},"8":{"ha":800,"x_min":75,"x_max":726,"o":"m 519 520 q 591 478 554 502 q 658 424 628 455 q 707 353 688 393 q 726 259 726 312 q 700 148 726 199 q 630 60 675 97 q 525 1 585 22 q 394 -20 464 -20 q 274 -2 332 -20 q 172 47 216 15 q 101 127 127 80 q 75 236 75 175 q 124 378 75 315 q 274 496 173 441 l 274 501 q 209 542 241 519 q 153 594 178 565 q 114 661 129 624 q 99 744 99 698 q 124 848 99 802 q 191 927 149 895 q 290 976 233 959 q 410 994 347 994 q 529 976 476 994 q 619 926 582 958 q 675 854 656 895 q 695 766 695 812 q 650 634 695 694 q 519 524 604 574 l 519 520 m 331 467 q 218 374 256 430 q 180 246 180 319 q 197 158 180 197 q 244 91 214 119 q 314 49 273 64 q 403 34 355 34 q 483 46 445 34 q 549 80 520 58 q 594 135 577 102 q 610 209 610 168 q 590 290 610 256 q 534 354 570 325 q 446 409 497 382 q 331 467 394 436 m 459 551 q 569 641 528 589 q 610 762 610 694 q 595 835 610 802 q 554 891 581 868 q 490 928 528 915 q 407 941 453 941 q 334 931 370 941 q 271 903 298 922 q 227 854 243 884 q 210 783 210 825 q 224 715 210 745 q 270 661 239 686 q 348 609 301 635 q 459 551 395 583 z "},"9":{"ha":790,"x_min":78,"x_max":709,"o":"m 564 281 q 517 233 543 251 q 465 205 492 215 q 414 193 439 196 q 369 190 389 190 q 254 211 307 190 q 161 271 201 233 q 100 364 122 310 q 78 484 78 418 q 98 602 78 545 q 157 703 118 659 q 255 773 196 747 q 391 800 313 800 q 510 779 453 800 q 612 707 568 758 q 682 572 656 656 q 709 361 709 488 q 700 221 709 291 q 671 88 690 151 q 620 -30 651 24 q 546 -124 589 -84 q 447 -187 503 -164 q 321 -210 391 -210 q 224 -196 265 -210 q 155 -161 182 -182 q 113 -112 127 -139 q 99 -58 99 -85 q 106 -22 99 -37 q 124 3 113 -7 q 150 18 136 13 q 180 22 165 22 q 213 16 199 22 q 238 -1 228 9 q 253 -26 248 -12 q 258 -55 258 -40 q 248 -98 258 -77 q 218 -134 238 -119 q 245 -147 231 -142 q 273 -154 259 -152 q 298 -156 287 -156 q 313 -157 309 -157 q 379 -152 348 -157 q 436 -131 410 -146 q 485 -86 463 -115 q 523 -8 507 -56 q 551 111 540 41 q 568 280 562 182 l 564 281 m 380 748 q 313 735 343 748 q 262 692 283 722 q 230 611 241 661 q 218 485 218 560 q 229 367 218 414 q 260 292 239 319 q 310 253 280 264 q 377 241 339 241 q 450 253 416 241 q 510 292 484 264 q 550 367 535 320 q 565 486 565 414 q 557 580 565 533 q 528 665 549 627 q 471 725 507 702 q 380 748 435 748 z "},"\u0000":{"ha":0,"x_min":0,"x_max":0,"o":""},"\r":{"ha":359,"x_min":0,"x_max":0,"o":""}," ":{"ha":359,"x_min":0,"x_max":0,"o":""},"A":{"ha":960,"x_min":-27,"x_max":973,"o":"m 303 54 l 303 0 l -27 0 l -27 54 l 102 54 l 454 996 l 508 996 l 839 54 l 973 54 l 973 0 l 556 0 l 556 54 l 697 54 l 595 344 l 275 344 l 168 54 l 303 54 m 439 781 l 296 399 l 576 399 l 442 781 l 439 781 z "},"B":{"ha":939,"x_min":44,"x_max":858,"o":"m 607 516 q 723 485 675 506 q 801 432 770 463 q 844 361 831 401 q 858 277 858 322 q 839 174 858 224 q 774 85 820 124 q 654 23 729 47 q 468 0 580 0 l 44 0 l 44 54 l 180 54 l 180 931 l 44 931 l 44 985 l 451 985 q 625 968 554 985 q 741 919 696 950 q 804 846 785 888 q 823 755 823 804 q 811 679 823 715 q 773 612 799 643 q 706 557 747 581 q 607 519 665 533 l 607 516 m 312 54 l 457 54 q 577 65 528 54 q 655 102 625 77 q 697 170 684 128 q 710 273 710 212 q 698 369 710 329 q 654 434 686 408 q 565 472 622 460 q 418 484 509 484 l 312 484 l 312 54 m 312 538 l 392 538 q 528 549 473 538 q 616 583 583 559 q 663 648 649 608 q 677 749 677 688 q 668 829 677 795 q 633 886 659 863 q 561 920 607 909 q 442 931 515 931 l 312 931 l 312 538 z "},"C":{"ha":937,"x_min":92,"x_max":842,"o":"m 842 295 l 832 26 q 762 6 800 15 q 686 -10 724 -3 q 609 -20 647 -16 q 539 -23 572 -23 q 352 12 435 -23 q 211 113 269 47 q 122 272 153 178 q 92 483 92 366 q 124 700 92 603 q 217 866 157 797 q 363 971 277 935 q 555 1008 449 1008 q 618 1005 585 1008 q 685 997 651 1002 q 753 983 720 991 q 818 964 787 975 l 826 717 l 779 717 q 752 837 772 791 q 700 909 731 884 q 629 945 669 935 q 546 954 590 954 q 461 946 501 954 q 387 918 421 938 q 325 863 353 897 q 279 777 298 829 q 249 653 260 725 q 239 487 239 582 q 249 322 239 393 q 278 201 259 252 q 323 118 296 151 q 383 65 350 85 q 454 39 416 46 q 536 31 493 31 q 631 43 587 31 q 708 85 675 55 q 764 165 742 115 q 794 295 786 216 l 842 295 z "},"D":{"ha":1028,"x_min":44,"x_max":937,"o":"m 44 0 l 44 54 l 180 54 l 180 931 l 44 931 l 44 985 l 454 985 q 683 951 591 985 q 832 855 776 918 q 912 703 888 792 q 937 505 937 614 q 928 379 937 441 q 899 261 920 317 q 842 157 878 205 q 751 74 806 109 q 621 20 696 39 q 444 0 545 0 l 44 0 m 312 54 l 435 54 q 608 75 539 54 q 717 146 677 95 q 773 283 757 197 q 789 503 789 370 q 784 636 789 576 q 766 744 779 696 q 728 827 752 791 q 666 885 704 862 q 575 920 629 908 q 449 931 522 931 l 312 931 l 312 54 z "},"E":{"ha":928,"x_min":44,"x_max":837,"o":"m 312 538 l 401 538 q 477 542 446 538 q 526 561 507 545 q 554 611 545 577 q 568 705 564 644 l 616 705 l 616 304 l 568 304 q 556 401 564 366 q 530 455 548 437 q 480 478 511 473 q 401 483 450 483 l 312 483 l 312 54 l 492 54 q 585 58 545 54 q 654 73 625 62 q 706 104 684 84 q 743 155 727 123 q 769 231 758 186 q 789 336 780 275 l 837 336 l 823 0 l 44 0 l 44 54 l 180 54 l 180 931 l 44 931 l 44 985 l 806 985 l 820 713 l 772 713 q 747 824 762 781 q 706 890 732 866 q 636 923 679 914 q 527 931 593 931 l 312 931 l 312 538 z "},"F":{"ha":862,"x_min":44,"x_max":814,"o":"m 312 931 l 312 518 l 401 518 q 477 522 446 518 q 526 541 507 525 q 554 592 545 557 q 568 688 564 626 l 616 688 l 616 280 l 568 280 q 556 379 564 343 q 530 434 548 416 q 480 458 511 453 q 401 463 450 463 l 312 463 l 312 54 l 454 54 l 454 0 l 44 0 l 44 54 l 180 54 l 180 931 l 44 931 l 44 985 l 800 985 l 814 700 l 767 700 q 743 818 758 773 q 701 888 728 863 q 630 922 673 913 q 520 931 586 931 l 312 931 z "},"G":{"ha":1015,"x_min":92,"x_max":958,"o":"m 836 40 q 765 12 803 24 q 688 -8 727 -1 q 612 -19 650 -16 q 541 -23 574 -23 q 352 12 435 -23 q 211 113 269 47 q 122 272 153 178 q 92 483 92 366 q 125 700 92 603 q 220 866 158 797 q 369 971 281 935 q 564 1008 456 1008 q 695 997 625 1008 q 828 964 765 985 l 836 717 l 789 717 q 762 837 783 791 q 709 909 741 884 q 638 945 678 935 q 555 954 599 954 q 468 946 509 954 q 391 918 427 938 q 328 863 356 897 q 280 777 300 829 q 249 653 260 725 q 239 487 239 582 q 249 323 239 393 q 277 203 258 253 q 322 119 296 153 q 382 67 349 86 q 455 40 416 48 q 538 33 494 33 q 624 36 582 33 q 703 54 665 40 l 703 355 l 554 355 l 554 409 l 958 409 l 958 355 l 836 355 l 836 40 z "},"H":{"ha":1078,"x_min":44,"x_max":1034,"o":"m 180 54 l 180 931 l 44 931 l 44 985 l 448 985 l 448 931 l 312 931 l 312 538 l 766 538 l 766 931 l 630 931 l 630 985 l 1034 985 l 1034 931 l 898 931 l 898 54 l 1034 54 l 1034 0 l 630 0 l 630 54 l 766 54 l 766 483 l 312 483 l 312 54 l 448 54 l 448 0 l 44 0 l 44 54 l 180 54 z "},"I":{"ha":492,"x_min":44,"x_max":448,"o":"m 312 931 l 312 54 l 448 54 l 448 0 l 44 0 l 44 54 l 180 54 l 180 931 l 44 931 l 44 985 l 448 985 l 448 931 l 312 931 z "},"J":{"ha":646,"x_min":0,"x_max":618,"o":"m 618 931 l 483 931 l 483 246 q 464 147 483 195 q 411 61 446 98 q 327 0 376 23 q 215 -23 277 -23 q 130 -10 169 -23 q 61 25 90 3 q 16 76 33 47 q 0 136 0 104 q 7 172 0 156 q 25 198 14 187 q 51 214 36 208 q 81 220 65 220 q 113 213 99 220 q 137 196 127 207 q 152 172 146 186 q 157 142 157 157 q 146 97 157 119 q 115 60 135 75 q 216 31 159 31 q 270 40 245 31 q 313 68 294 48 q 341 120 331 88 q 351 199 351 152 l 351 931 l 209 931 l 209 985 l 618 985 l 618 931 z "},"K":{"ha":1017,"x_min":44,"x_max":1007,"o":"m 339 509 l 754 931 l 652 931 l 652 985 l 971 985 l 971 931 l 833 931 l 459 555 l 901 54 l 1007 54 l 1007 0 l 633 0 l 633 54 l 734 54 l 339 509 m 312 54 l 441 54 l 441 0 l 44 0 l 44 54 l 180 54 l 180 931 l 44 931 l 44 985 l 441 985 l 441 931 l 312 931 l 312 54 z "},"L":{"ha":865,"x_min":44,"x_max":818,"o":"m 471 54 q 564 58 524 54 q 634 74 604 62 q 686 105 665 85 q 724 157 708 125 q 750 234 739 189 q 770 343 762 280 l 818 343 l 803 0 l 44 0 l 44 54 l 180 54 l 180 931 l 44 931 l 44 985 l 448 985 l 448 931 l 312 931 l 312 54 l 471 54 z "},"M":{"ha":1290,"x_min":37,"x_max":1246,"o":"m 978 54 l 978 913 l 975 913 l 622 -10 l 568 -10 l 237 912 l 234 912 l 234 54 l 356 54 l 356 0 l 37 0 l 37 54 l 173 54 l 173 931 l 37 931 l 37 985 l 351 985 l 634 201 l 637 201 l 938 985 l 1246 985 l 1246 931 l 1110 931 l 1110 54 l 1246 54 l 1246 0 l 856 0 l 856 54 l 978 54 z "},"N":{"ha":1044,"x_min":37,"x_max":1014,"o":"m 878 -10 l 824 -10 l 237 899 l 234 899 l 234 54 l 356 54 l 356 0 l 37 0 l 37 54 l 173 54 l 173 931 l 37 931 l 37 985 l 340 985 l 814 252 l 817 252 l 817 931 l 682 931 l 682 985 l 1014 985 l 1014 931 l 878 931 l 878 -10 z "},"O":{"ha":1057,"x_min":92,"x_max":965,"o":"m 92 484 q 124 702 92 605 q 216 867 157 799 q 357 972 275 935 q 536 1008 439 1008 q 712 973 633 1008 q 847 871 791 937 q 934 712 903 806 q 965 503 965 618 q 935 292 965 389 q 848 125 905 195 q 708 16 791 56 q 522 -23 626 -23 q 345 12 425 -23 q 210 113 266 47 q 122 273 153 179 q 92 484 92 367 m 239 488 q 249 324 239 394 q 276 203 258 254 q 320 119 294 153 q 378 66 346 86 q 447 39 410 47 q 526 31 484 31 q 605 39 567 31 q 675 67 642 47 q 734 121 707 87 q 779 207 760 155 q 808 330 798 258 q 818 497 818 401 q 808 661 818 591 q 780 782 798 731 q 736 866 762 833 q 679 919 711 899 q 610 946 648 939 q 532 954 573 954 q 452 946 490 954 q 382 918 414 938 q 323 864 349 899 q 278 779 296 830 q 249 655 259 727 q 239 488 239 583 z "},"P":{"ha":867,"x_min":44,"x_max":816,"o":"m 414 985 q 604 965 527 985 q 727 908 680 945 q 795 822 774 872 q 816 711 816 771 q 797 600 816 654 q 731 503 778 545 q 605 434 684 460 q 406 408 526 408 l 312 408 l 312 54 l 454 54 l 454 0 l 44 0 l 44 54 l 180 54 l 180 931 l 44 931 l 44 985 l 414 985 m 312 463 l 395 463 q 527 474 473 463 q 612 515 580 486 q 657 590 644 543 q 671 708 671 637 q 661 808 671 766 q 621 878 650 850 q 540 918 592 905 q 406 931 488 931 l 312 931 l 312 463 z "},"Q":{"ha":1057,"x_min":92,"x_max":1010,"o":"m 92 483 q 124 702 92 605 q 216 868 157 800 q 357 972 275 936 q 536 1008 439 1008 q 712 973 633 1008 q 847 871 791 937 q 934 712 903 806 q 965 503 965 618 q 943 324 965 407 q 881 175 922 241 q 781 63 840 109 q 648 -5 722 17 q 712 -99 683 -63 q 768 -156 742 -136 q 816 -184 793 -176 q 860 -191 839 -191 q 919 -180 889 -191 q 980 -146 949 -168 q 996 -164 989 -155 q 1010 -184 1003 -172 q 907 -257 958 -237 q 806 -277 857 -277 q 716 -260 755 -277 q 641 -210 676 -243 q 573 -130 606 -178 q 504 -22 541 -83 q 334 18 410 -18 q 204 120 258 55 q 121 277 150 186 q 92 483 92 369 m 239 488 q 249 324 239 394 q 276 203 258 254 q 320 119 294 153 q 378 66 346 86 q 447 39 410 47 q 526 31 484 31 q 605 39 567 31 q 675 67 642 47 q 734 121 707 87 q 779 207 760 155 q 808 330 798 258 q 818 497 818 401 q 808 661 818 591 q 780 782 798 731 q 736 866 762 833 q 679 919 711 899 q 610 946 647 939 q 531 954 572 954 q 415 935 469 954 q 323 864 362 916 q 261 722 283 812 q 239 488 239 631 z "},"R":{"ha":933,"x_min":44,"x_max":909,"o":"m 418 985 q 600 969 526 985 q 719 923 673 953 q 784 851 764 893 q 804 757 804 808 q 790 672 804 712 q 748 600 776 632 q 679 544 720 567 q 581 508 637 520 l 581 505 q 657 473 627 494 q 706 422 688 452 q 735 352 725 391 q 754 267 746 313 q 769 179 762 218 q 786 110 775 139 q 815 65 797 81 q 867 50 834 50 q 885 50 873 50 q 909 53 896 51 l 909 1 q 884 -4 898 -2 q 857 -7 871 -6 q 830 -8 843 -8 q 806 -9 817 -9 q 714 4 747 -9 q 662 43 680 16 q 637 109 644 69 q 623 204 629 149 q 602 338 612 284 q 574 426 592 393 q 524 472 555 458 q 439 486 493 486 l 312 486 l 312 54 l 454 54 l 454 0 l 44 0 l 44 54 l 180 54 l 180 931 l 44 931 l 44 985 l 418 985 m 312 541 l 402 541 q 525 553 475 541 q 604 591 574 565 q 647 657 634 617 q 659 755 659 698 q 649 836 659 802 q 611 890 639 869 q 535 921 584 911 q 410 931 487 931 l 312 931 l 312 541 z "},"S":{"ha":779,"x_min":75,"x_max":704,"o":"m 75 295 l 123 295 q 153 166 130 218 q 208 84 175 115 q 283 41 241 54 q 373 28 326 28 q 470 43 430 28 q 537 82 511 57 q 575 143 563 108 q 587 222 587 179 q 569 309 587 275 q 520 367 551 343 q 444 409 488 391 q 347 446 400 427 q 247 486 294 465 q 162 538 199 507 q 104 614 125 569 q 83 726 83 659 q 103 842 83 789 q 163 931 123 894 q 263 988 203 968 q 401 1008 322 1008 q 465 1005 432 1008 q 531 996 498 1002 q 596 982 564 990 q 656 963 628 973 l 665 717 l 617 717 q 590 836 611 790 q 539 908 569 882 q 472 944 509 935 q 396 954 435 954 q 307 942 345 954 q 243 906 269 929 q 206 849 218 882 q 193 773 193 815 q 211 690 193 723 q 261 632 229 656 q 338 590 293 608 q 437 551 383 571 q 535 510 487 532 q 620 457 583 489 q 681 377 658 425 q 704 260 704 330 q 681 140 704 193 q 613 51 657 87 q 507 -4 570 15 q 364 -23 444 -23 q 293 -20 330 -23 q 219 -9 256 -16 q 149 6 183 -3 q 84 26 114 15 l 75 295 z "},"T":{"ha":926,"x_min":47,"x_max":878,"o":"m 67 985 l 862 985 l 878 693 l 831 693 q 806 816 821 769 q 764 888 791 863 q 693 922 736 913 q 584 931 650 931 l 529 931 l 529 54 l 678 54 l 678 0 l 248 0 l 248 54 l 397 54 l 397 931 l 345 931 q 267 928 301 931 q 208 915 233 924 q 164 888 182 905 q 133 845 146 871 q 111 781 120 819 q 95 693 102 744 l 47 693 l 67 985 z "},"U":{"ha":1019,"x_min":34,"x_max":991,"o":"m 302 319 q 307 209 302 260 q 335 119 312 157 q 404 57 357 80 q 533 35 450 35 q 669 58 617 35 q 748 122 720 81 q 786 219 777 163 q 795 340 795 275 l 795 931 l 660 931 l 660 985 l 991 985 l 991 931 l 857 931 l 857 348 q 842 188 857 257 q 788 72 827 119 q 684 1 749 25 q 516 -23 618 -23 q 359 -3 425 -23 q 252 58 294 16 q 190 163 210 99 q 170 315 170 227 l 170 931 l 34 931 l 34 985 l 437 985 l 437 931 l 302 931 l 302 319 z "},"V":{"ha":960,"x_min":-14,"x_max":980,"o":"m 517 204 l 520 204 l 792 931 l 656 931 l 656 985 l 980 985 l 980 931 l 858 931 l 505 -10 l 452 -10 l 121 931 l -14 931 l -14 985 l 404 985 l 404 931 l 262 931 l 517 204 z "},"W":{"ha":1397,"x_min":-18,"x_max":1422,"o":"m 703 505 l 507 -10 l 454 -10 l 117 931 l -18 931 l -18 985 l 378 985 l 378 931 l 257 931 l 519 204 l 522 204 l 671 595 l 551 931 l 437 931 l 437 985 l 832 985 l 832 931 l 691 931 l 953 204 l 956 204 l 1234 931 l 1099 931 l 1099 985 l 1422 985 l 1422 931 l 1300 931 l 941 -10 l 888 -10 l 705 505 l 703 505 z "},"X":{"ha":985,"x_min":-20,"x_max":976,"o":"m 856 54 l 976 54 l 976 0 l 572 0 l 572 54 l 696 54 l 456 420 l 180 54 l 300 54 l 300 0 l -20 0 l -20 54 l 102 54 l 420 475 l 122 931 l 2 931 l 2 985 l 406 985 l 406 931 l 281 931 l 511 581 l 775 931 l 659 931 l 659 985 l 969 985 l 969 931 l 852 931 l 547 526 l 856 54 z "},"Y":{"ha":931,"x_min":-20,"x_max":945,"o":"m -20 985 l 383 985 l 383 931 l 258 931 l 509 538 l 756 931 l 628 931 l 628 985 l 945 985 l 945 931 l 829 931 l 539 471 l 539 54 l 688 54 l 688 0 l 258 0 l 258 54 l 407 54 l 407 451 l 100 931 l -20 931 l -20 985 z "},"Z":{"ha":881,"x_min":68,"x_max":806,"o":"m 68 0 l 68 42 l 621 931 l 390 931 q 312 928 346 931 q 253 915 278 924 q 209 888 227 905 q 178 845 191 871 q 156 781 165 819 q 140 693 146 744 l 92 693 l 112 985 l 787 985 l 787 943 l 224 54 l 461 54 q 554 58 514 54 q 624 73 594 62 q 675 104 654 84 q 712 155 696 123 q 739 231 728 186 q 759 336 749 275 l 806 336 l 793 0 l 68 0 z "},"À":{"ha":960,"x_min":-27,"x_max":973,"o":"m 303 54 l 303 0 l -27 0 l -27 54 l 102 54 l 454 996 l 508 996 l 839 54 l 973 54 l 973 0 l 556 0 l 556 54 l 697 54 l 595 344 l 275 344 l 168 54 l 303 54 m 439 781 l 296 399 l 576 399 l 442 781 l 439 781 m 292 1215 q 327 1264 308 1242 q 368 1304 347 1287 l 602 1077 q 576 1044 593 1057 l 292 1215 z "},"Á":{"ha":960,"x_min":-27,"x_max":973,"o":"m 303 54 l 303 0 l -27 0 l -27 54 l 102 54 l 454 996 l 508 996 l 839 54 l 973 54 l 973 0 l 556 0 l 556 54 l 697 54 l 595 344 l 275 344 l 168 54 l 303 54 m 439 781 l 296 399 l 576 399 l 442 781 l 439 781 m 387 1044 q 361 1077 370 1057 l 595 1304 q 636 1264 616 1287 q 671 1215 655 1242 l 387 1044 z "},"Â":{"ha":960,"x_min":-27,"x_max":973,"o":"m 303 54 l 303 0 l -27 0 l -27 54 l 102 54 l 454 996 l 508 996 l 839 54 l 973 54 l 973 0 l 556 0 l 556 54 l 697 54 l 595 344 l 275 344 l 168 54 l 303 54 m 439 781 l 296 399 l 576 399 l 442 781 l 439 781 m 501 1284 l 704 1077 q 692 1059 699 1067 q 677 1044 686 1051 l 481 1169 l 286 1044 q 271 1059 277 1051 q 259 1077 264 1067 l 461 1284 l 501 1284 z "},"Ã":{"ha":960,"x_min":-27,"x_max":973,"o":"m 303 54 l 303 0 l -27 0 l -27 54 l 102 54 l 454 996 l 508 996 l 839 54 l 973 54 l 973 0 l 556 0 l 556 54 l 697 54 l 595 344 l 275 344 l 168 54 l 303 54 m 439 781 l 296 399 l 576 399 l 442 781 l 439 781 m 711 1243 q 662 1110 696 1157 q 574 1063 629 1063 q 542 1068 557 1063 q 514 1079 527 1072 q 488 1094 500 1086 q 465 1111 476 1103 q 427 1137 447 1124 q 385 1149 406 1149 q 366 1146 376 1149 q 345 1133 355 1142 q 326 1106 335 1123 q 312 1062 317 1089 q 288 1064 300 1062 q 265 1070 275 1065 q 315 1204 281 1158 q 404 1250 349 1250 q 458 1237 435 1250 q 505 1208 481 1225 q 549 1177 529 1190 q 590 1164 568 1164 q 610 1167 600 1164 q 631 1180 621 1171 q 650 1207 642 1190 q 665 1251 659 1224 q 689 1250 676 1251 q 711 1243 701 1248 z "},"Ä":{"ha":960,"x_min":-27,"x_max":973,"o":"m 303 54 l 303 0 l -27 0 l -27 54 l 102 54 l 454 996 l 508 996 l 839 54 l 973 54 l 973 0 l 556 0 l 556 54 l 697 54 l 595 344 l 275 344 l 168 54 l 303 54 m 439 781 l 296 399 l 576 399 l 442 781 l 439 781 m 340 1067 q 286 1087 307 1067 q 264 1141 264 1107 q 286 1196 264 1175 q 340 1217 308 1217 q 394 1196 372 1217 q 415 1142 415 1176 q 393 1087 415 1108 q 340 1067 372 1067 m 623 1067 q 569 1087 591 1067 q 548 1141 548 1107 q 570 1196 548 1175 q 623 1217 591 1217 q 677 1196 656 1217 q 699 1142 699 1176 q 677 1087 699 1108 q 623 1067 655 1067 z "},"Å":{"ha":960,"x_min":-27,"x_max":973,"o":"m 303 54 l 303 0 l -27 0 l -27 54 l 102 54 l 454 996 l 508 996 l 839 54 l 973 54 l 973 0 l 556 0 l 556 54 l 697 54 l 595 344 l 275 344 l 168 54 l 303 54 m 439 781 l 296 399 l 576 399 l 442 781 l 439 781 m 331 1172 q 341 1219 331 1197 q 371 1259 351 1242 q 419 1285 391 1276 q 485 1295 448 1295 q 548 1286 520 1295 q 594 1260 575 1276 q 623 1222 613 1244 q 632 1176 632 1200 q 622 1128 632 1151 q 592 1089 612 1106 q 544 1063 572 1073 q 478 1053 515 1053 q 415 1063 442 1053 q 369 1088 388 1072 q 340 1126 350 1105 q 331 1172 331 1147 m 410 1173 q 431 1111 410 1129 q 481 1093 451 1093 q 509 1097 496 1093 q 531 1111 522 1101 q 547 1137 541 1121 q 553 1175 553 1152 q 547 1213 553 1198 q 532 1238 542 1228 q 510 1252 523 1247 q 482 1256 497 1256 q 431 1237 452 1256 q 410 1173 410 1219 z "},"Æ":{"ha":1392,"x_min":-68,"x_max":1303,"o":"m 129 54 l 264 54 l 264 0 l -68 0 l -68 54 l 57 54 l 567 931 l 465 931 l 465 985 l 1266 985 l 1280 713 l 1232 713 q 1207 824 1222 781 q 1165 890 1192 866 q 1096 923 1139 914 q 987 931 1053 931 l 792 931 l 792 517 l 867 517 q 943 520 913 517 q 992 539 974 524 q 1021 589 1011 555 q 1034 684 1030 623 l 1082 684 l 1082 289 l 1034 289 q 1023 382 1031 348 q 996 434 1015 416 q 947 456 978 452 q 867 461 916 461 l 792 461 l 792 54 l 958 54 q 1051 58 1011 54 q 1121 73 1091 62 q 1172 104 1151 84 q 1209 155 1194 123 q 1236 231 1225 186 q 1256 336 1246 275 l 1303 336 l 1290 0 l 517 0 l 517 54 l 660 54 l 660 462 l 365 462 l 129 54 m 660 931 l 637 931 l 397 517 l 660 517 l 660 931 z "},"Ç":{"ha":937,"x_min":92,"x_max":842,"o":"m 842 295 l 832 26 q 762 6 800 15 q 686 -10 724 -3 q 609 -20 647 -16 q 539 -23 572 -23 q 352 12 435 -23 q 211 113 269 47 q 122 272 153 178 q 92 483 92 366 q 124 700 92 603 q 217 866 157 797 q 363 971 277 935 q 555 1008 449 1008 q 618 1005 585 1008 q 685 997 651 1002 q 753 983 720 991 q 818 964 787 975 l 826 717 l 779 717 q 752 837 772 791 q 700 909 731 884 q 629 945 669 935 q 546 954 590 954 q 461 946 501 954 q 387 918 421 938 q 325 863 353 897 q 279 777 298 829 q 249 653 260 725 q 239 487 239 582 q 249 322 239 393 q 278 201 259 252 q 323 118 296 151 q 383 65 350 85 q 454 39 416 46 q 536 31 493 31 q 631 43 587 31 q 708 85 675 55 q 764 165 742 115 q 794 295 786 216 l 842 295 m 444 -234 q 479 -253 462 -247 q 512 -259 496 -259 q 561 -240 541 -259 q 580 -186 580 -220 q 561 -134 580 -151 q 509 -117 541 -117 q 496 -117 503 -117 q 482 -119 490 -118 l 482 7 l 530 7 l 530 -69 l 538 -69 q 588 -78 566 -69 q 627 -101 611 -86 q 653 -137 644 -116 q 662 -182 662 -158 q 650 -235 662 -212 q 618 -273 637 -258 q 573 -296 598 -288 q 523 -304 549 -304 q 467 -295 494 -304 q 420 -265 440 -285 q 429 -248 424 -256 q 444 -234 435 -240 z "},"È":{"ha":928,"x_min":44,"x_max":837,"o":"m 312 538 l 401 538 q 477 542 446 538 q 526 561 507 545 q 554 611 545 577 q 568 705 564 644 l 616 705 l 616 304 l 568 304 q 556 401 564 366 q 530 455 548 437 q 480 478 511 473 q 401 483 450 483 l 312 483 l 312 54 l 492 54 q 585 58 545 54 q 654 73 625 62 q 706 104 684 84 q 743 155 727 123 q 769 231 758 186 q 789 336 780 275 l 837 336 l 823 0 l 44 0 l 44 54 l 180 54 l 180 931 l 44 931 l 44 985 l 806 985 l 820 713 l 772 713 q 747 824 762 781 q 706 890 732 866 q 636 923 679 914 q 527 931 593 931 l 312 931 l 312 538 m 272 1215 q 307 1264 288 1242 q 348 1304 326 1287 l 582 1077 q 556 1044 573 1057 l 272 1215 z "},"É":{"ha":928,"x_min":44,"x_max":837,"o":"m 312 538 l 401 538 q 477 542 446 538 q 526 561 507 545 q 554 611 545 577 q 568 705 564 644 l 616 705 l 616 304 l 568 304 q 556 401 564 366 q 530 455 548 437 q 480 478 511 473 q 401 483 450 483 l 312 483 l 312 54 l 492 54 q 585 58 545 54 q 654 73 625 62 q 706 104 684 84 q 743 155 727 123 q 769 231 758 186 q 789 336 780 275 l 837 336 l 823 0 l 44 0 l 44 54 l 180 54 l 180 931 l 44 931 l 44 985 l 806 985 l 820 713 l 772 713 q 747 824 762 781 q 706 890 732 866 q 636 923 679 914 q 527 931 593 931 l 312 931 l 312 538 m 366 1044 q 340 1077 349 1057 l 574 1304 q 615 1264 596 1287 q 650 1215 635 1242 l 366 1044 z "},"Ê":{"ha":928,"x_min":44,"x_max":837,"o":"m 312 538 l 401 538 q 477 542 446 538 q 526 561 507 545 q 554 611 545 577 q 568 705 564 644 l 616 705 l 616 304 l 568 304 q 556 401 564 366 q 530 455 548 437 q 480 478 511 473 q 401 483 450 483 l 312 483 l 312 54 l 492 54 q 585 58 545 54 q 654 73 625 62 q 706 104 684 84 q 743 155 727 123 q 769 231 758 186 q 789 336 780 275 l 837 336 l 823 0 l 44 0 l 44 54 l 180 54 l 180 931 l 44 931 l 44 985 l 806 985 l 820 713 l 772 713 q 747 824 762 781 q 706 890 732 866 q 636 923 679 914 q 527 931 593 931 l 312 931 l 312 538 m 481 1284 l 684 1077 q 672 1059 679 1067 q 656 1044 665 1051 l 461 1169 l 266 1044 q 250 1059 257 1051 q 239 1077 243 1067 l 441 1284 l 481 1284 z "},"Ë":{"ha":928,"x_min":44,"x_max":837,"o":"m 312 538 l 401 538 q 477 542 446 538 q 526 561 507 545 q 554 611 545 577 q 568 705 564 644 l 616 705 l 616 304 l 568 304 q 556 401 564 366 q 530 455 548 437 q 480 478 511 473 q 401 483 450 483 l 312 483 l 312 54 l 492 54 q 585 58 545 54 q 654 73 625 62 q 706 104 684 84 q 743 155 727 123 q 769 231 758 186 q 789 336 780 275 l 837 336 l 823 0 l 44 0 l 44 54 l 180 54 l 180 931 l 44 931 l 44 985 l 806 985 l 820 713 l 772 713 q 747 824 762 781 q 706 890 732 866 q 636 923 679 914 q 527 931 593 931 l 312 931 l 312 538 m 319 1067 q 266 1087 287 1067 q 244 1141 244 1107 q 266 1196 244 1175 q 319 1217 288 1217 q 373 1196 352 1217 q 395 1142 395 1176 q 373 1087 395 1108 q 319 1067 351 1067 m 603 1067 q 549 1087 570 1067 q 528 1141 528 1107 q 549 1196 528 1175 q 603 1217 571 1217 q 657 1196 635 1217 q 678 1142 678 1176 q 656 1087 678 1108 q 603 1067 635 1067 z "},"Ì":{"ha":492,"x_min":44,"x_max":448,"o":"m 312 931 l 312 54 l 448 54 l 448 0 l 44 0 l 44 54 l 180 54 l 180 931 l 44 931 l 44 985 l 448 985 l 448 931 l 312 931 m 57 1215 q 92 1264 73 1242 q 133 1304 111 1287 l 367 1077 q 341 1044 358 1057 l 57 1215 z "},"Í":{"ha":492,"x_min":44,"x_max":448,"o":"m 312 931 l 312 54 l 448 54 l 448 0 l 44 0 l 44 54 l 180 54 l 180 931 l 44 931 l 44 985 l 448 985 l 448 931 l 312 931 m 151 1044 q 125 1077 134 1057 l 359 1304 q 400 1264 381 1287 q 435 1215 420 1242 l 151 1044 z "},"Î":{"ha":492,"x_min":24,"x_max":469,"o":"m 312 931 l 312 54 l 448 54 l 448 0 l 44 0 l 44 54 l 180 54 l 180 931 l 44 931 l 44 985 l 448 985 l 448 931 l 312 931 m 266 1284 l 469 1077 q 457 1059 464 1067 q 441 1044 450 1051 l 246 1169 l 51 1044 q 35 1059 42 1051 q 24 1077 28 1067 l 226 1284 l 266 1284 z "},"Ï":{"ha":492,"x_min":29,"x_max":463,"o":"m 312 931 l 312 54 l 448 54 l 448 0 l 44 0 l 44 54 l 180 54 l 180 931 l 44 931 l 44 985 l 448 985 l 448 931 l 312 931 m 104 1067 q 51 1087 72 1067 q 29 1141 29 1107 q 51 1196 29 1175 q 104 1217 73 1217 q 158 1196 137 1217 q 180 1142 180 1176 q 158 1087 180 1108 q 104 1067 136 1067 m 388 1067 q 334 1087 355 1067 q 313 1141 313 1107 q 334 1196 313 1175 q 388 1217 356 1217 q 442 1196 420 1217 q 463 1142 463 1176 q 441 1087 463 1108 q 388 1067 420 1067 z "},"Ñ":{"ha":1044,"x_min":37,"x_max":1014,"o":"m 878 -10 l 824 -10 l 237 899 l 234 899 l 234 54 l 356 54 l 356 0 l 37 0 l 37 54 l 173 54 l 173 931 l 37 931 l 37 985 l 340 985 l 814 252 l 817 252 l 817 931 l 682 931 l 682 985 l 1014 985 l 1014 931 l 878 931 l 878 -10 m 751 1297 q 702 1158 736 1208 q 613 1109 668 1109 q 555 1125 581 1109 q 506 1159 529 1141 q 465 1190 483 1177 q 427 1202 446 1202 q 407 1198 418 1202 q 387 1184 397 1194 q 368 1155 376 1173 q 353 1107 359 1137 q 329 1109 342 1107 q 307 1116 317 1111 q 356 1255 322 1206 q 446 1304 390 1304 q 499 1291 476 1304 q 546 1259 522 1278 q 569 1241 558 1250 q 589 1225 579 1232 q 609 1215 600 1219 q 630 1211 619 1211 q 650 1215 640 1211 q 671 1229 661 1219 q 690 1258 682 1240 q 705 1305 699 1276 q 729 1304 716 1305 q 751 1297 741 1302 z "},"Ò":{"ha":1043,"x_min":85,"x_max":959,"o":"m 85 484 q 118 702 85 605 q 210 867 151 799 q 351 972 269 935 q 530 1008 433 1008 q 706 973 627 1008 q 841 871 785 937 q 928 712 897 806 q 959 503 959 618 q 929 292 959 389 q 842 125 899 195 q 702 16 785 56 q 516 -23 620 -23 q 339 12 418 -23 q 203 113 260 47 q 116 273 147 179 q 85 484 85 367 m 233 488 q 242 324 233 394 q 270 203 252 254 q 314 119 288 153 q 372 66 340 86 q 441 39 404 47 q 519 31 478 31 q 598 39 561 31 q 669 67 636 47 q 728 121 701 87 q 773 207 754 155 q 802 330 791 258 q 812 497 812 401 q 802 661 812 591 q 774 782 792 731 q 730 866 756 833 q 673 919 705 899 q 604 946 642 939 q 526 954 567 954 q 446 946 484 954 q 376 918 408 938 q 317 864 343 899 q 272 779 290 830 q 243 655 253 727 q 233 488 233 583 m 332 1215 q 367 1264 348 1242 q 408 1304 387 1287 l 642 1077 q 616 1044 633 1057 l 332 1215 z "},"Ó":{"ha":1043,"x_min":85,"x_max":959,"o":"m 85 484 q 118 702 85 605 q 210 867 151 799 q 351 972 269 935 q 530 1008 433 1008 q 706 973 627 1008 q 841 871 785 937 q 928 712 897 806 q 959 503 959 618 q 929 292 959 389 q 842 125 899 195 q 702 16 785 56 q 516 -23 620 -23 q 339 12 418 -23 q 203 113 260 47 q 116 273 147 179 q 85 484 85 367 m 233 488 q 242 324 233 394 q 270 203 252 254 q 314 119 288 153 q 372 66 340 86 q 441 39 404 47 q 519 31 478 31 q 598 39 561 31 q 669 67 636 47 q 728 121 701 87 q 773 207 754 155 q 802 330 791 258 q 812 497 812 401 q 802 661 812 591 q 774 782 792 731 q 730 866 756 833 q 673 919 705 899 q 604 946 642 939 q 526 954 567 954 q 446 946 484 954 q 376 918 408 938 q 317 864 343 899 q 272 779 290 830 q 243 655 253 727 q 233 488 233 583 m 427 1044 q 401 1077 410 1057 l 635 1304 q 676 1264 656 1287 q 711 1215 695 1242 l 427 1044 z "},"Ô":{"ha":1043,"x_min":85,"x_max":959,"o":"m 85 484 q 118 702 85 605 q 210 867 151 799 q 351 972 269 935 q 530 1008 433 1008 q 706 973 627 1008 q 841 871 785 937 q 928 712 897 806 q 959 503 959 618 q 929 292 959 389 q 842 125 899 195 q 702 16 785 56 q 516 -23 620 -23 q 339 12 418 -23 q 203 113 260 47 q 116 273 147 179 q 85 484 85 367 m 233 488 q 242 324 233 394 q 270 203 252 254 q 314 119 288 153 q 372 66 340 86 q 441 39 404 47 q 519 31 478 31 q 598 39 561 31 q 669 67 636 47 q 728 121 701 87 q 773 207 754 155 q 802 330 791 258 q 812 497 812 401 q 802 661 812 591 q 774 782 792 731 q 730 866 756 833 q 673 919 705 899 q 604 946 642 939 q 526 954 567 954 q 446 946 484 954 q 376 918 408 938 q 317 864 343 899 q 272 779 290 830 q 243 655 253 727 q 233 488 233 583 m 541 1284 l 744 1077 q 732 1059 739 1067 q 717 1044 726 1051 l 522 1169 l 326 1044 q 311 1059 317 1051 q 299 1077 304 1067 l 501 1284 l 541 1284 z "},"Õ":{"ha":1043,"x_min":85,"x_max":959,"o":"m 85 484 q 118 702 85 605 q 210 867 151 799 q 351 972 269 935 q 530 1008 433 1008 q 706 973 627 1008 q 841 871 785 937 q 928 712 897 806 q 959 503 959 618 q 929 292 959 389 q 842 125 899 195 q 702 16 785 56 q 516 -23 620 -23 q 339 12 418 -23 q 203 113 260 47 q 116 273 147 179 q 85 484 85 367 m 233 488 q 242 324 233 394 q 270 203 252 254 q 314 119 288 153 q 372 66 340 86 q 441 39 404 47 q 519 31 478 31 q 598 39 561 31 q 669 67 636 47 q 728 121 701 87 q 773 207 754 155 q 802 330 791 258 q 812 497 812 401 q 802 661 812 591 q 774 782 792 731 q 730 866 756 833 q 673 919 705 899 q 604 946 642 939 q 526 954 567 954 q 446 946 484 954 q 376 918 408 938 q 317 864 343 899 q 272 779 290 830 q 243 655 253 727 q 233 488 233 583 m 751 1243 q 702 1110 736 1157 q 614 1063 669 1063 q 582 1068 597 1063 q 554 1079 567 1072 q 528 1094 541 1086 q 505 1111 516 1103 q 467 1137 487 1124 q 425 1149 446 1149 q 406 1146 416 1149 q 385 1133 395 1142 q 366 1106 375 1123 q 352 1062 357 1089 q 328 1064 340 1062 q 305 1070 315 1065 q 355 1204 321 1158 q 444 1250 389 1250 q 498 1237 475 1250 q 545 1208 522 1225 q 589 1177 569 1190 q 630 1164 608 1164 q 650 1167 640 1164 q 671 1180 661 1171 q 690 1207 682 1190 q 705 1251 699 1224 q 729 1250 716 1251 q 751 1243 741 1248 z "},"Ö":{"ha":1043,"x_min":85,"x_max":959,"o":"m 85 484 q 118 702 85 605 q 210 867 151 799 q 351 972 269 935 q 530 1008 433 1008 q 706 973 627 1008 q 841 871 785 937 q 928 712 897 806 q 959 503 959 618 q 929 292 959 389 q 842 125 899 195 q 702 16 785 56 q 516 -23 620 -23 q 339 12 418 -23 q 203 113 260 47 q 116 273 147 179 q 85 484 85 367 m 233 488 q 242 324 233 394 q 270 203 252 254 q 314 119 288 153 q 372 66 340 86 q 441 39 404 47 q 519 31 478 31 q 598 39 561 31 q 669 67 636 47 q 728 121 701 87 q 773 207 754 155 q 802 330 791 258 q 812 497 812 401 q 802 661 812 591 q 774 782 792 731 q 730 866 756 833 q 673 919 705 899 q 604 946 642 939 q 526 954 567 954 q 446 946 484 954 q 376 918 408 938 q 317 864 343 899 q 272 779 290 830 q 243 655 253 727 q 233 488 233 583 m 380 1067 q 326 1087 347 1067 q 304 1141 304 1107 q 326 1196 304 1175 q 380 1217 348 1217 q 434 1196 412 1217 q 455 1142 455 1176 q 433 1087 455 1108 q 380 1067 412 1067 m 663 1067 q 609 1087 631 1067 q 588 1141 588 1107 q 610 1196 588 1175 q 663 1217 631 1217 q 717 1196 696 1217 q 739 1142 739 1176 q 717 1087 739 1108 q 663 1067 695 1067 z "},"Ø":{"ha":1057,"x_min":87,"x_max":969,"o":"m 92 484 q 124 702 92 605 q 216 867 157 799 q 357 972 275 935 q 536 1008 439 1008 q 698 979 625 1008 q 826 894 771 949 l 928 1017 q 950 1002 939 1010 q 969 985 960 994 l 861 854 q 938 700 911 788 q 965 503 965 612 q 935 292 965 389 q 848 125 905 195 q 708 16 791 56 q 522 -23 626 -23 q 359 6 433 -23 q 231 91 286 36 l 129 -33 q 107 -19 117 -27 q 87 -1 96 -10 l 195 130 q 118 285 145 196 q 92 484 92 374 m 237 488 q 245 335 237 401 q 269 220 254 269 l 765 820 q 721 885 746 859 q 666 926 696 911 q 603 948 637 941 q 532 954 569 954 q 452 946 490 954 q 381 918 414 938 q 322 864 349 899 q 277 779 296 830 q 248 655 258 727 q 237 488 237 583 m 526 31 q 605 39 567 31 q 675 67 643 47 q 734 121 708 87 q 780 207 761 155 q 809 330 799 258 q 819 497 819 401 q 811 649 819 584 q 787 764 803 715 l 291 164 q 335 100 310 125 q 390 59 360 74 q 454 37 420 43 q 526 31 488 31 z "},"Œ":{"ha":1484,"x_min":92,"x_max":1392,"o":"m 92 483 q 124 702 92 605 q 214 868 156 800 q 352 972 272 936 q 528 1008 433 1008 q 654 989 598 1008 q 755 935 709 970 l 755 985 l 1362 985 l 1375 713 l 1328 713 q 1303 824 1318 781 q 1261 890 1288 866 q 1191 923 1234 914 q 1082 931 1148 931 l 888 931 l 888 538 l 963 538 q 1039 542 1008 538 q 1088 561 1069 545 q 1116 611 1107 577 q 1130 705 1126 644 l 1178 705 l 1178 304 l 1130 304 q 1118 401 1126 366 q 1092 455 1110 437 q 1043 478 1074 473 q 963 483 1012 483 l 888 483 l 888 54 l 1047 54 q 1140 58 1100 54 q 1210 73 1180 62 q 1261 104 1240 84 q 1298 155 1282 123 q 1324 231 1314 186 q 1345 336 1335 275 l 1392 336 l 1379 0 l 755 0 l 755 58 q 650 -2 709 19 q 515 -23 591 -23 q 341 12 419 -23 q 207 113 262 47 q 122 273 152 179 q 92 483 92 366 m 525 954 q 447 946 484 954 q 378 918 410 938 q 320 865 346 899 q 276 779 294 831 q 249 655 258 727 q 239 488 239 584 q 248 325 239 395 q 275 203 258 254 q 317 119 292 153 q 373 66 342 86 q 440 39 404 47 q 517 31 476 31 q 583 37 550 31 q 647 55 616 42 q 706 87 678 67 q 755 138 733 108 l 755 853 q 705 902 732 882 q 649 932 678 921 q 588 949 619 944 q 525 954 557 954 z "},"Š":{"ha":779,"x_min":75,"x_max":704,"o":"m 75 295 l 123 295 q 153 166 130 218 q 208 84 175 115 q 283 41 241 54 q 373 28 326 28 q 470 43 430 28 q 537 82 511 57 q 575 143 563 108 q 587 222 587 179 q 569 309 587 275 q 520 367 551 343 q 444 409 488 391 q 347 446 400 427 q 247 486 294 465 q 162 538 199 507 q 104 614 125 569 q 83 726 83 659 q 103 842 83 789 q 163 931 123 894 q 263 988 203 968 q 401 1008 322 1008 q 465 1005 432 1008 q 531 996 498 1002 q 596 982 564 990 q 656 963 628 973 l 665 717 l 617 717 q 590 836 611 790 q 539 908 569 882 q 472 944 509 935 q 396 954 435 954 q 307 942 345 954 q 243 906 269 929 q 206 849 218 882 q 193 773 193 815 q 211 690 193 723 q 261 632 229 656 q 338 590 293 608 q 437 551 383 571 q 535 510 487 532 q 620 457 583 489 q 681 377 658 425 q 704 260 704 330 q 681 140 704 193 q 613 51 657 87 q 507 -4 570 15 q 364 -23 444 -23 q 293 -20 330 -23 q 219 -9 256 -16 q 149 6 183 -3 q 84 26 114 15 l 75 295 m 374 1048 l 171 1255 q 182 1273 176 1265 q 198 1287 189 1280 l 393 1162 l 589 1287 q 604 1273 597 1280 q 616 1255 611 1265 l 414 1048 l 374 1048 z "},"Ù":{"ha":1019,"x_min":34,"x_max":991,"o":"m 302 319 q 307 209 302 260 q 335 119 312 157 q 404 57 357 80 q 533 35 450 35 q 669 58 617 35 q 748 122 720 81 q 786 219 777 163 q 795 340 795 275 l 795 931 l 660 931 l 660 985 l 991 985 l 991 931 l 857 931 l 857 348 q 842 188 857 257 q 788 72 827 119 q 684 1 749 25 q 516 -23 618 -23 q 359 -3 425 -23 q 252 58 294 16 q 190 163 210 99 q 170 315 170 227 l 170 931 l 34 931 l 34 985 l 437 985 l 437 931 l 302 931 l 302 319 m 340 1215 q 375 1264 355 1242 q 416 1304 394 1287 l 650 1077 q 624 1044 641 1057 l 340 1215 z "},"Ú":{"ha":1019,"x_min":34,"x_max":991,"o":"m 302 319 q 307 209 302 260 q 335 119 312 157 q 404 57 357 80 q 533 35 450 35 q 669 58 617 35 q 748 122 720 81 q 786 219 777 163 q 795 340 795 275 l 795 931 l 660 931 l 660 985 l 991 985 l 991 931 l 857 931 l 857 348 q 842 188 857 257 q 788 72 827 119 q 684 1 749 25 q 516 -23 618 -23 q 359 -3 425 -23 q 252 58 294 16 q 190 163 210 99 q 170 315 170 227 l 170 931 l 34 931 l 34 985 l 437 985 l 437 931 l 302 931 l 302 319 m 434 1044 q 408 1077 417 1057 l 642 1304 q 683 1264 664 1287 q 718 1215 703 1242 l 434 1044 z "},"Û":{"ha":1019,"x_min":34,"x_max":991,"o":"m 302 319 q 307 209 302 260 q 335 119 312 157 q 404 57 357 80 q 533 35 450 35 q 669 58 617 35 q 748 122 720 81 q 786 219 777 163 q 795 340 795 275 l 795 931 l 660 931 l 660 985 l 991 985 l 991 931 l 857 931 l 857 348 q 842 188 857 257 q 788 72 827 119 q 684 1 749 25 q 516 -23 618 -23 q 359 -3 425 -23 q 252 58 294 16 q 190 163 210 99 q 170 315 170 227 l 170 931 l 34 931 l 34 985 l 437 985 l 437 931 l 302 931 l 302 319 m 549 1284 l 751 1077 q 740 1059 747 1067 q 724 1044 733 1051 l 529 1169 l 334 1044 q 318 1059 325 1051 q 307 1077 311 1067 l 509 1284 l 549 1284 z "},"Ü":{"ha":1019,"x_min":34,"x_max":991,"o":"m 302 319 q 307 209 302 260 q 335 119 312 157 q 404 57 357 80 q 533 35 450 35 q 669 58 617 35 q 748 122 720 81 q 786 219 777 163 q 795 340 795 275 l 795 931 l 660 931 l 660 985 l 991 985 l 991 931 l 857 931 l 857 348 q 842 188 857 257 q 788 72 827 119 q 684 1 749 25 q 516 -23 618 -23 q 359 -3 425 -23 q 252 58 294 16 q 190 163 210 99 q 170 315 170 227 l 170 931 l 34 931 l 34 985 l 437 985 l 437 931 l 302 931 l 302 319 m 387 1067 q 333 1087 355 1067 q 312 1141 312 1107 q 334 1196 312 1175 q 387 1217 355 1217 q 441 1196 420 1217 q 463 1142 463 1176 q 441 1087 463 1108 q 387 1067 419 1067 m 671 1067 q 617 1087 638 1067 q 595 1141 595 1107 q 617 1196 595 1175 q 671 1217 639 1217 q 725 1196 703 1217 q 746 1142 746 1176 q 724 1087 746 1108 q 671 1067 703 1067 z "},"Ý":{"ha":931,"x_min":-20,"x_max":945,"o":"m -20 985 l 383 985 l 383 931 l 258 931 l 509 538 l 756 931 l 628 931 l 628 985 l 945 985 l 945 931 l 829 931 l 539 471 l 539 54 l 688 54 l 688 0 l 258 0 l 258 54 l 407 54 l 407 451 l 100 931 l -20 931 l -20 985 m 397 1044 q 371 1077 380 1057 l 605 1304 q 646 1264 627 1287 q 681 1215 665 1242 l 397 1044 z "},"Ÿ":{"ha":931,"x_min":-20,"x_max":945,"o":"m -20 985 l 383 985 l 383 931 l 258 931 l 509 538 l 756 931 l 628 931 l 628 985 l 945 985 l 945 931 l 829 931 l 539 471 l 539 54 l 688 54 l 688 0 l 258 0 l 258 54 l 407 54 l 407 451 l 100 931 l -20 931 l -20 985 m 350 1067 q 296 1087 317 1067 q 275 1141 275 1107 q 296 1196 275 1175 q 350 1217 318 1217 q 404 1196 382 1217 q 425 1142 425 1176 q 404 1087 425 1108 q 350 1067 382 1067 m 633 1067 q 579 1087 601 1067 q 558 1141 558 1107 q 580 1196 558 1175 q 633 1217 602 1217 q 687 1196 666 1217 q 709 1142 709 1176 q 687 1087 709 1108 q 633 1067 665 1067 z "},"Ž":{"ha":881,"x_min":68,"x_max":806,"o":"m 68 0 l 68 42 l 621 931 l 390 931 q 312 928 346 931 q 253 915 278 924 q 209 888 227 905 q 178 845 191 871 q 156 781 165 819 q 140 693 146 744 l 92 693 l 112 985 l 787 985 l 787 943 l 224 54 l 461 54 q 554 58 514 54 q 624 73 594 62 q 675 104 654 84 q 712 155 696 123 q 739 231 728 186 q 759 336 749 275 l 806 336 l 793 0 l 68 0 m 428 1048 l 225 1255 q 237 1273 230 1265 q 252 1287 243 1280 l 448 1162 l 643 1287 q 659 1273 652 1280 q 670 1255 665 1265 l 468 1048 l 428 1048 z "},"Ð":{"ha":1035,"x_min":51,"x_max":943,"o":"m 186 483 l 51 483 l 51 538 l 186 538 l 186 931 l 51 931 l 51 985 l 460 985 q 690 951 597 985 q 839 855 783 918 q 919 703 895 792 q 943 505 943 614 q 935 379 943 441 q 905 261 926 317 q 849 157 884 205 q 758 74 813 109 q 627 20 703 39 q 450 0 551 0 l 51 0 l 51 54 l 186 54 l 186 483 m 319 54 l 441 54 q 615 75 546 54 q 724 146 684 95 q 780 283 764 197 q 796 503 796 370 q 791 636 796 576 q 772 744 786 696 q 735 827 759 791 q 673 885 711 862 q 582 920 635 908 q 456 931 528 931 l 319 931 l 319 538 l 566 538 l 566 483 l 319 483 l 319 54 z "},"Þ":{"ha":873,"x_min":37,"x_max":816,"o":"m 305 931 l 305 800 l 414 800 q 604 779 527 800 q 727 723 680 759 q 795 636 774 686 q 816 525 816 585 q 797 414 816 468 q 731 317 778 359 q 605 248 684 274 q 406 222 526 222 l 305 222 l 305 54 l 444 54 l 444 0 l 37 0 l 37 54 l 173 54 l 173 931 l 37 931 l 37 985 l 444 985 l 444 931 l 305 931 m 305 277 l 395 277 q 526 289 473 277 q 611 329 579 300 q 656 405 643 357 q 670 522 670 452 q 660 623 670 581 q 621 692 650 665 q 540 732 591 720 q 406 745 488 745 l 305 745 l 305 277 z "},"a":{"ha":662,"x_min":54,"x_max":631,"o":"m 631 0 q 578 -7 603 -5 q 540 -8 554 -8 q 480 -2 504 -8 q 444 14 457 3 q 424 41 430 25 q 416 75 418 56 l 413 75 q 372 31 394 49 q 327 1 351 12 q 278 -14 303 -9 q 229 -19 254 -19 q 155 -8 187 -19 q 100 24 122 3 q 66 72 77 44 q 54 134 54 100 q 147 278 54 229 q 414 330 239 327 q 415 385 414 361 q 415 433 415 410 q 390 520 415 495 q 309 545 364 545 q 244 536 273 545 q 197 515 215 528 q 221 482 213 499 q 229 448 229 465 q 210 400 229 419 q 160 381 192 381 q 134 385 146 381 q 111 398 121 389 q 96 420 102 407 q 90 451 90 433 q 105 505 90 479 q 151 551 121 531 q 226 584 181 572 q 332 596 271 596 q 418 587 380 596 q 482 555 456 577 q 521 496 508 533 q 534 406 534 460 q 534 361 534 392 q 533 293 534 330 q 532 217 532 256 q 532 150 532 179 q 533 100 532 120 q 540 68 534 80 q 556 51 545 56 q 587 46 567 46 q 631 50 604 46 l 631 0 m 414 279 q 294 268 340 277 q 224 242 249 259 q 190 202 199 226 q 181 148 181 178 q 203 69 181 95 q 264 43 225 43 q 311 52 285 43 q 360 80 337 60 q 398 133 383 100 q 414 214 414 165 l 414 279 z "},"b":{"ha":759,"x_min":24,"x_max":701,"o":"m 220 0 l 125 0 l 125 931 l 24 931 l 24 985 l 248 985 l 248 502 l 250 502 q 328 573 280 550 q 432 596 376 596 q 540 574 491 596 q 625 513 589 553 q 681 417 661 473 q 701 292 701 361 q 679 162 701 220 q 620 64 657 104 q 533 3 583 24 q 429 -19 484 -19 q 327 5 374 -19 q 250 82 281 29 l 246 82 l 220 0 m 567 290 q 556 417 567 368 q 525 494 545 466 q 477 532 505 522 q 416 543 450 543 q 338 525 370 543 q 286 475 306 507 q 257 396 266 442 q 248 294 248 351 q 256 193 248 235 q 278 122 264 151 q 310 76 292 94 q 346 50 328 59 q 384 38 365 41 q 417 35 402 35 q 477 45 450 35 q 525 83 505 55 q 556 161 545 111 q 567 290 567 211 z "},"c":{"ha":640,"x_min":58,"x_max":592,"o":"m 592 188 q 508 33 570 85 q 349 -19 447 -19 q 228 5 281 -19 q 136 71 174 29 q 78 167 98 112 q 58 283 58 222 q 79 405 58 348 q 140 504 100 462 q 234 571 179 547 q 357 596 290 596 q 446 584 406 596 q 515 550 486 571 q 561 501 545 529 q 577 443 577 473 q 570 407 577 421 q 551 383 562 392 q 526 370 540 374 q 500 366 513 366 q 448 387 467 366 q 429 437 429 408 q 437 475 429 455 q 465 513 446 496 q 411 538 441 532 q 356 545 381 545 q 295 536 324 545 q 242 500 265 528 q 206 422 220 473 q 193 286 193 371 q 205 159 193 208 q 240 82 218 110 q 292 45 262 55 q 357 35 321 35 q 417 44 389 35 q 469 72 446 53 q 510 123 492 92 q 539 201 528 155 q 566 196 553 199 q 592 188 580 193 z "},"d":{"ha":769,"x_min":58,"x_max":735,"o":"m 192 288 q 203 161 192 210 q 233 84 214 112 q 280 45 253 56 q 340 35 308 35 q 425 57 392 35 q 477 116 458 79 q 504 199 496 153 q 511 294 511 245 q 499 411 511 363 q 464 488 486 458 q 411 530 441 517 q 343 543 380 543 q 283 532 311 543 q 235 494 255 522 q 203 416 214 466 q 192 288 192 367 m 633 54 l 735 54 l 735 0 l 511 0 l 511 82 l 509 82 q 470 34 491 53 q 427 2 450 14 q 378 -14 404 -9 q 328 -19 353 -19 q 213 5 263 -19 q 128 70 163 29 q 76 166 94 111 q 58 283 58 221 q 77 406 58 349 q 133 505 97 463 q 220 572 170 547 q 332 596 271 596 q 437 571 392 596 q 509 502 481 547 l 511 502 l 511 931 l 403 931 l 403 985 l 633 985 l 633 54 z "},"e":{"ha":670,"x_min":58,"x_max":602,"o":"m 593 184 q 509 33 572 85 q 347 -19 447 -19 q 225 5 279 -19 q 134 71 172 29 q 77 167 97 112 q 58 285 58 222 q 78 406 58 349 q 136 505 98 463 q 226 571 174 547 q 344 596 279 596 q 451 575 404 596 q 532 516 498 554 q 583 427 565 479 q 602 312 601 374 l 193 312 q 193 297 193 300 q 193 292 193 293 q 204 162 193 212 q 238 84 216 112 q 289 45 259 56 q 354 35 318 35 q 417 44 387 35 q 470 72 446 53 q 512 122 494 92 q 541 197 530 153 q 568 192 554 195 q 593 184 581 189 m 465 365 q 453 456 463 421 q 427 511 444 491 q 389 537 411 530 q 340 545 367 545 q 289 536 313 545 q 245 508 264 528 q 214 453 227 488 q 197 365 201 418 l 465 365 z "},"f":{"ha":410,"x_min":37,"x_max":543,"o":"m 387 997 q 451 988 422 997 q 500 963 480 979 q 532 926 521 947 q 543 881 543 905 q 523 825 543 847 q 471 804 503 804 q 444 808 457 804 q 421 822 431 813 q 406 844 412 831 q 400 873 400 857 q 408 908 400 890 q 431 940 415 926 q 381 947 412 947 q 333 940 355 947 q 295 910 311 934 q 270 842 279 887 q 261 720 261 797 l 261 578 l 410 578 l 410 524 l 261 524 l 261 54 l 370 54 l 370 0 l 37 0 l 37 54 l 139 54 l 139 524 l 37 524 l 37 578 l 139 578 l 139 646 q 157 798 139 732 q 209 908 176 864 q 287 975 241 952 q 387 997 332 997 z "},"g":{"ha":690,"x_min":47,"x_max":680,"o":"m 152 -146 q 135 -183 140 -165 q 130 -218 130 -201 q 143 -266 130 -245 q 181 -301 157 -287 q 239 -322 205 -315 q 313 -330 273 -330 q 411 -317 368 -330 q 484 -281 454 -304 q 529 -227 513 -258 q 545 -161 545 -197 q 534 -113 545 -132 q 505 -85 524 -95 q 459 -71 486 -75 q 402 -67 433 -67 q 352 -67 380 -67 q 298 -68 324 -68 q 252 -70 273 -69 q 224 -70 232 -70 q 157 -60 185 -70 q 110 -34 129 -51 q 82 6 91 -17 q 73 56 73 29 q 89 132 73 92 q 142 212 105 171 q 98 282 113 242 q 83 366 83 321 q 100 455 83 413 q 147 528 116 496 q 223 578 178 559 q 326 596 268 596 q 420 581 378 596 q 491 538 461 565 q 528 570 510 557 q 562 590 546 583 q 591 600 577 597 q 615 603 604 603 q 644 598 632 603 q 664 584 656 593 q 676 565 672 576 q 680 544 680 555 q 666 505 680 522 q 627 488 652 488 q 590 500 607 488 q 567 538 572 513 q 542 525 553 533 q 518 507 530 517 q 549 445 538 479 q 559 374 559 411 q 543 285 559 327 q 496 211 527 243 q 420 161 465 180 q 317 143 375 143 q 243 153 277 143 q 182 179 209 162 q 156 137 165 157 q 146 99 146 117 q 166 63 146 77 q 232 49 185 49 q 263 49 239 49 q 315 50 286 50 q 371 51 343 50 q 413 51 398 51 q 502 42 461 51 q 571 14 542 34 q 616 -40 600 -7 q 632 -123 632 -73 q 608 -231 632 -183 q 539 -313 583 -279 q 436 -365 496 -347 q 304 -383 376 -383 q 194 -370 242 -383 q 114 -335 146 -357 q 64 -285 81 -313 q 47 -227 47 -257 q 63 -170 47 -197 q 109 -119 78 -143 q 132 -131 122 -125 q 152 -146 141 -138 m 434 372 q 429 454 434 420 q 411 508 424 488 q 377 538 399 529 q 323 548 356 548 q 268 538 290 548 q 233 508 246 529 q 214 452 220 486 q 209 368 209 417 q 214 285 209 319 q 232 231 219 252 q 266 200 245 210 q 320 191 288 191 q 375 201 353 191 q 410 232 397 210 q 429 288 423 254 q 434 372 434 322 z "},"h":{"ha":768,"x_min":34,"x_max":738,"o":"m 258 54 l 349 54 l 349 0 l 34 0 l 34 54 l 136 54 l 136 931 l 34 931 l 34 985 l 258 985 l 258 487 l 260 487 q 335 568 289 539 q 455 596 382 596 q 594 548 549 596 q 640 412 640 500 l 640 54 l 738 54 l 738 0 l 426 0 l 426 54 l 517 54 l 517 427 q 492 510 517 484 q 420 535 467 535 q 357 522 387 535 q 306 479 328 508 q 271 406 283 451 q 258 298 258 361 l 258 54 z "},"i":{"ha":397,"x_min":37,"x_max":363,"o":"m 261 54 l 363 54 l 363 0 l 37 0 l 37 54 l 139 54 l 139 524 l 37 524 l 37 578 l 261 578 l 261 54 m 200 769 q 168 775 182 769 q 142 791 153 781 q 125 817 131 802 q 119 850 119 831 q 125 882 119 867 q 142 908 132 897 q 168 925 153 919 q 200 931 183 931 q 232 925 217 931 q 258 909 247 920 q 275 883 269 898 q 281 850 281 869 q 275 817 281 832 q 258 792 269 802 q 232 775 247 781 q 200 769 217 769 z "},"j":{"ha":376,"x_min":-108,"x_max":274,"o":"m 254 578 l 254 -56 q 197 -300 254 -217 q 37 -383 140 -383 q -24 -375 3 -383 q -70 -351 -51 -366 q -98 -317 -88 -336 q -108 -275 -108 -298 q -88 -222 -108 -243 q -37 -201 -68 -201 q -11 -206 -23 -201 q 12 -219 2 -210 q 27 -240 21 -227 q 33 -268 33 -252 q 25 -301 33 -284 q 5 -330 18 -317 q 23 -332 14 -331 q 41 -334 32 -334 q 85 -324 68 -334 q 113 -293 103 -315 q 128 -237 123 -272 q 132 -149 132 -201 l 132 524 l 30 524 l 30 578 l 254 578 m 193 769 q 160 775 175 769 q 135 791 146 781 q 117 817 123 802 q 111 850 111 831 q 135 908 111 886 q 193 931 158 931 q 251 909 227 931 q 274 850 274 887 q 268 817 274 832 q 250 792 261 802 q 224 775 239 781 q 193 769 210 769 z "},"k":{"ha":759,"x_min":34,"x_max":752,"o":"m 258 54 l 356 54 l 356 0 l 34 0 l 34 54 l 136 54 l 136 931 l 34 931 l 34 985 l 258 985 l 258 54 m 288 315 l 492 524 l 393 524 l 393 578 l 701 578 l 701 524 l 566 524 l 406 357 l 669 54 l 752 54 l 752 0 l 423 0 l 423 54 l 515 54 l 288 315 z "},"l":{"ha":393,"x_min":34,"x_max":359,"o":"m 258 54 l 359 54 l 359 0 l 34 0 l 34 54 l 136 54 l 136 931 l 34 931 l 34 985 l 258 985 l 258 54 z "},"m":{"ha":1140,"x_min":37,"x_max":1109,"o":"m 261 54 l 353 54 l 353 0 l 37 0 l 37 54 l 139 54 l 139 524 l 37 524 l 37 578 l 261 578 l 261 479 l 264 479 q 337 566 291 536 q 456 596 383 596 q 573 564 531 596 q 629 463 615 531 l 631 463 q 707 563 659 529 q 831 596 755 596 q 967 548 922 596 q 1011 412 1011 500 l 1011 54 l 1109 54 l 1109 0 l 798 0 l 798 54 l 889 54 l 889 431 q 865 510 889 484 q 795 535 840 535 q 734 520 763 535 q 683 475 705 506 q 649 397 661 445 q 636 285 636 350 l 636 54 l 728 54 l 728 0 l 422 0 l 422 54 l 514 54 l 514 431 q 490 510 514 484 q 420 535 465 535 q 359 520 388 535 q 308 475 330 506 q 274 397 286 445 q 261 285 261 350 l 261 54 z "},"n":{"ha":772,"x_min":37,"x_max":741,"o":"m 261 54 l 353 54 l 353 0 l 37 0 l 37 54 l 139 54 l 139 524 l 37 524 l 37 578 l 261 578 l 261 479 l 264 479 q 338 566 292 536 q 459 596 385 596 q 597 548 552 596 q 643 412 643 500 l 643 54 l 741 54 l 741 0 l 429 0 l 429 54 l 521 54 l 521 431 q 496 510 521 484 q 425 535 471 535 q 361 520 391 535 q 309 475 331 506 q 274 397 287 445 q 261 285 261 350 l 261 54 z "},"o":{"ha":705,"x_min":58,"x_max":648,"o":"m 58 283 q 78 404 58 347 q 136 504 98 461 q 231 571 175 547 q 358 596 287 596 q 483 572 429 596 q 574 507 537 548 q 629 410 610 465 q 648 294 648 355 q 628 173 648 230 q 569 73 608 116 q 474 6 530 31 q 347 -19 418 -19 q 222 5 277 -19 q 132 71 168 29 q 76 167 95 112 q 58 283 58 222 m 192 286 q 202 163 192 212 q 232 85 212 115 q 281 44 252 56 q 351 33 311 33 q 421 45 391 33 q 472 86 452 57 q 503 166 492 116 q 513 291 513 216 q 503 414 513 365 q 473 492 493 463 q 424 533 454 521 q 354 545 393 545 q 284 532 314 545 q 233 491 254 520 q 202 411 213 461 q 192 286 192 361 z "},"p":{"ha":769,"x_min":34,"x_max":711,"o":"m 258 491 l 260 491 q 338 571 290 546 q 444 596 385 596 q 550 574 501 596 q 635 513 600 553 q 691 417 671 473 q 711 292 711 361 q 689 162 711 220 q 630 64 667 104 q 543 3 593 24 q 438 -19 494 -19 q 337 5 383 -19 q 260 82 291 29 l 258 82 l 258 -317 l 366 -317 l 366 -372 l 34 -372 l 34 -317 l 136 -317 l 136 524 l 34 524 l 34 578 l 258 578 l 258 491 m 577 290 q 566 417 577 368 q 535 494 555 466 q 488 532 515 522 q 429 543 461 543 q 349 523 382 543 q 296 469 317 503 q 267 387 276 434 q 258 286 258 340 q 266 189 258 230 q 289 120 275 149 q 321 75 303 92 q 359 50 340 58 q 396 38 378 41 q 429 35 414 35 q 488 45 460 35 q 534 83 515 55 q 566 160 554 111 q 577 290 577 210 z "},"q":{"ha":759,"x_min":58,"x_max":735,"o":"m 633 578 l 633 -317 l 735 -317 l 735 -372 l 403 -372 l 403 -317 l 511 -317 l 511 82 l 509 82 q 430 4 476 27 q 328 -19 383 -19 q 219 3 269 -19 q 134 64 170 24 q 78 160 98 104 q 58 284 58 216 q 80 414 58 357 q 139 512 102 472 q 225 574 176 553 q 329 596 275 596 q 433 570 386 596 q 509 491 479 545 l 513 491 l 540 578 l 633 578 m 192 288 q 203 160 192 210 q 234 83 214 111 q 281 45 254 55 q 340 35 308 35 q 467 97 422 35 q 511 288 511 160 q 503 387 511 345 q 480 456 494 428 q 448 501 466 484 q 410 527 429 518 q 373 539 391 536 q 340 543 354 543 q 281 532 309 543 q 235 494 254 522 q 203 417 215 467 q 192 288 192 367 z "},"r":{"ha":530,"x_min":37,"x_max":523,"o":"m 370 0 l 37 0 l 37 54 l 139 54 l 139 524 l 37 524 l 37 578 l 261 578 l 261 473 l 264 473 q 294 521 276 499 q 334 559 312 543 q 380 585 355 576 q 429 593 404 593 q 496 570 470 593 q 523 504 523 546 q 503 446 523 467 q 450 425 482 425 q 398 445 416 425 q 380 494 380 465 q 386 528 380 510 q 337 498 359 519 q 297 446 314 477 q 271 374 280 415 q 261 283 261 333 l 261 54 l 370 54 l 370 0 z "},"s":{"ha":568,"x_min":68,"x_max":517,"o":"m 438 386 q 424 460 435 430 q 393 510 412 491 q 348 537 374 529 q 286 546 321 546 q 237 541 260 546 q 199 525 215 536 q 173 498 182 515 q 164 457 164 481 q 173 418 164 433 q 200 391 181 403 q 250 368 220 379 q 324 342 280 357 q 394 317 359 330 q 456 283 429 303 q 500 234 484 262 q 517 163 517 205 q 496 82 517 117 q 441 25 475 47 q 362 -8 406 3 q 272 -19 318 -19 q 220 -16 248 -19 q 166 -9 193 -14 q 115 2 139 -4 q 73 16 91 9 l 68 212 l 115 212 q 129 126 118 161 q 160 70 140 91 q 209 40 180 49 q 277 31 238 31 q 331 36 306 31 q 374 53 355 41 q 402 82 392 64 q 413 126 413 100 q 405 163 413 149 q 379 189 397 178 q 334 211 361 201 q 267 235 306 221 q 193 263 229 248 q 130 298 157 277 q 87 348 103 319 q 71 419 71 377 q 90 499 71 465 q 140 554 109 532 q 213 586 172 576 q 298 596 254 596 q 345 594 320 596 q 393 587 369 591 q 439 578 417 583 q 479 568 461 573 l 484 386 l 438 386 z "},"t":{"ha":492,"x_min":24,"x_max":469,"o":"m 469 136 q 408 19 450 56 q 292 -19 366 -19 q 223 -9 254 -19 q 170 21 192 0 q 137 74 149 41 q 125 152 125 106 l 125 524 l 24 524 l 24 578 l 125 578 l 125 709 l 248 730 l 248 578 l 424 578 l 424 524 l 248 524 l 248 137 q 253 92 248 109 q 267 64 258 74 q 290 50 277 54 q 319 46 302 46 q 356 53 340 46 q 384 72 372 59 q 404 105 395 85 q 420 151 412 125 q 445 145 433 149 q 469 136 457 142 z "},"u":{"ha":765,"x_min":27,"x_max":731,"o":"m 507 524 l 409 524 l 409 578 l 629 578 l 629 54 l 731 54 l 731 0 l 507 0 l 507 87 l 505 87 q 431 7 475 33 q 317 -19 387 -19 q 173 28 220 -19 q 125 165 125 75 l 125 524 l 27 524 l 27 578 l 248 578 l 248 145 q 273 66 248 90 q 346 42 298 42 q 409 55 379 42 q 460 96 438 67 q 495 170 482 124 q 507 283 507 216 l 507 524 z "},"v":{"ha":685,"x_min":-24,"x_max":705,"o":"m 317 -9 l 77 524 l -24 524 l -24 578 l 306 578 l 306 524 l 211 524 l 379 147 l 382 147 l 549 524 l 454 524 l 454 578 l 705 578 l 705 524 l 606 524 l 371 -9 l 317 -9 z "},"w":{"ha":1057,"x_min":-17,"x_max":1071,"o":"m 697 -9 l 530 401 l 362 -9 l 305 -9 l 84 524 l -17 524 l -17 578 l 314 578 l 314 524 l 217 524 l 369 147 l 372 147 l 545 581 l 587 581 l 761 147 l 764 147 l 913 524 l 818 524 l 818 578 l 1071 578 l 1071 524 l 972 524 l 755 -9 l 697 -9 z "},"x":{"ha":658,"x_min":-10,"x_max":661,"o":"m 550 54 l 661 54 l 661 0 l 340 0 l 340 54 l 406 54 l 298 219 l 170 54 l 250 54 l 250 0 l -10 0 l -10 54 l 99 54 l 264 269 l 97 524 l 0 524 l 0 578 l 311 578 l 311 524 l 241 524 l 349 360 l 475 524 l 395 524 l 395 578 l 652 578 l 652 524 l 546 524 l 382 310 l 550 54 z "},"y":{"ha":689,"x_min":-24,"x_max":709,"o":"m 551 524 l 456 524 l 456 578 l 709 578 l 709 524 l 609 524 l 347 -69 q 276 -223 307 -162 q 218 -319 245 -283 q 167 -369 192 -355 q 113 -383 142 -383 q 72 -376 90 -383 q 41 -357 54 -369 q 22 -330 28 -345 q 16 -298 16 -314 q 20 -270 16 -283 q 35 -246 25 -256 q 57 -229 44 -235 q 88 -222 71 -222 q 117 -228 104 -222 q 139 -244 130 -234 q 152 -266 147 -254 q 156 -292 156 -279 q 155 -307 156 -301 l 157 -307 q 222 -206 184 -283 q 315 -4 260 -128 l 79 524 l -24 524 l -24 578 l 307 578 l 307 524 l 212 524 l 380 147 l 383 147 l 551 524 z "},"z":{"ha":639,"x_min":64,"x_max":566,"o":"m 566 227 l 559 0 l 64 0 l 64 41 l 409 520 l 305 520 q 227 515 257 520 q 176 494 196 510 q 144 446 156 477 q 124 361 133 414 l 73 361 l 83 574 l 564 574 l 564 534 l 215 54 l 336 54 q 414 59 384 54 q 464 82 445 64 q 494 134 483 100 q 515 227 505 168 l 566 227 z "},"à":{"ha":662,"x_min":54,"x_max":631,"o":"m 631 0 q 578 -7 603 -5 q 540 -8 554 -8 q 480 -2 504 -8 q 444 14 457 3 q 424 41 430 25 q 416 75 418 56 l 413 75 q 372 31 394 49 q 327 1 351 12 q 278 -14 303 -9 q 229 -19 254 -19 q 155 -8 187 -19 q 100 24 122 3 q 66 72 77 44 q 54 134 54 100 q 147 278 54 229 q 414 330 239 327 q 415 385 414 361 q 415 433 415 410 q 390 520 415 495 q 309 545 364 545 q 244 536 273 545 q 197 515 215 528 q 221 482 213 499 q 229 448 229 465 q 210 400 229 419 q 160 381 192 381 q 134 385 146 381 q 111 398 121 389 q 96 420 102 407 q 90 451 90 433 q 105 505 90 479 q 151 551 121 531 q 226 584 181 572 q 332 596 271 596 q 418 587 380 596 q 482 555 456 577 q 521 496 508 533 q 534 406 534 460 q 534 361 534 392 q 533 293 534 330 q 532 217 532 256 q 532 150 532 179 q 533 100 532 120 q 540 68 534 80 q 556 51 545 56 q 587 46 567 46 q 631 50 604 46 l 631 0 m 414 279 q 294 268 340 277 q 224 242 249 259 q 190 202 199 226 q 181 148 181 178 q 203 69 181 95 q 264 43 225 43 q 311 52 285 43 q 360 80 337 60 q 398 133 383 100 q 414 214 414 165 l 414 279 m 110 930 q 210 997 159 976 l 376 716 q 360 702 368 708 q 342 692 353 696 l 110 930 z "},"á":{"ha":662,"x_min":54,"x_max":631,"o":"m 631 0 q 578 -7 603 -5 q 540 -8 554 -8 q 480 -2 504 -8 q 444 14 457 3 q 424 41 430 25 q 416 75 418 56 l 413 75 q 372 31 394 49 q 327 1 351 12 q 278 -14 303 -9 q 229 -19 254 -19 q 155 -8 187 -19 q 100 24 122 3 q 66 72 77 44 q 54 134 54 100 q 147 278 54 229 q 414 330 239 327 q 415 385 414 361 q 415 433 415 410 q 390 520 415 495 q 309 545 364 545 q 244 536 273 545 q 197 515 215 528 q 221 482 213 499 q 229 448 229 465 q 210 400 229 419 q 160 381 192 381 q 134 385 146 381 q 111 398 121 389 q 96 420 102 407 q 90 451 90 433 q 105 505 90 479 q 151 551 121 531 q 226 584 181 572 q 332 596 271 596 q 418 587 380 596 q 482 555 456 577 q 521 496 508 533 q 534 406 534 460 q 534 361 534 392 q 533 293 534 330 q 532 217 532 256 q 532 150 532 179 q 533 100 532 120 q 540 68 534 80 q 556 51 545 56 q 587 46 567 46 q 631 50 604 46 l 631 0 m 414 279 q 294 268 340 277 q 224 242 249 259 q 190 202 199 226 q 181 148 181 178 q 203 69 181 95 q 264 43 225 43 q 311 52 285 43 q 360 80 337 60 q 398 133 383 100 q 414 214 414 165 l 414 279 m 302 692 q 284 702 292 696 q 269 716 276 708 l 435 997 q 534 930 486 976 l 302 692 z "},"â":{"ha":662,"x_min":54,"x_max":631,"o":"m 631 0 q 578 -7 603 -5 q 540 -8 554 -8 q 480 -2 504 -8 q 444 14 457 3 q 424 41 430 25 q 416 75 418 56 l 413 75 q 372 31 394 49 q 327 1 351 12 q 278 -14 303 -9 q 229 -19 254 -19 q 155 -8 187 -19 q 100 24 122 3 q 66 72 77 44 q 54 134 54 100 q 147 278 54 229 q 414 330 239 327 q 415 385 414 361 q 415 433 415 410 q 390 520 415 495 q 309 545 364 545 q 244 536 273 545 q 197 515 215 528 q 221 482 213 499 q 229 448 229 465 q 210 400 229 419 q 160 381 192 381 q 134 385 146 381 q 111 398 121 389 q 96 420 102 407 q 90 451 90 433 q 105 505 90 479 q 151 551 121 531 q 226 584 181 572 q 332 596 271 596 q 418 587 380 596 q 482 555 456 577 q 521 496 508 533 q 534 406 534 460 q 534 361 534 392 q 533 293 534 330 q 532 217 532 256 q 532 150 532 179 q 533 100 532 120 q 540 68 534 80 q 556 51 545 56 q 587 46 567 46 q 631 50 604 46 l 631 0 m 414 279 q 294 268 340 277 q 224 242 249 259 q 190 202 199 226 q 181 148 181 178 q 203 69 181 95 q 264 43 225 43 q 311 52 285 43 q 360 80 337 60 q 398 133 383 100 q 414 214 414 165 l 414 279 m 153 692 q 135 702 142 696 q 119 716 127 708 l 298 991 l 347 991 l 525 716 q 510 702 517 708 q 492 692 502 696 l 322 863 l 153 692 z "},"ã":{"ha":662,"x_min":54,"x_max":631,"o":"m 631 0 q 578 -7 603 -5 q 540 -8 554 -8 q 480 -2 504 -8 q 444 14 457 3 q 424 41 430 25 q 416 75 418 56 l 413 75 q 372 31 394 49 q 327 1 351 12 q 278 -14 303 -9 q 229 -19 254 -19 q 155 -8 187 -19 q 100 24 122 3 q 66 72 77 44 q 54 134 54 100 q 147 278 54 229 q 414 330 239 327 q 415 385 414 361 q 415 433 415 410 q 390 520 415 495 q 309 545 364 545 q 244 536 273 545 q 197 515 215 528 q 221 482 213 499 q 229 448 229 465 q 210 400 229 419 q 160 381 192 381 q 134 385 146 381 q 111 398 121 389 q 96 420 102 407 q 90 451 90 433 q 105 505 90 479 q 151 551 121 531 q 226 584 181 572 q 332 596 271 596 q 418 587 380 596 q 482 555 456 577 q 521 496 508 533 q 534 406 534 460 q 534 361 534 392 q 533 293 534 330 q 532 217 532 256 q 532 150 532 179 q 533 100 532 120 q 540 68 534 80 q 556 51 545 56 q 587 46 567 46 q 631 50 604 46 l 631 0 m 414 279 q 294 268 340 277 q 224 242 249 259 q 190 202 199 226 q 181 148 181 178 q 203 69 181 95 q 264 43 225 43 q 311 52 285 43 q 360 80 337 60 q 398 133 383 100 q 414 214 414 165 l 414 279 m 551 920 q 502 781 536 830 q 413 731 468 731 q 355 747 380 731 q 306 781 329 763 q 264 812 283 800 q 227 824 246 824 q 207 820 218 824 q 186 806 197 817 q 168 777 176 795 q 153 730 159 759 q 129 731 142 730 q 106 738 117 733 q 156 878 122 829 q 245 926 190 926 q 299 913 276 926 q 346 882 322 900 q 369 863 358 872 q 389 848 379 854 q 409 837 399 841 q 430 833 419 833 q 450 837 439 833 q 471 851 461 841 q 490 880 481 862 q 505 928 499 899 q 529 926 516 928 q 551 920 541 924 z "},"ä":{"ha":662,"x_min":54,"x_max":631,"o":"m 631 0 q 578 -7 603 -5 q 540 -8 554 -8 q 480 -2 504 -8 q 444 14 457 3 q 424 41 430 25 q 416 75 418 56 l 413 75 q 372 31 394 49 q 327 1 351 12 q 278 -14 303 -9 q 229 -19 254 -19 q 155 -8 187 -19 q 100 24 122 3 q 66 72 77 44 q 54 134 54 100 q 147 278 54 229 q 414 330 239 327 q 415 385 414 361 q 415 433 415 410 q 390 520 415 495 q 309 545 364 545 q 244 536 273 545 q 197 515 215 528 q 221 482 213 499 q 229 448 229 465 q 210 400 229 419 q 160 381 192 381 q 134 385 146 381 q 111 398 121 389 q 96 420 102 407 q 90 451 90 433 q 105 505 90 479 q 151 551 121 531 q 226 584 181 572 q 332 596 271 596 q 418 587 380 596 q 482 555 456 577 q 521 496 508 533 q 534 406 534 460 q 534 361 534 392 q 533 293 534 330 q 532 217 532 256 q 532 150 532 179 q 533 100 532 120 q 540 68 534 80 q 556 51 545 56 q 587 46 567 46 q 631 50 604 46 l 631 0 m 414 279 q 294 268 340 277 q 224 242 249 259 q 190 202 199 226 q 181 148 181 178 q 203 69 181 95 q 264 43 225 43 q 311 52 285 43 q 360 80 337 60 q 398 133 383 100 q 414 214 414 165 l 414 279 m 186 769 q 130 790 153 769 q 108 846 108 812 q 114 878 108 863 q 131 902 120 892 q 155 919 141 913 q 186 924 170 924 q 241 903 219 924 q 264 847 264 882 q 258 815 264 829 q 241 791 252 801 q 216 775 231 781 q 186 769 202 769 m 458 769 q 403 790 425 769 q 380 846 380 812 q 387 878 380 863 q 403 902 393 892 q 428 919 414 913 q 458 924 442 924 q 514 903 492 924 q 536 847 536 882 q 530 815 536 829 q 514 791 524 801 q 489 775 503 781 q 458 769 475 769 z "},"å":{"ha":662,"x_min":54,"x_max":631,"o":"m 631 0 q 578 -7 603 -5 q 540 -8 554 -8 q 480 -2 504 -8 q 444 14 457 3 q 424 41 430 25 q 416 75 418 56 l 413 75 q 372 31 394 49 q 327 1 351 12 q 278 -14 303 -9 q 229 -19 254 -19 q 155 -8 187 -19 q 100 24 122 3 q 66 72 77 44 q 54 134 54 100 q 147 278 54 229 q 414 330 239 327 q 415 385 414 361 q 415 433 415 410 q 390 520 415 495 q 309 545 364 545 q 244 536 273 545 q 197 515 215 528 q 221 482 213 499 q 229 448 229 465 q 210 400 229 419 q 160 381 192 381 q 134 385 146 381 q 111 398 121 389 q 96 420 102 407 q 90 451 90 433 q 105 505 90 479 q 151 551 121 531 q 226 584 181 572 q 332 596 271 596 q 418 587 380 596 q 482 555 456 577 q 521 496 508 533 q 534 406 534 460 q 534 361 534 392 q 533 293 534 330 q 532 217 532 256 q 532 150 532 179 q 533 100 532 120 q 540 68 534 80 q 556 51 545 56 q 587 46 567 46 q 631 50 604 46 l 631 0 m 414 279 q 294 268 340 277 q 224 242 249 259 q 190 202 199 226 q 181 148 181 178 q 203 69 181 95 q 264 43 225 43 q 311 52 285 43 q 360 80 337 60 q 398 133 383 100 q 414 214 414 165 l 414 279 m 165 838 q 176 888 165 865 q 207 930 186 912 q 257 958 227 947 q 326 968 287 968 q 392 958 363 968 q 440 931 420 948 q 469 891 459 913 q 479 842 479 868 q 469 792 479 816 q 437 751 458 769 q 387 723 417 733 q 319 713 357 713 q 253 723 281 713 q 204 750 224 733 q 175 790 185 767 q 165 838 165 812 m 246 840 q 268 772 246 791 q 321 753 289 753 q 352 758 338 753 q 376 772 366 762 q 392 800 387 783 q 398 842 398 817 q 377 909 398 890 q 323 928 355 928 q 293 923 307 928 q 268 908 279 919 q 252 881 258 898 q 246 840 246 864 z "},"æ":{"ha":999,"x_min":54,"x_max":931,"o":"m 499 522 q 576 577 530 557 q 677 596 621 596 q 781 575 734 596 q 860 516 827 554 q 911 427 893 479 q 931 312 930 374 l 534 312 q 533 297 533 300 q 533 292 533 293 q 544 165 533 215 q 576 86 555 115 q 625 46 596 58 q 688 35 654 35 q 749 44 721 35 q 801 72 777 53 q 842 122 824 92 q 869 197 859 153 q 897 192 883 195 q 922 184 910 189 q 840 33 901 85 q 681 -19 779 -19 q 539 16 599 -19 q 446 110 480 51 l 442 110 q 395 48 420 73 q 341 8 369 23 q 284 -13 313 -7 q 228 -19 256 -19 q 154 -8 186 -19 q 99 24 121 3 q 66 72 77 44 q 54 134 54 100 q 146 278 54 229 q 414 330 237 327 q 415 385 414 361 q 415 435 415 410 q 389 520 415 496 q 309 545 363 545 q 244 536 273 545 q 197 515 215 528 q 221 482 213 499 q 229 448 229 465 q 210 400 229 419 q 160 381 192 381 q 134 385 146 381 q 111 398 121 389 q 96 420 102 407 q 90 451 90 433 q 105 505 90 479 q 151 551 121 531 q 227 584 182 572 q 330 596 271 596 q 431 580 389 596 q 495 522 473 564 l 499 522 m 414 279 q 294 268 340 277 q 223 242 248 259 q 190 202 198 226 q 181 148 181 178 q 202 69 181 96 q 264 43 224 43 q 311 52 285 43 q 359 81 336 60 q 398 134 382 101 q 414 216 414 168 l 414 279 m 794 365 q 782 452 792 418 q 757 507 772 487 q 720 536 741 528 q 673 545 699 545 q 624 535 647 545 q 582 505 600 526 q 552 449 564 484 q 537 365 541 415 l 794 365 z "},"ç":{"ha":640,"x_min":58,"x_max":592,"o":"m 592 188 q 508 33 570 85 q 349 -19 447 -19 q 228 5 281 -19 q 136 71 174 29 q 78 167 98 112 q 58 283 58 222 q 79 405 58 348 q 140 504 100 462 q 234 571 179 547 q 357 596 290 596 q 446 584 406 596 q 515 550 486 571 q 561 501 545 529 q 577 443 577 473 q 570 407 577 421 q 551 383 562 392 q 526 370 540 374 q 500 366 513 366 q 448 387 467 366 q 429 437 429 408 q 437 475 429 455 q 465 513 446 496 q 411 538 441 532 q 356 545 381 545 q 295 536 324 545 q 242 500 265 528 q 206 422 220 473 q 193 286 193 371 q 205 159 193 208 q 240 82 218 110 q 292 45 262 55 q 357 35 321 35 q 417 44 389 35 q 469 72 446 53 q 510 123 492 92 q 539 201 528 155 q 566 196 553 199 q 592 188 580 193 m 254 -234 q 289 -253 272 -247 q 322 -259 307 -259 q 371 -240 351 -259 q 390 -186 390 -220 q 371 -134 390 -151 q 319 -117 351 -117 q 307 -117 313 -117 q 292 -119 300 -118 l 292 7 l 340 7 l 340 -69 l 349 -69 q 398 -78 376 -69 q 437 -101 421 -86 q 463 -137 454 -116 q 472 -182 472 -158 q 460 -235 472 -212 q 428 -273 448 -258 q 384 -296 408 -288 q 333 -304 359 -304 q 277 -295 304 -304 q 231 -265 250 -285 q 239 -248 234 -256 q 254 -234 245 -240 z "},"è":{"ha":670,"x_min":58,"x_max":602,"o":"m 593 184 q 509 33 572 85 q 347 -19 447 -19 q 225 5 279 -19 q 134 71 172 29 q 77 167 97 112 q 58 285 58 222 q 78 406 58 349 q 136 505 98 463 q 226 571 174 547 q 344 596 279 596 q 451 575 404 596 q 532 516 498 554 q 583 427 565 479 q 602 312 601 374 l 193 312 q 193 297 193 300 q 193 292 193 293 q 204 162 193 212 q 238 84 216 112 q 289 45 259 56 q 354 35 318 35 q 417 44 387 35 q 470 72 446 53 q 512 122 494 92 q 541 197 530 153 q 568 192 554 195 q 593 184 581 189 m 465 365 q 453 456 463 421 q 427 511 444 491 q 389 537 411 530 q 340 545 367 545 q 289 536 313 545 q 245 508 264 528 q 214 453 227 488 q 197 365 201 418 l 465 365 m 127 930 q 227 997 176 976 l 393 716 q 377 702 385 708 q 359 692 370 696 l 127 930 z "},"é":{"ha":670,"x_min":58,"x_max":602,"o":"m 593 184 q 509 33 572 85 q 347 -19 447 -19 q 225 5 279 -19 q 134 71 172 29 q 77 167 97 112 q 58 285 58 222 q 78 406 58 349 q 136 505 98 463 q 226 571 174 547 q 344 596 279 596 q 451 575 404 596 q 532 516 498 554 q 583 427 565 479 q 602 312 601 374 l 193 312 q 193 297 193 300 q 193 292 193 293 q 204 162 193 212 q 238 84 216 112 q 289 45 259 56 q 354 35 318 35 q 417 44 387 35 q 470 72 446 53 q 512 122 494 92 q 541 197 530 153 q 568 192 554 195 q 593 184 581 189 m 465 365 q 453 456 463 421 q 427 511 444 491 q 389 537 411 530 q 340 545 367 545 q 289 536 313 545 q 245 508 264 528 q 214 453 227 488 q 197 365 201 418 l 465 365 m 319 692 q 301 702 309 696 q 286 716 293 708 l 452 997 q 551 930 503 976 l 319 692 z "},"ê":{"ha":670,"x_min":58,"x_max":602,"o":"m 593 184 q 509 33 572 85 q 347 -19 447 -19 q 225 5 279 -19 q 134 71 172 29 q 77 167 97 112 q 58 285 58 222 q 78 406 58 349 q 136 505 98 463 q 226 571 174 547 q 344 596 279 596 q 451 575 404 596 q 532 516 498 554 q 583 427 565 479 q 602 312 601 374 l 193 312 q 193 297 193 300 q 193 292 193 293 q 204 162 193 212 q 238 84 216 112 q 289 45 259 56 q 354 35 318 35 q 417 44 387 35 q 470 72 446 53 q 512 122 494 92 q 541 197 530 153 q 568 192 554 195 q 593 184 581 189 m 465 365 q 453 456 463 421 q 427 511 444 491 q 389 537 411 530 q 340 545 367 545 q 289 536 313 545 q 245 508 264 528 q 214 453 227 488 q 197 365 201 418 l 465 365 m 170 692 q 152 702 159 696 q 136 716 144 708 l 315 991 l 363 991 l 542 716 q 527 702 534 708 q 509 692 519 696 l 339 863 l 170 692 z "},"ë":{"ha":670,"x_min":58,"x_max":602,"o":"m 593 184 q 509 33 572 85 q 347 -19 447 -19 q 225 5 279 -19 q 134 71 172 29 q 77 167 97 112 q 58 285 58 222 q 78 406 58 349 q 136 505 98 463 q 226 571 174 547 q 344 596 279 596 q 451 575 404 596 q 532 516 498 554 q 583 427 565 479 q 602 312 601 374 l 193 312 q 193 297 193 300 q 193 292 193 293 q 204 162 193 212 q 238 84 216 112 q 289 45 259 56 q 354 35 318 35 q 417 44 387 35 q 470 72 446 53 q 512 122 494 92 q 541 197 530 153 q 568 192 554 195 q 593 184 581 189 m 465 365 q 453 456 463 421 q 427 511 444 491 q 389 537 411 530 q 340 545 367 545 q 289 536 313 545 q 245 508 264 528 q 214 453 227 488 q 197 365 201 418 l 465 365 m 203 769 q 147 790 170 769 q 125 846 125 812 q 131 878 125 863 q 148 902 137 892 q 172 919 158 913 q 203 924 186 924 q 258 903 236 924 q 281 847 281 882 q 275 815 281 829 q 258 791 269 801 q 233 775 248 781 q 203 769 219 769 m 475 769 q 420 790 442 769 q 397 846 397 812 q 404 878 397 863 q 420 902 410 892 q 445 919 431 913 q 475 924 459 924 q 531 903 509 924 q 553 847 553 882 q 547 815 553 829 q 531 791 541 801 q 506 775 520 781 q 475 769 492 769 z "},"ì":{"ha":397,"x_min":-15,"x_max":363,"o":"m 261 54 l 363 54 l 363 0 l 37 0 l 37 54 l 139 54 l 139 524 l 37 524 l 37 578 l 261 578 l 261 54 m -15 930 q 85 997 34 976 l 251 716 q 236 702 243 708 q 218 692 228 696 l -15 930 z "},"í":{"ha":397,"x_min":37,"x_max":410,"o":"m 261 54 l 363 54 l 363 0 l 37 0 l 37 54 l 139 54 l 139 524 l 37 524 l 37 578 l 261 578 l 261 54 m 177 692 q 159 702 167 696 q 144 716 151 708 l 310 997 q 410 930 361 976 l 177 692 z "},"î":{"ha":397,"x_min":-5,"x_max":400,"o":"m 261 54 l 363 54 l 363 0 l 37 0 l 37 54 l 139 54 l 139 524 l 37 524 l 37 578 l 261 578 l 261 54 m 28 692 q 10 702 18 696 q -5 716 2 708 l 173 991 l 222 991 l 400 716 q 385 702 393 708 q 367 692 377 696 l 197 863 l 28 692 z "},"ï":{"ha":397,"x_min":-17,"x_max":412,"o":"m 261 54 l 363 54 l 363 0 l 37 0 l 37 54 l 139 54 l 139 524 l 37 524 l 37 578 l 261 578 l 261 54 m 61 769 q 5 790 28 769 q -17 846 -17 812 q -11 878 -17 863 q 6 902 -5 892 q 31 919 16 913 q 61 924 45 924 q 117 903 94 924 q 139 847 139 882 q 133 815 139 829 q 116 791 127 801 q 92 775 106 781 q 61 769 77 769 m 334 769 q 278 790 300 769 q 256 846 256 812 q 262 878 256 863 q 278 902 268 892 q 303 919 289 913 q 334 924 317 924 q 389 903 367 924 q 412 847 412 882 q 406 815 412 829 q 389 791 399 801 q 364 775 378 781 q 334 769 350 769 z "},"ñ":{"ha":772,"x_min":37,"x_max":741,"o":"m 261 54 l 353 54 l 353 0 l 37 0 l 37 54 l 139 54 l 139 524 l 37 524 l 37 578 l 261 578 l 261 479 l 264 479 q 338 566 292 536 q 459 596 385 596 q 597 548 552 596 q 643 412 643 500 l 643 54 l 741 54 l 741 0 l 429 0 l 429 54 l 521 54 l 521 431 q 496 510 521 484 q 425 535 471 535 q 361 520 391 535 q 309 475 331 506 q 274 397 287 445 q 261 285 261 350 l 261 54 m 623 920 q 573 781 607 830 q 484 731 539 731 q 426 747 452 731 q 377 781 400 763 q 336 812 354 800 q 298 824 317 824 q 278 820 289 824 q 258 806 268 817 q 239 777 248 795 q 224 730 230 759 q 200 731 213 730 q 178 738 188 733 q 227 878 193 829 q 317 926 261 926 q 370 913 347 926 q 417 882 393 900 q 440 863 429 872 q 460 848 450 854 q 480 837 471 841 q 501 833 490 833 q 522 837 511 833 q 543 851 532 841 q 562 880 553 862 q 576 928 570 899 q 600 926 587 928 q 623 920 612 924 z "},"ò":{"ha":705,"x_min":58,"x_max":648,"o":"m 58 283 q 78 404 58 347 q 136 504 98 461 q 231 571 175 547 q 358 596 287 596 q 483 572 429 596 q 574 507 537 548 q 629 410 610 465 q 648 294 648 355 q 628 173 648 230 q 569 73 608 116 q 474 6 530 31 q 347 -19 418 -19 q 222 5 277 -19 q 132 71 168 29 q 76 167 95 112 q 58 283 58 222 m 192 286 q 202 163 192 212 q 232 85 212 115 q 281 44 252 56 q 351 33 311 33 q 421 45 391 33 q 472 86 452 57 q 503 166 492 116 q 513 291 513 216 q 503 414 513 365 q 473 492 493 463 q 424 533 454 521 q 354 545 393 545 q 284 532 314 545 q 233 491 254 520 q 202 411 213 461 q 192 286 192 361 m 140 930 q 240 997 189 976 l 406 716 q 391 702 399 708 q 373 692 383 696 l 140 930 z "},"ó":{"ha":705,"x_min":58,"x_max":648,"o":"m 58 283 q 78 404 58 347 q 136 504 98 461 q 231 571 175 547 q 358 596 287 596 q 483 572 429 596 q 574 507 537 548 q 629 410 610 465 q 648 294 648 355 q 628 173 648 230 q 569 73 608 116 q 474 6 530 31 q 347 -19 418 -19 q 222 5 277 -19 q 132 71 168 29 q 76 167 95 112 q 58 283 58 222 m 192 286 q 202 163 192 212 q 232 85 212 115 q 281 44 252 56 q 351 33 311 33 q 421 45 391 33 q 472 86 452 57 q 503 166 492 116 q 513 291 513 216 q 503 414 513 365 q 473 492 493 463 q 424 533 454 521 q 354 545 393 545 q 284 532 314 545 q 233 491 254 520 q 202 411 213 461 q 192 286 192 361 m 332 692 q 314 702 322 696 q 299 716 307 708 l 465 997 q 565 930 516 976 l 332 692 z "},"ô":{"ha":705,"x_min":58,"x_max":648,"o":"m 58 283 q 78 404 58 347 q 136 504 98 461 q 231 571 175 547 q 358 596 287 596 q 483 572 429 596 q 574 507 537 548 q 629 410 610 465 q 648 294 648 355 q 628 173 648 230 q 569 73 608 116 q 474 6 530 31 q 347 -19 418 -19 q 222 5 277 -19 q 132 71 168 29 q 76 167 95 112 q 58 283 58 222 m 192 286 q 202 163 192 212 q 232 85 212 115 q 281 44 252 56 q 351 33 311 33 q 421 45 391 33 q 472 86 452 57 q 503 166 492 116 q 513 291 513 216 q 503 414 513 365 q 473 492 493 463 q 424 533 454 521 q 354 545 393 545 q 284 532 314 545 q 233 491 254 520 q 202 411 213 461 q 192 286 192 361 m 183 692 q 165 702 173 696 q 150 716 157 708 l 328 991 l 377 991 l 555 716 q 540 702 548 708 q 522 692 532 696 l 353 863 l 183 692 z "},"õ":{"ha":705,"x_min":58,"x_max":648,"o":"m 58 283 q 78 404 58 347 q 136 504 98 461 q 231 571 175 547 q 358 596 287 596 q 483 572 429 596 q 574 507 537 548 q 629 410 610 465 q 648 294 648 355 q 628 173 648 230 q 569 73 608 116 q 474 6 530 31 q 347 -19 418 -19 q 222 5 277 -19 q 132 71 168 29 q 76 167 95 112 q 58 283 58 222 m 192 286 q 202 163 192 212 q 232 85 212 115 q 281 44 252 56 q 351 33 311 33 q 421 45 391 33 q 472 86 452 57 q 503 166 492 116 q 513 291 513 216 q 503 414 513 365 q 473 492 493 463 q 424 533 454 521 q 354 545 393 545 q 284 532 314 545 q 233 491 254 520 q 202 411 213 461 q 192 286 192 361 m 582 920 q 532 781 566 830 q 444 731 498 731 q 385 747 411 731 q 336 781 359 763 q 295 812 313 800 q 257 824 277 824 q 238 820 248 824 q 217 806 227 817 q 198 777 207 795 q 184 730 189 759 q 160 731 172 730 q 137 738 147 733 q 186 878 153 829 q 276 926 220 926 q 330 913 307 926 q 376 882 353 900 q 399 863 389 872 q 420 848 410 854 q 440 837 430 841 q 460 833 450 833 q 481 837 470 833 q 502 851 492 841 q 521 880 512 862 q 535 928 530 899 q 559 926 547 928 q 582 920 572 924 z "},"ö":{"ha":705,"x_min":58,"x_max":648,"o":"m 58 283 q 78 404 58 347 q 136 504 98 461 q 231 571 175 547 q 358 596 287 596 q 483 572 429 596 q 574 507 537 548 q 629 410 610 465 q 648 294 648 355 q 628 173 648 230 q 569 73 608 116 q 474 6 530 31 q 347 -19 418 -19 q 222 5 277 -19 q 132 71 168 29 q 76 167 95 112 q 58 283 58 222 m 192 286 q 202 163 192 212 q 232 85 212 115 q 281 44 252 56 q 351 33 311 33 q 421 45 391 33 q 472 86 452 57 q 503 166 492 116 q 513 291 513 216 q 503 414 513 365 q 473 492 493 463 q 424 533 454 521 q 354 545 393 545 q 284 532 314 545 q 233 491 254 520 q 202 411 213 461 q 192 286 192 361 m 216 769 q 161 790 183 769 q 138 846 138 812 q 144 878 138 863 q 161 902 151 892 q 186 919 172 913 q 216 924 200 924 q 272 903 250 924 q 294 847 294 882 q 288 815 294 829 q 272 791 282 801 q 247 775 261 781 q 216 769 233 769 m 489 769 q 433 790 456 769 q 411 846 411 812 q 417 878 411 863 q 434 902 423 892 q 458 919 444 913 q 489 924 473 924 q 545 903 522 924 q 567 847 567 882 q 561 815 567 829 q 544 791 555 801 q 519 775 534 781 q 489 769 505 769 z "},"ø":{"ha":705,"x_min":58,"x_max":648,"o":"m 58 283 q 78 404 58 347 q 136 504 98 461 q 231 571 175 547 q 358 596 287 596 q 454 583 411 596 q 531 545 497 569 l 591 616 q 612 603 602 610 q 631 585 622 595 l 569 511 q 628 413 608 469 q 648 294 648 357 q 628 173 648 230 q 569 73 608 116 q 474 6 530 31 q 347 -19 418 -19 q 251 -5 294 -19 q 174 33 208 8 l 115 -39 q 93 -26 103 -34 q 75 -8 83 -18 l 136 66 q 77 164 97 109 q 58 283 58 220 m 351 33 q 421 45 391 33 q 473 86 452 57 q 504 166 494 116 q 515 291 515 216 q 511 368 515 334 q 501 429 508 401 l 225 94 q 277 46 245 60 q 351 33 309 33 m 191 286 q 203 149 191 200 l 480 483 q 428 531 460 517 q 354 545 397 545 q 284 532 314 545 q 233 491 254 520 q 201 411 212 461 q 191 286 191 361 z "},"œ":{"ha":1107,"x_min":58,"x_max":1039,"o":"m 569 84 q 475 9 533 37 q 344 -19 418 -19 q 220 5 274 -19 q 131 71 167 29 q 76 167 95 112 q 58 283 58 222 q 78 404 58 347 q 136 504 98 461 q 229 571 174 547 q 355 596 284 596 q 485 569 429 596 q 574 494 541 542 l 578 494 q 617 538 595 519 q 666 570 640 557 q 723 589 693 583 q 785 596 753 596 q 889 575 842 596 q 968 516 935 554 q 1019 427 1001 479 q 1039 312 1038 374 l 640 312 q 640 297 640 300 q 640 292 640 293 q 651 164 640 214 q 683 86 663 115 q 733 46 704 57 q 796 35 762 35 q 857 44 829 35 q 908 72 885 53 q 949 122 932 92 q 977 197 967 153 q 1004 192 991 195 q 1030 184 1018 189 q 947 33 1008 85 q 789 -19 886 -19 q 661 8 717 -19 q 573 84 606 35 l 569 84 m 192 286 q 202 164 192 213 q 231 86 212 115 q 280 45 250 57 q 348 33 309 33 q 416 45 387 33 q 466 87 446 57 q 496 166 486 117 q 507 291 507 216 q 497 413 507 364 q 468 491 487 462 q 419 532 448 520 q 351 545 389 545 q 282 532 312 545 q 232 490 252 520 q 202 411 212 460 q 192 286 192 361 m 902 365 q 890 452 900 418 q 865 507 880 487 q 828 536 849 528 q 781 545 806 545 q 731 535 755 545 q 690 506 708 526 q 659 450 671 485 q 644 365 647 416 l 902 365 z "},"š":{"ha":568,"x_min":68,"x_max":517,"o":"m 438 386 q 424 460 435 430 q 393 510 412 491 q 348 537 374 529 q 286 546 321 546 q 237 541 260 546 q 199 525 215 536 q 173 498 182 515 q 164 457 164 481 q 173 418 164 433 q 200 391 181 403 q 250 368 220 379 q 324 342 280 357 q 394 317 359 330 q 456 283 429 303 q 500 234 484 262 q 517 163 517 205 q 496 82 517 117 q 441 25 475 47 q 362 -8 406 3 q 272 -19 318 -19 q 220 -16 248 -19 q 166 -9 193 -14 q 115 2 139 -4 q 73 16 91 9 l 68 212 l 115 212 q 129 126 118 161 q 160 70 140 91 q 209 40 180 49 q 277 31 238 31 q 331 36 306 31 q 374 53 355 41 q 402 82 392 64 q 413 126 413 100 q 405 163 413 149 q 379 189 397 178 q 334 211 361 201 q 267 235 306 221 q 193 263 229 248 q 130 298 157 277 q 87 348 103 319 q 71 419 71 377 q 90 499 71 465 q 140 554 109 532 q 213 586 172 576 q 298 596 254 596 q 345 594 320 596 q 393 587 369 591 q 439 578 417 583 q 479 568 461 573 l 484 386 l 438 386 m 465 997 q 483 987 475 993 q 498 972 490 981 l 319 697 l 271 697 l 92 972 q 107 987 100 981 q 125 997 115 993 l 295 825 l 465 997 z "},"ß":{"ha":776,"x_min":31,"x_max":735,"o":"m 254 0 l 31 0 l 31 54 l 132 54 l 132 646 q 153 796 132 730 q 213 906 174 861 q 306 974 252 951 q 428 997 361 997 q 523 984 480 997 q 597 946 566 970 q 646 886 629 921 q 663 808 663 851 q 652 747 663 773 q 624 701 641 721 q 584 666 606 682 q 540 637 562 650 q 499 611 517 623 q 469 587 481 600 q 450 560 457 575 q 444 526 444 545 q 453 482 444 500 q 480 448 463 463 q 523 417 498 432 q 579 385 548 402 q 635 351 608 370 q 686 309 663 333 q 722 255 708 286 q 735 182 735 224 q 718 98 735 136 q 669 35 700 61 q 595 -5 637 9 q 502 -19 552 -19 q 430 -11 463 -19 q 373 13 397 -2 q 337 50 350 28 q 323 98 323 72 q 343 150 323 130 q 393 171 363 171 q 420 166 408 171 q 443 153 433 162 q 459 131 453 144 q 465 101 465 118 q 458 68 465 83 q 435 40 451 54 q 472 30 452 33 q 505 28 492 28 q 549 33 526 28 q 589 50 571 37 q 619 83 608 62 q 631 138 631 104 q 621 189 631 168 q 594 227 612 210 q 552 259 576 244 q 498 292 528 275 q 444 325 471 308 q 396 362 417 341 q 363 409 376 382 q 351 473 351 436 q 359 528 351 504 q 382 570 368 552 q 412 602 396 589 q 444 627 429 616 q 480 657 463 642 q 510 692 497 672 q 531 740 523 713 q 538 806 538 767 q 530 876 538 848 q 505 920 521 904 q 466 943 488 937 q 416 950 443 950 q 355 942 384 950 q 303 907 326 933 q 268 831 281 880 q 254 699 254 781 l 254 0 z "},"ù":{"ha":765,"x_min":27,"x_max":731,"o":"m 507 524 l 409 524 l 409 578 l 629 578 l 629 54 l 731 54 l 731 0 l 507 0 l 507 87 l 505 87 q 431 7 475 33 q 317 -19 387 -19 q 173 28 220 -19 q 125 165 125 75 l 125 524 l 27 524 l 27 578 l 248 578 l 248 145 q 273 66 248 90 q 346 42 298 42 q 409 55 379 42 q 460 96 438 67 q 495 170 482 124 q 507 283 507 216 l 507 524 m 154 930 q 254 997 203 976 l 420 716 q 405 702 412 708 q 387 692 397 696 l 154 930 z "},"ú":{"ha":765,"x_min":27,"x_max":731,"o":"m 507 524 l 409 524 l 409 578 l 629 578 l 629 54 l 731 54 l 731 0 l 507 0 l 507 87 l 505 87 q 431 7 475 33 q 317 -19 387 -19 q 173 28 220 -19 q 125 165 125 75 l 125 524 l 27 524 l 27 578 l 248 578 l 248 145 q 273 66 248 90 q 346 42 298 42 q 409 55 379 42 q 460 96 438 67 q 495 170 482 124 q 507 283 507 216 l 507 524 m 346 692 q 328 702 336 696 q 313 716 320 708 l 479 997 q 578 930 530 976 l 346 692 z "},"û":{"ha":765,"x_min":27,"x_max":731,"o":"m 507 524 l 409 524 l 409 578 l 629 578 l 629 54 l 731 54 l 731 0 l 507 0 l 507 87 l 505 87 q 431 7 475 33 q 317 -19 387 -19 q 173 28 220 -19 q 125 165 125 75 l 125 524 l 27 524 l 27 578 l 248 578 l 248 145 q 273 66 248 90 q 346 42 298 42 q 409 55 379 42 q 460 96 438 67 q 495 170 482 124 q 507 283 507 216 l 507 524 m 197 692 q 179 702 186 696 q 163 716 171 708 l 342 991 l 391 991 l 569 716 q 554 702 562 708 q 536 692 546 696 l 366 863 l 197 692 z "},"ü":{"ha":765,"x_min":27,"x_max":731,"o":"m 507 524 l 409 524 l 409 578 l 629 578 l 629 54 l 731 54 l 731 0 l 507 0 l 507 87 l 505 87 q 431 7 475 33 q 317 -19 387 -19 q 173 28 220 -19 q 125 165 125 75 l 125 524 l 27 524 l 27 578 l 248 578 l 248 145 q 273 66 248 90 q 346 42 298 42 q 409 55 379 42 q 460 96 438 67 q 495 170 482 124 q 507 283 507 216 l 507 524 m 230 769 q 174 790 197 769 q 152 846 152 812 q 158 878 152 863 q 175 902 164 892 q 199 919 185 913 q 230 924 214 924 q 286 903 263 924 q 308 847 308 882 q 302 815 308 829 q 285 791 296 801 q 260 775 275 781 q 230 769 246 769 m 503 769 q 447 790 469 769 q 425 846 425 812 q 431 878 425 863 q 447 902 437 892 q 472 919 458 913 q 503 924 486 924 q 558 903 536 924 q 581 847 581 882 q 574 815 581 829 q 558 791 568 801 q 533 775 547 781 q 503 769 519 769 z "},"ý":{"ha":689,"x_min":-24,"x_max":709,"o":"m 551 524 l 456 524 l 456 578 l 709 578 l 709 524 l 609 524 l 347 -69 q 276 -223 307 -162 q 218 -319 245 -283 q 167 -369 192 -355 q 113 -383 142 -383 q 72 -376 90 -383 q 41 -357 54 -369 q 22 -330 28 -345 q 16 -298 16 -314 q 20 -270 16 -283 q 35 -246 25 -256 q 57 -229 44 -235 q 88 -222 71 -222 q 117 -228 104 -222 q 139 -244 130 -234 q 152 -266 147 -254 q 156 -292 156 -279 q 155 -307 156 -301 l 157 -307 q 222 -206 184 -283 q 315 -4 260 -128 l 79 524 l -24 524 l -24 578 l 307 578 l 307 524 l 212 524 l 380 147 l 383 147 l 551 524 m 346 692 q 328 702 336 696 q 313 716 320 708 l 479 997 q 578 930 530 976 l 346 692 z "},"ÿ":{"ha":689,"x_min":-24,"x_max":709,"o":"m 551 524 l 456 524 l 456 578 l 709 578 l 709 524 l 609 524 l 347 -69 q 276 -223 307 -162 q 218 -319 245 -283 q 167 -369 192 -355 q 113 -383 142 -383 q 72 -376 90 -383 q 41 -357 54 -369 q 22 -330 28 -345 q 16 -298 16 -314 q 20 -270 16 -283 q 35 -246 25 -256 q 57 -229 44 -235 q 88 -222 71 -222 q 117 -228 104 -222 q 139 -244 130 -234 q 152 -266 147 -254 q 156 -292 156 -279 q 155 -307 156 -301 l 157 -307 q 222 -206 184 -283 q 315 -4 260 -128 l 79 524 l -24 524 l -24 578 l 307 578 l 307 524 l 212 524 l 380 147 l 383 147 l 551 524 m 230 769 q 174 790 197 769 q 152 846 152 812 q 158 878 152 863 q 175 902 164 892 q 199 919 185 913 q 230 924 214 924 q 286 903 263 924 q 308 847 308 882 q 302 815 308 829 q 285 791 296 801 q 260 775 275 781 q 230 769 246 769 m 503 769 q 447 790 469 769 q 425 846 425 812 q 431 878 425 863 q 447 902 437 892 q 472 919 458 913 q 503 924 486 924 q 558 903 536 924 q 581 847 581 882 q 574 815 581 829 q 558 791 568 801 q 533 775 547 781 q 503 769 519 769 z "},"ž":{"ha":639,"x_min":64,"x_max":566,"o":"m 566 227 l 559 0 l 64 0 l 64 41 l 409 520 l 305 520 q 227 515 257 520 q 176 494 196 510 q 144 446 156 477 q 124 361 133 414 l 73 361 l 83 574 l 564 574 l 564 534 l 215 54 l 336 54 q 414 59 384 54 q 464 82 445 64 q 494 134 483 100 q 515 227 505 168 l 566 227 m 495 997 q 513 987 505 993 q 528 972 521 981 l 350 697 l 301 697 l 123 972 q 138 987 130 981 q 156 997 146 993 l 326 825 l 495 997 z "},"ð":{"ha":715,"x_min":58,"x_max":648,"o":"m 574 985 q 600 937 591 962 l 442 852 q 529 747 491 804 q 593 625 567 689 q 634 492 620 561 q 648 355 648 424 q 629 207 648 275 q 572 89 610 139 q 477 9 534 38 q 345 -19 420 -19 q 221 5 275 -19 q 131 70 168 29 q 76 165 95 111 q 58 279 58 219 q 78 398 58 342 q 137 496 99 454 q 228 562 175 538 q 346 586 281 586 q 382 584 363 586 q 421 576 401 582 q 460 560 441 570 q 496 534 479 550 l 499 535 q 456 688 484 616 q 378 818 428 760 l 192 719 q 166 767 176 739 l 338 859 q 260 912 303 889 q 163 951 217 936 l 179 1000 q 296 958 241 985 q 398 891 351 930 l 574 985 m 353 534 q 284 523 314 534 q 233 482 254 511 q 202 404 213 453 q 192 281 192 355 q 202 162 192 210 q 231 85 212 114 q 278 44 250 56 q 342 33 306 33 q 415 46 383 33 q 468 92 446 60 q 502 175 490 123 q 513 301 513 226 q 505 407 513 363 q 477 479 496 451 q 428 521 458 508 q 353 534 397 534 z "},"þ":{"ha":759,"x_min":24,"x_max":701,"o":"m 428 -19 q 327 5 373 -19 q 250 82 281 29 l 248 82 l 248 -317 l 356 -317 l 356 -372 l 24 -372 l 24 -317 l 125 -317 l 125 931 l 24 931 l 24 985 l 248 985 l 248 502 l 250 502 q 328 573 280 550 q 432 596 376 596 q 540 574 491 596 q 625 513 589 553 q 681 417 661 473 q 701 292 701 361 q 679 162 701 220 q 620 64 657 104 q 533 3 583 24 q 428 -19 484 -19 m 567 290 q 556 417 567 368 q 525 494 545 466 q 477 532 505 522 q 416 543 450 543 q 338 525 370 543 q 286 475 306 507 q 257 395 266 442 q 248 290 248 349 q 256 191 248 232 q 279 121 264 149 q 311 75 293 92 q 349 49 330 58 q 386 37 368 40 q 419 35 404 35 q 477 45 450 35 q 524 83 505 55 q 555 161 544 111 q 567 290 567 211 z "},"&":{"ha":1065,"x_min":64,"x_max":1031,"o":"m 828 -19 q 725 3 774 -19 q 625 74 677 25 q 510 6 572 31 q 378 -19 448 -19 q 262 0 318 -19 q 162 55 205 19 q 91 143 118 91 q 64 260 64 195 q 87 368 64 321 q 144 448 109 414 q 223 508 180 483 q 309 553 267 533 q 286 605 297 578 q 266 659 275 632 q 252 712 257 686 q 247 763 247 739 q 264 847 247 807 q 312 918 281 888 q 387 967 343 949 q 483 985 430 985 q 558 974 522 985 q 622 940 595 963 q 666 883 650 918 q 683 804 683 849 q 663 715 683 752 q 609 650 642 678 q 532 601 575 623 q 444 557 489 578 q 494 471 465 519 q 555 373 524 422 q 618 280 587 324 q 673 207 649 236 q 720 277 699 240 q 756 351 741 314 q 781 423 772 388 q 792 490 790 458 l 650 490 l 650 544 l 977 544 l 977 490 l 853 490 q 804 319 840 405 q 711 161 768 233 q 799 87 759 109 q 877 64 839 64 q 938 77 907 64 q 1001 111 968 89 q 1017 94 1010 102 q 1031 74 1023 86 q 928 1 979 22 q 828 -19 878 -19 m 585 117 q 547 164 568 136 q 502 225 526 192 q 455 295 479 258 q 409 369 431 332 q 368 439 387 405 q 335 500 349 473 q 281 460 306 482 q 237 412 256 439 q 209 351 219 385 q 198 275 198 317 q 217 176 198 218 q 266 106 235 134 q 334 64 296 78 q 412 50 372 50 q 502 68 458 50 q 585 117 546 87 m 591 806 q 582 862 591 838 q 557 901 572 886 q 520 924 541 916 q 477 931 500 931 q 430 923 452 931 q 392 898 408 914 q 366 859 375 882 q 356 806 356 836 q 371 720 356 770 q 421 602 387 670 q 488 639 457 619 q 542 683 519 659 q 578 737 565 707 q 591 806 591 767 z "},",":{"ha":393,"x_min":81,"x_max":312,"o":"m 132 -197 q 177 -153 156 -176 q 215 -107 199 -131 q 241 -58 231 -83 q 250 -4 250 -33 q 249 14 250 5 q 247 31 248 22 l 243 31 q 210 -5 231 6 q 166 -16 189 -16 q 135 -11 151 -16 q 108 5 120 -5 q 89 31 96 16 q 81 66 81 47 q 87 102 81 84 q 106 134 94 119 q 136 157 118 148 q 178 166 154 166 q 226 156 202 166 q 269 126 250 146 q 300 77 288 106 q 312 11 312 48 q 276 -115 312 -53 q 167 -236 239 -177 q 147 -219 155 -228 q 132 -197 138 -210 z "},";":{"ha":393,"x_min":98,"x_max":329,"o":"m 210 404 q 172 411 190 404 q 141 430 154 418 q 121 460 128 443 q 113 499 113 478 q 121 538 113 520 q 141 569 128 556 q 172 589 155 582 q 210 596 190 596 q 248 589 231 596 q 278 569 265 582 q 299 539 292 557 q 307 500 307 522 q 299 461 307 479 q 278 431 292 444 q 248 411 265 418 q 210 404 230 404 m 149 -197 q 194 -153 173 -176 q 232 -107 216 -131 q 258 -58 248 -83 q 267 -4 267 -33 q 266 14 267 5 q 264 31 265 22 l 260 31 q 227 -5 248 6 q 183 -16 206 -16 q 152 -11 168 -16 q 125 5 137 -5 q 106 31 113 16 q 98 66 98 47 q 104 102 98 84 q 123 134 111 119 q 153 157 135 148 q 195 166 171 166 q 243 156 219 166 q 286 126 267 146 q 317 77 305 106 q 329 11 329 48 q 293 -115 329 -53 q 184 -236 256 -177 q 164 -219 172 -228 q 149 -197 155 -210 z "},":":{"ha":393,"x_min":113,"x_max":307,"o":"m 210 -19 q 172 -12 190 -19 q 141 8 154 -5 q 121 38 128 20 q 113 77 113 56 q 121 116 113 98 q 141 146 128 134 q 172 166 155 159 q 210 174 190 174 q 248 166 231 174 q 278 147 265 159 q 299 117 292 134 q 307 78 307 99 q 299 39 307 56 q 278 8 292 21 q 248 -12 265 -5 q 210 -19 230 -19 m 210 404 q 172 411 190 404 q 141 430 154 418 q 121 460 128 443 q 113 499 113 478 q 121 538 113 520 q 141 569 128 556 q 172 589 155 582 q 210 596 190 596 q 248 589 231 596 q 278 569 265 582 q 299 539 292 557 q 307 500 307 522 q 299 461 307 479 q 278 431 292 444 q 248 411 265 418 q 210 404 230 404 z "},".":{"ha":393,"x_min":100,"x_max":293,"o":"m 197 -19 q 158 -12 176 -19 q 127 8 140 -5 q 107 38 115 20 q 100 77 100 56 q 107 116 100 98 q 128 146 115 134 q 159 166 141 159 q 197 174 176 174 q 234 166 217 174 q 265 147 252 159 q 286 117 278 134 q 293 78 293 99 q 286 39 293 56 q 265 8 278 21 q 234 -12 252 -5 q 197 -19 216 -19 z "},"…":{"ha":1125,"x_min":100,"x_max":1038,"o":"m 194 -19 q 157 -12 174 -19 q 127 7 140 -5 q 107 37 114 20 q 100 75 100 54 q 107 112 100 95 q 127 142 115 130 q 157 162 140 155 q 194 169 174 169 q 231 162 214 169 q 261 143 248 155 q 281 113 273 130 q 288 75 288 96 q 281 38 288 55 q 261 8 273 20 q 231 -12 248 -5 q 194 -19 214 -19 m 569 -19 q 532 -12 549 -19 q 502 7 515 -5 q 482 37 489 20 q 475 75 475 54 q 482 112 475 95 q 502 142 490 130 q 532 162 515 155 q 569 169 549 169 q 606 162 589 169 q 636 143 623 155 q 656 113 648 130 q 663 75 663 96 q 656 38 663 55 q 636 8 648 20 q 606 -12 623 -5 q 569 -19 589 -19 m 944 -19 q 907 -12 924 -19 q 877 7 890 -5 q 857 37 864 20 q 850 75 850 54 q 857 112 850 95 q 877 142 865 130 q 907 162 890 155 q 944 169 924 169 q 981 162 964 169 q 1011 143 998 155 q 1031 113 1023 130 q 1038 75 1038 96 q 1031 38 1038 55 q 1011 8 1023 20 q 981 -12 998 -5 q 944 -19 964 -19 z "},"!":{"ha":393,"x_min":119,"x_max":305,"o":"m 212 985 q 240 980 226 985 q 267 964 255 975 q 286 937 278 954 q 293 896 293 920 q 290 851 293 876 q 282 791 287 826 q 271 710 277 756 q 258 601 264 663 q 245 458 251 538 q 234 276 239 378 l 189 276 q 178 458 184 378 q 165 601 172 538 q 153 710 159 663 q 141 791 146 756 q 133 851 136 826 q 130 896 130 876 q 138 937 130 920 q 157 964 145 954 q 183 980 168 975 q 212 985 197 985 m 212 -19 q 175 -12 193 -19 q 145 7 158 -5 q 126 36 133 19 q 119 73 119 53 q 126 111 119 94 q 146 140 134 128 q 176 160 159 153 q 212 167 193 167 q 248 160 231 167 q 278 141 265 153 q 298 112 291 129 q 305 75 305 95 q 298 37 305 54 q 278 7 290 20 q 248 -12 265 -5 q 212 -19 231 -19 z "},"¡":{"ha":393,"x_min":88,"x_max":275,"o":"m 182 -408 q 153 -403 168 -408 q 127 -387 138 -398 q 108 -359 115 -376 q 100 -319 100 -342 q 103 -274 100 -299 q 112 -214 106 -249 q 123 -133 117 -179 q 136 -24 129 -86 q 149 119 142 39 q 159 301 155 199 l 204 301 q 215 119 209 199 q 228 -24 221 39 q 241 -133 235 -86 q 252 -214 247 -179 q 260 -274 257 -249 q 263 -319 263 -299 q 256 -359 263 -342 q 237 -387 248 -376 q 211 -403 225 -398 q 182 -408 196 -408 m 181 596 q 218 589 201 596 q 248 570 235 583 q 268 541 260 558 q 275 504 275 524 q 267 466 275 484 q 247 437 260 449 q 217 417 235 425 q 181 410 200 410 q 145 417 161 410 q 115 436 128 424 q 95 465 102 448 q 88 503 88 482 q 96 540 88 523 q 116 570 103 557 q 145 589 128 583 q 181 596 162 596 z "},"?":{"ha":640,"x_min":54,"x_max":589,"o":"m 172 878 q 202 834 191 857 q 214 787 214 810 q 208 756 214 770 q 191 732 201 743 q 166 716 180 722 q 135 711 152 711 q 105 716 119 711 q 79 731 91 721 q 61 756 68 741 q 54 791 54 771 q 72 856 54 822 q 122 919 89 890 q 206 966 156 947 q 321 985 256 985 q 436 966 386 985 q 520 916 486 947 q 572 844 554 884 q 589 759 589 803 q 519 596 589 672 q 455 536 491 565 q 388 477 419 508 q 335 409 356 446 q 313 324 313 372 q 314 302 313 315 q 317 276 315 290 q 294 270 307 272 q 270 269 281 269 q 259 348 259 311 q 268 412 259 383 q 291 464 277 440 q 322 507 304 487 q 357 545 339 527 q 396 590 378 568 q 428 637 414 612 q 449 692 441 662 q 456 762 456 722 q 446 840 456 808 q 415 892 435 872 q 368 922 395 913 q 307 931 340 931 q 230 918 266 931 q 172 878 194 905 m 295 -19 q 259 -12 275 -19 q 229 7 242 -5 q 209 36 216 19 q 202 73 202 53 q 210 111 202 94 q 230 140 217 128 q 259 160 242 153 q 296 167 276 167 q 332 160 315 167 q 361 141 349 153 q 381 112 374 129 q 389 75 389 95 q 381 37 389 54 q 361 7 374 20 q 332 -12 349 -5 q 295 -19 315 -19 z "},"¿":{"ha":640,"x_min":51,"x_max":586,"o":"m 469 -300 q 438 -257 450 -280 q 427 -210 427 -233 q 433 -179 427 -193 q 449 -155 439 -165 q 474 -139 460 -145 q 505 -134 488 -134 q 535 -139 520 -134 q 561 -154 549 -144 q 579 -179 572 -164 q 586 -214 586 -194 q 569 -279 586 -245 q 518 -342 551 -313 q 434 -389 484 -370 q 319 -408 384 -408 q 204 -389 254 -408 q 120 -339 155 -370 q 68 -267 86 -307 q 51 -182 51 -226 q 121 -19 51 -95 q 162 21 140 2 q 208 60 185 41 q 253 101 231 80 q 291 144 274 121 q 317 194 307 168 q 327 253 327 221 q 326 275 327 262 q 323 301 325 288 q 346 307 334 305 q 370 309 359 309 q 381 229 381 266 q 372 165 381 194 q 350 114 363 137 q 318 70 336 90 q 283 32 300 50 q 244 -13 262 9 q 213 -60 226 -35 q 192 -115 199 -85 q 184 -184 184 -145 q 195 -263 184 -231 q 225 -315 205 -295 q 272 -345 245 -336 q 334 -354 300 -354 q 410 -341 374 -354 q 469 -300 446 -328 m 345 596 q 381 589 364 596 q 411 570 398 583 q 431 541 424 558 q 438 504 438 524 q 431 466 438 484 q 411 437 423 449 q 381 417 398 425 q 345 410 363 410 q 308 417 325 410 q 279 436 292 424 q 259 465 266 448 q 252 503 252 482 q 259 540 252 523 q 279 570 266 557 q 309 589 292 583 q 345 596 326 596 z "},"(":{"ha":682,"x_min":231,"x_max":715,"o":"m 353 0 q 376 -414 353 -228 q 445 -758 399 -601 q 558 -1047 490 -914 q 715 -1300 626 -1180 q 673 -1335 700 -1323 q 557 -1188 613 -1267 q 451 -1017 500 -1109 q 361 -815 402 -924 q 292 -582 321 -707 q 247 -312 262 -456 q 231 0 231 -167 q 247 311 231 166 q 292 582 262 456 q 361 815 321 707 q 451 1017 402 924 q 557 1188 500 1109 q 673 1335 613 1267 q 715 1300 699 1323 q 558 1047 626 1180 q 445 758 490 914 q 376 414 399 601 q 353 0 353 228 z "},")":{"ha":682,"x_min":-34,"x_max":451,"o":"m 329 0 q 306 414 329 228 q 237 758 283 601 q 123 1047 191 914 q -34 1300 56 1180 q 8 1335 -17 1323 q 125 1188 68 1267 q 230 1017 181 1109 q 320 815 279 924 q 390 582 361 707 q 435 311 419 456 q 451 0 451 166 q 435 -311 451 -166 q 390 -582 419 -456 q 320 -815 361 -707 q 230 -1017 279 -924 q 125 -1188 181 -1109 q 8 -1335 68 -1267 q -34 -1300 -17 -1323 q 123 -1047 56 -1180 q 237 -758 191 -914 q 306 -414 283 -601 q 329 0 329 -228 z "},"[":{"ha":658,"x_min":244,"x_max":549,"o":"m 244 -1314 l 244 1314 l 549 1314 l 549 1253 l 359 1253 l 359 -1253 l 549 -1253 l 549 -1314 l 244 -1314 z "},"]":{"ha":658,"x_min":109,"x_max":414,"o":"m 109 -1314 l 109 -1253 l 298 -1253 l 298 1253 l 109 1253 l 109 1314 l 414 1314 l 414 -1314 l 109 -1314 z "},"{":{"ha":703,"x_min":126,"x_max":552,"o":"m 126 27 q 204 40 172 27 q 255 81 236 52 q 283 158 275 111 q 292 273 292 205 q 289 372 292 314 q 283 496 287 430 q 275 631 279 562 q 267 764 271 701 q 261 881 263 827 q 258 967 258 934 q 276 1120 258 1052 q 330 1235 294 1187 q 421 1309 366 1283 q 552 1335 477 1335 l 552 1280 q 458 1255 493 1277 q 404 1198 422 1234 q 379 1116 385 1162 q 374 1019 374 1070 q 376 917 374 978 q 382 787 378 857 q 389 643 385 717 q 396 503 393 570 q 402 380 399 436 q 404 291 404 325 q 397 192 404 237 q 374 111 390 147 q 332 47 358 75 q 268 1 306 20 l 268 -1 q 332 -47 306 -20 q 374 -110 358 -74 q 397 -192 390 -146 q 404 -291 404 -237 q 402 -380 404 -325 q 396 -503 399 -436 q 389 -643 393 -570 q 382 -787 385 -717 q 376 -917 378 -857 q 374 -1019 374 -978 q 379 -1116 374 -1070 q 404 -1198 385 -1162 q 458 -1256 422 -1234 q 552 -1280 493 -1278 l 552 -1335 q 421 -1309 477 -1335 q 330 -1235 366 -1283 q 276 -1120 294 -1187 q 258 -967 258 -1052 q 261 -881 258 -934 q 267 -764 263 -827 q 275 -631 271 -701 q 283 -496 279 -562 q 289 -372 287 -430 q 292 -273 292 -314 q 283 -158 292 -205 q 255 -82 275 -111 q 204 -40 236 -53 q 126 -27 172 -27 l 126 27 z "},"}":{"ha":703,"x_min":151,"x_max":576,"o":"m 576 -27 q 498 -40 530 -27 q 447 -82 467 -53 q 419 -158 428 -111 q 411 -273 411 -205 q 413 -372 411 -314 q 419 -496 416 -430 q 428 -631 423 -562 q 436 -764 432 -701 q 442 -881 439 -827 q 444 -967 444 -934 q 427 -1120 444 -1052 q 373 -1235 409 -1187 q 281 -1309 336 -1283 q 151 -1335 226 -1335 l 151 -1280 q 245 -1256 210 -1278 q 299 -1198 280 -1234 q 323 -1116 317 -1162 q 329 -1019 329 -1070 q 327 -917 329 -978 q 321 -787 324 -857 q 314 -643 317 -717 q 307 -503 310 -570 q 301 -380 303 -436 q 298 -291 298 -325 q 306 -192 298 -237 q 329 -110 313 -146 q 371 -47 345 -74 q 435 -1 397 -20 l 435 1 q 371 47 397 20 q 329 111 345 75 q 306 192 313 147 q 298 291 298 237 q 301 380 298 325 q 307 503 303 436 q 314 643 310 570 q 321 787 317 717 q 327 917 324 857 q 329 1019 329 978 q 323 1116 329 1070 q 299 1198 317 1162 q 245 1255 280 1234 q 151 1280 210 1277 l 151 1335 q 281 1309 226 1335 q 373 1235 336 1283 q 427 1120 409 1187 q 444 967 444 1052 q 442 881 444 934 q 436 764 439 827 q 428 631 432 701 q 419 496 423 562 q 413 372 416 430 q 411 273 411 314 q 419 158 411 205 q 447 81 428 111 q 498 40 467 52 q 576 27 530 27 l 576 -27 z "},"|":{"ha":604,"x_min":271,"x_max":332,"o":"m 271 -1324 l 271 1314 l 332 1314 l 332 -1324 l 271 -1324 z "},"/":{"ha":439,"x_min":7,"x_max":435,"o":"m 380 1008 q 435 992 410 1006 l 62 -236 q 7 -219 33 -233 l 380 1008 z "},"\\":{"ha":439,"x_min":5,"x_max":432,"o":"m 432 -219 q 377 -236 406 -233 l 5 992 q 60 1008 29 1006 l 432 -219 z "},"'":{"ha":326,"x_min":95,"x_max":231,"o":"m 95 985 q 129 988 112 987 q 163 989 146 989 q 196 988 180 989 q 231 985 213 987 l 183 616 q 163 614 173 614 q 142 616 153 614 l 95 985 z "},"\"":{"ha":563,"x_min":95,"x_max":468,"o":"m 95 985 q 129 988 112 987 q 163 989 146 989 q 196 988 180 989 q 231 985 213 987 l 183 616 q 163 614 173 614 q 142 616 153 614 l 95 985 m 332 985 q 366 988 349 987 q 400 989 383 989 q 434 988 417 989 q 468 985 450 987 l 420 616 q 400 614 410 614 q 380 616 390 614 l 332 985 z "},"‘":{"ha":391,"x_min":81,"x_max":303,"o":"m 256 964 q 212 922 233 943 q 176 878 191 901 q 151 830 160 854 q 142 779 142 806 q 143 762 142 769 q 145 745 144 754 l 149 745 q 179 779 160 768 q 218 790 198 790 q 249 784 234 790 q 276 766 264 778 q 296 738 288 755 q 303 701 303 722 q 297 667 303 683 q 279 640 291 651 q 251 621 268 628 q 213 614 235 614 q 163 624 187 614 q 121 653 140 634 q 92 700 103 672 q 81 764 81 728 q 116 885 81 825 q 221 1002 151 945 q 241 985 233 995 q 256 964 250 976 z "},"’":{"ha":391,"x_min":88,"x_max":310,"o":"m 135 647 q 179 689 158 668 q 216 734 200 711 q 240 781 231 757 q 250 833 250 806 q 249 850 250 842 q 246 867 248 857 l 243 866 q 211 832 231 842 q 169 821 191 821 q 139 826 153 821 q 113 842 125 831 q 95 867 102 852 q 88 901 88 882 q 94 935 88 918 q 111 966 100 952 q 140 988 123 979 q 180 997 157 997 q 227 987 204 997 q 269 958 250 977 q 298 911 287 939 q 310 847 310 884 q 275 726 310 785 q 170 609 240 666 q 150 626 159 616 q 135 647 142 635 z "},"“":{"ha":690,"x_min":81,"x_max":602,"o":"m 256 964 q 212 922 233 943 q 176 878 191 901 q 151 830 160 854 q 142 779 142 806 q 143 762 142 769 q 145 745 144 754 l 149 745 q 179 779 160 768 q 218 790 198 790 q 249 784 234 790 q 276 766 264 778 q 296 738 288 755 q 303 701 303 722 q 297 667 303 683 q 279 640 291 651 q 251 621 268 628 q 213 614 235 614 q 163 624 187 614 q 121 653 140 634 q 92 700 103 672 q 81 764 81 728 q 116 885 81 825 q 221 1002 151 945 q 241 985 233 995 q 256 964 250 976 m 555 964 q 510 922 531 943 q 474 878 490 901 q 449 830 458 854 q 440 779 440 806 q 441 762 440 769 q 444 745 442 754 l 447 745 q 477 779 458 768 q 517 790 496 790 q 548 784 532 790 q 575 766 563 778 q 594 738 587 755 q 602 701 602 722 q 595 667 602 683 q 578 640 589 651 q 550 621 566 628 q 511 614 533 614 q 462 624 486 614 q 420 653 438 634 q 391 700 401 672 q 380 764 380 728 q 415 885 380 825 q 519 1002 450 945 q 539 985 531 995 q 555 964 548 976 z "},"”":{"ha":690,"x_min":88,"x_max":608,"o":"m 135 647 q 179 689 158 668 q 216 734 200 711 q 240 781 231 757 q 250 833 250 806 q 249 850 250 842 q 246 867 248 857 l 243 866 q 211 832 231 842 q 169 821 191 821 q 139 826 153 821 q 113 842 125 831 q 95 867 102 852 q 88 901 88 882 q 94 935 88 918 q 111 966 100 952 q 140 988 123 979 q 180 997 157 997 q 227 987 204 997 q 269 958 250 977 q 298 911 287 939 q 310 847 310 884 q 275 726 310 785 q 170 609 240 666 q 150 626 159 616 q 135 647 142 635 m 433 647 q 477 689 456 668 q 514 734 498 711 q 539 781 530 757 q 548 833 548 806 q 547 850 548 842 q 545 867 546 857 l 541 866 q 509 832 530 842 q 467 821 489 821 q 437 826 452 821 q 412 842 423 831 q 393 867 400 852 q 387 901 387 882 q 392 935 387 918 q 410 966 398 952 q 438 988 421 979 q 479 997 456 997 q 526 987 503 997 q 567 958 549 977 q 597 911 585 939 q 608 847 608 884 q 573 726 608 785 q 469 609 538 666 q 449 626 457 616 q 433 647 440 635 z "},"‚":{"ha":391,"x_min":81,"x_max":303,"o":"m 128 -184 q 172 -141 151 -163 q 209 -97 193 -120 q 234 -50 224 -74 q 243 2 243 -25 q 242 19 243 12 q 239 36 241 26 l 236 35 q 204 1 224 12 q 162 -9 184 -9 q 132 -4 146 -9 q 106 11 118 1 q 88 36 95 21 q 81 70 81 51 q 87 104 81 87 q 104 135 93 121 q 133 157 116 149 q 174 166 151 166 q 220 156 197 166 q 262 127 243 146 q 292 81 280 109 q 303 16 303 53 q 268 -105 303 -45 q 163 -222 233 -165 q 143 -205 152 -214 q 128 -184 135 -195 z "},"„":{"ha":690,"x_min":81,"x_max":602,"o":"m 128 -184 q 172 -141 151 -163 q 209 -97 193 -120 q 234 -50 224 -74 q 243 2 243 -25 q 242 19 243 12 q 239 36 241 26 l 236 35 q 204 1 224 12 q 162 -9 184 -9 q 132 -4 146 -9 q 106 11 118 1 q 88 36 95 21 q 81 70 81 51 q 87 104 81 87 q 104 135 93 121 q 133 157 116 149 q 174 166 151 166 q 220 156 197 166 q 262 127 243 146 q 292 81 280 109 q 303 16 303 53 q 268 -105 303 -45 q 163 -222 233 -165 q 143 -205 152 -214 q 128 -184 135 -195 m 427 -184 q 471 -141 450 -163 q 507 -97 492 -120 q 532 -50 523 -74 q 541 2 541 -25 q 540 19 541 12 q 538 36 539 26 l 534 35 q 503 1 523 12 q 460 -9 482 -9 q 431 -4 445 -9 q 405 11 416 1 q 387 36 393 21 q 380 70 380 51 q 386 104 380 87 q 403 135 391 121 q 432 157 414 149 q 472 166 449 166 q 519 156 496 166 q 560 127 542 146 q 590 81 578 109 q 602 16 602 53 q 567 -105 602 -45 q 462 -222 532 -165 q 442 -205 450 -214 q 427 -184 433 -195 z "},"‹":{"ha":431,"x_min":95,"x_max":336,"o":"m 95 304 l 301 524 q 319 513 311 519 q 336 500 328 507 l 203 288 l 336 77 q 319 63 328 69 q 301 53 311 58 l 95 273 l 95 304 z "},"›":{"ha":431,"x_min":95,"x_max":336,"o":"m 336 273 l 130 53 q 112 63 120 58 q 95 77 103 69 l 227 288 l 95 500 q 112 513 103 507 q 130 524 120 519 l 336 304 l 336 273 z "},"«":{"ha":641,"x_min":89,"x_max":553,"o":"m 89 304 l 295 524 q 313 513 304 519 q 330 500 321 507 l 197 288 l 330 77 q 313 63 321 69 q 295 53 304 58 l 89 273 l 89 304 m 312 304 l 518 524 q 536 513 528 519 q 553 500 545 507 l 420 288 l 553 77 q 536 63 545 69 q 518 53 528 58 l 312 273 l 312 304 z "},"»":{"ha":641,"x_min":89,"x_max":553,"o":"m 330 273 l 123 53 q 105 63 114 58 q 89 77 97 69 l 221 288 l 89 500 q 105 513 97 507 q 123 524 114 519 l 330 304 l 330 273 m 553 273 l 347 53 q 329 63 337 58 q 312 77 320 69 l 444 288 l 312 500 q 329 513 320 507 q 347 524 337 519 l 553 304 l 553 273 z "},"*":{"ha":660,"x_min":109,"x_max":578,"o":"m 524 823 q 564 807 550 823 q 578 768 578 791 q 564 730 578 745 q 519 715 549 715 q 496 717 508 715 q 467 722 484 719 q 429 726 451 724 q 376 728 407 728 l 365 728 q 404 668 386 692 q 436 628 422 644 q 458 598 450 611 q 466 571 466 586 q 450 532 466 547 q 410 517 433 517 q 362 549 376 517 q 355 574 357 560 q 349 607 352 588 q 340 652 346 627 q 324 710 335 677 q 273 647 292 674 q 241 601 254 620 q 218 573 229 583 q 190 564 207 564 q 149 581 165 564 q 132 623 132 597 q 142 650 132 640 q 171 670 151 659 q 221 697 191 681 q 293 744 251 713 q 237 766 261 758 q 194 779 213 774 q 162 788 176 784 q 138 797 148 791 q 115 817 122 805 q 109 842 109 829 q 113 864 109 853 q 125 882 117 874 q 142 895 132 890 q 164 899 153 899 q 191 890 179 899 q 219 866 203 882 q 257 830 235 851 q 316 783 280 808 q 319 822 318 804 q 319 854 319 839 q 318 897 319 878 q 316 928 316 916 q 332 977 316 962 q 370 992 348 992 q 410 977 393 992 q 426 939 426 962 q 420 912 426 925 q 405 881 414 899 q 384 837 395 863 q 360 774 372 812 q 421 789 397 781 q 464 805 446 798 q 496 818 482 812 q 524 823 510 823 z "},"†":{"ha":880,"x_min":88,"x_max":792,"o":"m 511 -60 q 491 -113 511 -95 q 440 -132 470 -132 q 390 -113 411 -132 q 369 -60 369 -95 q 372 -33 369 -47 q 379 6 374 -20 q 389 74 383 32 q 398 186 394 117 q 406 358 403 256 q 410 605 410 460 q 314 595 353 602 q 245 581 274 588 q 197 568 217 574 q 160 563 177 563 q 106 584 125 563 q 88 634 88 605 q 106 685 88 664 q 160 705 125 705 q 197 700 177 705 q 245 687 217 694 q 314 673 274 680 q 410 663 353 666 q 401 770 408 726 q 388 845 395 814 q 375 897 380 876 q 369 937 369 918 q 390 990 369 972 q 440 1008 411 1008 q 491 990 470 1008 q 511 937 511 972 q 506 897 511 918 q 493 845 500 876 q 479 770 486 814 q 470 663 472 726 q 567 673 527 666 q 635 687 606 680 q 683 700 663 694 q 720 705 703 705 q 774 685 755 705 q 792 634 792 664 q 774 584 792 605 q 720 563 755 563 q 683 568 703 563 q 635 581 663 574 q 566 595 606 588 q 469 605 526 602 q 472 412 470 496 q 477 264 474 328 q 484 153 480 199 q 491 74 488 107 q 499 20 495 41 q 505 -16 503 -1 q 510 -40 508 -31 q 511 -60 511 -50 z "},"‡":{"ha":921,"x_min":109,"x_max":812,"o":"m 389 937 q 410 990 389 972 q 460 1008 431 1008 q 511 990 490 1008 q 532 937 532 972 q 526 898 532 919 q 514 847 521 877 q 500 774 507 817 q 490 669 493 731 q 587 680 547 673 q 655 694 627 687 q 704 707 684 701 q 741 712 724 712 q 794 691 776 712 q 812 641 812 671 q 794 591 812 612 q 741 570 776 570 q 703 575 723 570 q 654 588 683 581 q 586 602 626 595 q 490 612 547 608 l 490 264 q 586 275 547 268 q 654 289 626 282 q 703 302 683 296 q 741 307 723 307 q 794 286 776 307 q 812 236 812 265 q 794 185 812 206 q 741 165 776 165 q 704 170 724 165 q 655 183 684 176 q 587 197 627 190 q 490 207 547 203 q 500 102 493 145 q 514 30 507 60 q 526 -21 521 0 q 532 -60 532 -42 q 511 -113 532 -95 q 460 -132 490 -132 q 410 -113 431 -132 q 389 -60 389 -95 q 395 -21 389 -42 q 407 30 400 0 q 421 102 414 60 q 430 207 428 145 q 333 197 373 203 q 266 183 294 190 q 217 170 237 176 q 180 165 197 165 q 127 185 145 165 q 109 236 109 206 q 127 286 109 265 q 180 307 145 307 q 217 302 197 307 q 266 289 237 296 q 334 275 294 282 q 431 264 374 268 l 431 612 q 334 602 374 608 q 266 588 294 595 q 217 575 237 581 q 180 570 197 570 q 127 591 145 570 q 109 641 109 612 q 127 691 109 671 q 180 712 145 712 q 217 707 197 712 q 266 694 237 701 q 333 680 294 687 q 430 669 373 673 q 421 774 428 731 q 407 847 414 817 q 395 898 400 877 q 389 937 389 919 z "},"·":{"ha":393,"x_min":100,"x_max":293,"o":"m 197 212 q 158 219 176 212 q 127 238 140 226 q 107 269 115 251 q 100 307 100 286 q 107 346 100 328 q 128 377 115 364 q 159 397 141 390 q 197 404 176 404 q 234 397 217 404 q 265 377 252 390 q 286 347 278 365 q 293 309 293 330 q 286 269 293 287 q 265 239 278 252 q 234 219 252 226 q 197 212 216 212 z "},"•":{"ha":553,"x_min":81,"x_max":472,"o":"m 278 705 q 292 689 283 695 q 308 677 300 682 q 323 666 316 672 q 334 651 330 661 l 336 650 q 352 653 344 653 q 374 650 363 653 q 397 647 385 647 q 414 650 406 647 l 416 647 q 414 631 414 640 q 417 607 414 618 q 420 585 420 596 q 417 570 420 577 l 418 568 q 433 556 427 564 q 444 541 439 549 q 455 525 449 533 q 472 511 461 517 l 472 509 q 455 495 462 503 q 444 479 449 487 q 433 464 439 471 q 418 452 427 456 l 417 450 q 419 442 418 446 q 420 435 420 438 q 417 412 420 423 q 414 389 414 401 q 416 373 414 381 l 414 370 q 406 372 410 372 q 397 373 401 373 q 374 370 385 373 q 352 366 363 366 q 336 370 346 366 l 334 369 q 323 354 330 359 q 308 343 316 348 q 292 332 300 338 q 278 315 283 326 l 275 315 q 261 331 269 325 q 245 342 253 337 q 230 354 237 348 q 219 369 223 359 l 217 370 q 201 366 207 366 q 179 370 190 366 q 156 373 168 373 q 148 372 152 373 q 140 370 144 372 l 137 373 q 139 381 138 377 q 140 389 140 385 q 136 412 140 401 q 133 435 133 423 q 133 442 133 438 q 136 450 134 446 l 135 452 q 120 464 125 456 q 109 479 114 471 q 98 495 104 487 q 81 509 92 503 l 81 511 q 98 525 92 517 q 109 541 104 533 q 120 556 115 549 q 136 568 126 564 l 136 570 q 133 585 133 578 q 136 607 133 596 q 140 631 140 618 q 139 639 140 635 q 137 647 138 643 l 140 650 q 156 647 147 647 q 179 650 168 647 q 201 653 190 653 q 209 653 205 653 q 217 651 212 652 l 219 652 q 230 666 223 661 q 245 677 237 672 q 261 689 253 682 q 275 705 269 695 l 278 705 m 146 441 q 149 421 146 431 q 152 400 152 411 q 150 385 152 393 l 152 383 q 167 385 161 385 q 188 382 178 385 q 208 379 198 379 q 220 381 214 379 q 177 411 196 392 q 147 454 158 430 q 146 447 146 450 q 146 441 146 444 m 345 379 q 365 382 355 379 q 387 385 375 385 q 401 383 393 385 l 404 385 q 401 400 401 394 q 404 421 401 411 q 407 441 407 431 q 405 453 407 447 q 375 411 394 429 q 332 381 357 392 q 345 379 339 379 m 278 332 q 290 347 283 341 q 304 357 297 353 q 318 367 311 361 q 328 379 324 372 q 277 370 303 370 q 225 379 250 370 q 235 366 229 371 q 249 356 241 361 q 263 347 256 352 q 275 332 270 341 l 278 332 m 136 511 q 145 561 136 536 q 133 551 138 557 q 123 537 127 545 q 113 523 119 530 q 99 511 108 516 l 99 509 q 113 496 108 503 q 123 483 119 490 q 133 469 128 475 q 145 458 138 463 q 136 511 136 484 m 208 640 q 188 637 198 640 q 167 635 178 635 q 152 637 160 635 l 150 635 q 152 620 152 627 q 149 598 152 608 q 146 578 146 588 q 148 567 146 573 q 177 609 159 591 q 219 639 195 628 q 213 640 216 640 q 208 640 211 640 m 454 511 q 439 523 445 516 q 430 537 434 530 q 420 551 425 545 q 408 561 416 557 q 418 511 418 536 q 408 459 418 482 q 420 469 415 463 q 429 483 425 475 q 439 497 434 490 q 454 509 445 504 l 454 511 m 407 578 q 404 598 407 588 q 401 620 401 608 q 404 635 401 627 l 401 637 q 387 635 393 635 q 365 637 375 635 q 345 640 355 640 q 340 640 342 640 q 334 639 338 640 q 376 610 358 628 q 406 568 395 591 q 407 578 407 574 m 275 688 q 263 673 270 679 q 249 663 256 667 q 236 654 242 659 q 226 642 230 649 q 250 649 237 646 q 277 652 263 652 q 327 642 302 652 q 317 654 323 649 q 303 663 311 659 q 290 673 296 668 q 278 688 283 679 l 275 688 z "},"@":{"ha":1289,"x_min":98,"x_max":1194,"o":"m 954 574 q 937 505 947 545 q 917 417 928 465 q 893 317 905 370 q 869 209 882 264 q 858 148 862 174 q 853 103 853 121 q 865 60 853 74 q 903 47 877 47 q 949 55 924 47 q 1000 81 975 64 q 1050 126 1026 99 q 1094 192 1075 154 q 1124 279 1113 230 q 1136 389 1136 328 q 1109 553 1136 479 q 1030 681 1082 628 q 903 764 978 734 q 732 793 828 793 q 577 771 648 793 q 450 709 507 749 q 352 614 394 669 q 281 494 309 559 q 238 357 252 429 q 224 209 224 284 q 250 21 224 106 q 325 -125 275 -64 q 448 -219 375 -186 q 615 -253 521 -253 q 788 -218 712 -253 q 923 -119 863 -183 q 943 -133 934 -125 q 960 -151 953 -141 q 883 -224 924 -194 q 797 -272 842 -254 q 705 -299 753 -291 q 606 -307 657 -307 q 456 -289 526 -307 q 331 -236 387 -270 q 231 -154 275 -201 q 158 -48 188 -106 q 114 76 129 9 q 98 214 98 142 q 119 378 98 298 q 178 528 140 458 q 271 658 216 599 q 395 759 326 717 q 545 825 463 802 q 717 848 626 848 q 904 819 817 848 q 1055 732 991 789 q 1157 589 1120 674 q 1194 394 1194 505 q 1179 266 1194 323 q 1138 162 1164 208 q 1080 84 1113 117 q 1011 30 1047 51 q 937 -2 975 8 q 867 -13 900 -13 q 781 15 810 -13 q 752 91 752 42 q 754 122 752 105 q 761 157 757 140 l 755 159 q 716 93 736 123 q 672 39 696 62 q 619 3 648 16 q 551 -9 589 -9 q 472 9 505 -9 q 418 58 439 28 q 387 129 397 89 q 377 211 377 168 q 387 300 377 254 q 416 388 397 345 q 463 469 435 431 q 527 535 491 507 q 605 580 562 564 q 696 596 647 596 q 775 581 741 596 q 832 528 810 565 l 836 529 l 848 574 l 954 574 m 808 467 q 801 495 808 481 q 781 519 793 509 q 751 536 768 530 q 713 542 734 542 q 626 512 666 542 q 557 434 587 482 q 511 323 528 385 q 494 197 494 261 q 498 141 494 168 q 512 94 503 114 q 538 61 522 73 q 578 49 554 49 q 645 76 614 49 q 701 144 675 102 q 747 235 727 185 q 780 332 766 286 q 801 415 793 378 q 808 467 808 452 z "},"©":{"ha":1249,"x_min":109,"x_max":1140,"o":"m 109 492 q 149 701 109 606 q 259 864 189 795 q 423 970 330 932 q 624 1008 517 1008 q 761 991 695 1008 q 884 942 827 974 q 989 864 942 910 q 1069 761 1036 819 q 1122 636 1103 703 q 1140 492 1140 568 q 1122 349 1140 416 q 1069 224 1103 281 q 989 121 1036 167 q 884 43 942 75 q 761 -6 827 12 q 624 -23 695 -23 q 423 15 517 -23 q 259 121 330 53 q 149 284 189 189 q 109 492 109 378 m 163 492 q 199 303 163 389 q 298 157 235 218 q 444 62 360 96 q 624 28 528 28 q 804 62 720 28 q 950 157 888 96 q 1049 303 1013 218 q 1085 492 1085 389 q 1049 682 1085 596 q 950 828 1013 767 q 804 924 888 890 q 624 958 720 958 q 444 924 528 958 q 298 828 360 890 q 199 682 235 767 q 163 492 163 596 m 841 366 l 835 177 q 784 163 811 169 q 729 152 757 157 q 673 145 701 148 q 622 143 646 143 q 485 167 546 143 q 381 235 424 191 q 315 343 338 279 q 292 486 292 406 q 317 633 292 567 q 386 746 341 699 q 494 817 431 792 q 635 842 557 842 q 730 834 680 842 q 825 812 779 826 l 830 638 l 788 638 q 770 718 785 688 q 735 766 756 749 q 686 788 713 783 q 631 793 659 793 q 548 781 585 793 q 483 735 510 768 q 440 642 455 701 q 425 488 425 582 q 439 337 425 395 q 480 247 454 279 q 543 203 507 215 q 621 192 578 192 q 686 199 656 192 q 740 225 716 206 q 778 279 763 245 q 799 366 793 313 l 841 366 z "},"®":{"ha":834,"x_min":81,"x_max":753,"o":"m 615 486 q 603 485 610 486 q 589 484 596 484 q 577 484 583 484 q 572 484 572 484 q 526 488 543 484 q 502 502 510 492 q 489 529 493 512 q 482 571 486 545 q 474 624 478 602 q 463 660 470 646 q 442 680 455 673 q 406 686 429 686 l 357 686 l 357 521 l 420 521 l 420 487 l 223 487 l 223 521 l 283 521 l 283 867 l 227 867 l 227 901 l 399 901 q 481 894 448 901 q 536 874 515 887 q 566 844 557 861 q 576 804 576 826 q 553 740 576 768 q 482 701 530 711 l 482 699 q 514 686 502 695 q 535 665 527 677 q 548 636 543 652 q 555 601 552 620 q 562 564 559 581 q 569 537 564 548 q 582 520 574 526 q 604 515 589 515 q 608 515 605 515 q 615 515 611 515 l 615 486 m 357 718 l 396 718 q 445 723 425 718 q 476 737 464 727 q 493 762 488 747 q 498 799 498 777 q 494 829 498 817 q 480 850 491 842 q 450 863 469 859 q 399 867 431 867 l 357 867 l 357 718 m 119 690 q 143 575 119 627 q 206 486 166 524 q 300 428 246 448 q 417 407 355 407 q 533 428 479 407 q 628 486 588 448 q 691 575 668 524 q 715 690 715 627 q 691 806 715 753 q 628 896 668 858 q 533 954 588 933 q 417 975 479 975 q 300 954 355 975 q 206 896 246 933 q 143 806 166 858 q 119 690 119 753 m 81 690 q 108 819 81 760 q 180 920 134 878 q 286 985 225 962 q 417 1008 347 1008 q 548 985 487 1008 q 654 920 609 962 q 726 819 700 878 q 753 690 753 760 q 726 562 753 620 q 654 461 700 503 q 548 396 609 420 q 417 373 487 373 q 286 396 347 373 q 180 461 225 420 q 108 562 134 503 q 81 690 81 620 z "},"™":{"ha":1262,"x_min":47,"x_max":1218,"o":"m 58 985 l 492 985 l 500 829 l 470 829 q 458 890 465 867 q 437 926 450 913 q 401 944 423 939 q 347 949 380 949 l 319 949 l 319 524 l 394 524 l 394 487 l 154 487 l 154 524 l 229 524 l 229 949 l 203 949 q 148 944 170 949 q 113 926 126 939 q 91 890 99 913 q 78 829 83 867 l 47 829 l 58 985 m 1057 524 l 1057 947 l 1056 947 l 877 481 l 821 481 l 654 947 l 652 947 l 652 524 l 714 524 l 714 487 l 542 487 l 542 524 l 614 524 l 614 949 l 542 949 l 542 985 l 733 985 l 876 588 l 878 588 l 1031 985 l 1218 985 l 1218 949 l 1146 949 l 1146 524 l 1218 524 l 1218 487 l 995 487 l 995 524 l 1057 524 z "},"§":{"ha":780,"x_min":109,"x_max":671,"o":"m 617 -62 q 605 -134 617 -102 q 574 -190 593 -165 q 528 -230 554 -214 q 472 -257 501 -247 q 412 -273 443 -268 q 354 -277 382 -277 q 266 -265 306 -277 q 196 -231 225 -252 q 152 -182 168 -210 q 136 -123 136 -154 q 143 -86 136 -101 q 162 -62 151 -71 q 187 -49 173 -53 q 214 -45 201 -45 q 266 -65 245 -45 q 287 -118 287 -85 q 278 -158 287 -138 q 251 -195 270 -178 q 303 -220 274 -214 q 357 -226 332 -226 q 416 -219 388 -226 q 466 -197 444 -212 q 499 -160 487 -182 q 512 -105 512 -137 q 496 -39 512 -69 q 454 18 480 -9 q 393 71 427 45 q 323 121 359 96 q 245 179 283 149 q 176 243 207 208 q 127 318 146 277 q 109 408 109 358 q 119 476 109 444 q 147 535 129 508 q 189 584 165 562 q 243 621 214 605 q 193 696 211 656 q 174 789 174 736 q 198 892 174 850 q 259 960 222 935 q 341 997 296 986 q 427 1008 386 1008 q 513 996 473 1008 q 581 962 552 983 q 626 913 610 941 q 642 854 642 885 q 635 819 642 833 q 616 795 627 804 q 591 783 605 787 q 565 779 578 779 q 536 784 549 779 q 513 800 523 790 q 499 822 504 810 q 494 849 494 835 q 503 888 494 867 q 530 926 511 908 q 504 941 518 935 q 476 950 490 947 q 448 956 462 954 q 422 957 434 957 q 367 949 393 957 q 320 927 340 942 q 289 889 300 912 q 277 834 277 865 q 293 766 277 797 q 335 708 309 735 q 395 655 361 680 q 465 605 429 630 q 540 549 503 578 q 606 487 577 521 q 653 414 635 454 q 671 325 671 374 q 661 257 671 289 q 633 198 651 225 q 592 150 616 172 q 541 113 568 129 q 596 34 576 76 q 617 -62 617 -7 m 570 271 q 564 319 570 297 q 546 361 557 342 q 517 397 534 380 q 479 431 500 414 q 436 463 459 446 q 386 498 412 479 q 331 539 359 517 q 273 589 302 562 q 226 535 242 567 q 210 461 210 504 q 235 370 210 408 q 304 299 261 332 q 351 266 327 282 q 400 231 374 249 q 452 192 425 213 q 509 146 479 171 q 554 197 538 165 q 570 271 570 228 z "},"¶":{"ha":780,"x_min":15,"x_max":709,"o":"m 602 931 l 602 -277 l 543 -277 l 543 931 l 412 931 l 412 -277 l 353 -277 l 353 432 q 100 504 184 433 q 15 704 15 574 q 37 823 15 771 q 102 911 59 876 q 208 966 145 947 q 353 985 271 985 l 709 985 l 709 931 l 602 931 z "},"-":{"ha":519,"x_min":109,"x_max":410,"o":"m 109 377 l 410 377 l 410 275 l 109 275 l 109 377 z "},"–":{"ha":694,"x_min":14,"x_max":681,"o":"m 14 354 l 681 354 l 681 296 l 14 296 l 14 354 z "},"—":{"ha":1389,"x_min":14,"x_max":1375,"o":"m 14 354 l 1375 354 l 1375 296 l 14 296 l 14 354 z "},"‒":{"ha":719,"x_min":14,"x_max":705,"o":"m 14 354 l 705 354 l 705 296 l 14 296 l 14 354 z "},"―":{"ha":2638,"x_min":14,"x_max":2625,"o":"m 14 354 l 2625 354 l 2625 296 l 14 296 l 14 354 z "},"#":{"ha":785,"x_min":88,"x_max":696,"o":"m 279 780 q 309 778 295 780 q 338 772 323 777 l 308 555 l 522 555 l 552 780 q 582 778 568 780 q 610 772 596 777 l 581 555 l 696 555 l 696 495 l 572 495 l 544 285 l 659 285 l 659 224 l 536 224 l 505 0 q 448 7 474 0 l 477 224 l 263 224 l 233 0 q 175 7 201 0 l 204 224 l 88 224 l 88 285 l 212 285 l 241 495 l 125 495 l 125 555 l 249 555 l 279 780 m 271 285 l 485 285 l 513 495 l 300 495 l 271 285 z "},"¹":{"ha":452,"x_min":75,"x_max":385,"o":"m 279 985 l 279 537 l 385 537 l 385 495 l 85 495 l 85 537 l 191 537 l 191 943 l 75 943 l 75 985 l 279 985 z "},"²":{"ha":548,"x_min":74,"x_max":467,"o":"m 74 530 q 204 616 151 580 q 290 685 257 652 q 336 753 322 718 q 351 834 351 787 q 342 899 351 874 q 319 937 333 924 q 286 955 304 950 q 249 959 268 959 q 153 927 189 959 q 175 897 168 913 q 182 866 182 880 q 164 830 182 842 q 127 817 147 817 q 107 820 117 817 q 90 830 98 823 q 78 847 83 836 q 74 872 74 857 q 86 918 74 895 q 122 957 98 940 q 181 985 146 975 q 260 996 216 996 q 339 985 304 996 q 399 955 374 975 q 437 906 424 935 q 450 843 450 878 q 430 762 450 797 q 380 698 410 726 q 315 647 350 670 q 250 604 280 625 l 209 574 l 210 571 l 349 571 q 385 573 371 571 q 409 582 399 575 q 422 601 418 588 q 430 635 427 614 l 467 635 l 458 495 l 74 495 l 74 530 z "},"³":{"ha":521,"x_min":54,"x_max":456,"o":"m 175 722 q 172 742 173 732 q 172 760 172 751 q 250 772 218 764 q 302 793 282 780 q 331 826 322 807 q 340 871 340 846 q 332 913 340 897 q 312 941 325 930 q 283 955 300 951 q 250 959 267 959 q 192 950 220 959 q 149 927 164 941 q 164 900 159 915 q 170 874 170 886 q 156 840 170 854 q 121 827 142 827 q 103 829 112 827 q 86 837 94 831 q 73 852 78 843 q 68 876 68 862 q 82 921 68 899 q 122 959 96 943 q 183 986 147 976 q 261 996 218 996 q 336 986 302 996 q 392 960 369 977 q 427 922 415 944 q 439 876 439 901 q 408 806 439 838 q 313 756 377 774 l 313 753 q 371 738 345 749 q 416 711 397 727 q 446 673 435 694 q 456 627 456 652 q 442 571 456 597 q 400 526 427 545 q 335 496 373 507 q 250 485 297 485 q 169 495 205 485 q 107 521 132 505 q 68 559 81 538 q 54 603 54 581 q 69 644 54 627 q 110 660 84 660 q 148 648 131 660 q 164 608 164 635 q 158 577 164 593 q 139 552 152 562 q 183 531 154 539 q 244 522 212 522 q 286 527 265 522 q 321 543 306 532 q 347 573 337 554 q 356 620 356 592 q 321 698 356 671 q 219 726 287 726 q 198 725 210 726 q 175 722 187 724 z "},"%":{"ha":1242,"x_min":81,"x_max":1160,"o":"m 309 427 q 212 447 254 427 q 141 503 170 467 q 97 591 112 539 q 81 707 81 642 q 98 827 81 773 q 145 918 115 880 q 220 976 176 956 q 319 996 264 996 q 413 976 372 996 q 484 920 455 956 q 528 832 513 884 q 543 716 543 781 q 528 600 543 653 q 484 509 513 547 q 411 449 454 471 q 309 427 367 427 m 311 468 q 365 477 340 468 q 406 514 389 487 q 432 589 423 541 q 441 715 441 637 q 433 839 441 791 q 408 913 424 886 q 368 948 391 939 q 315 958 345 958 q 261 948 285 958 q 219 912 237 939 q 193 837 202 885 q 184 710 184 788 q 193 587 184 634 q 218 513 201 539 q 257 477 234 486 q 311 468 281 468 m 926 -19 q 829 1 871 -19 q 758 57 787 20 q 714 144 729 93 q 699 260 699 196 q 715 380 699 327 q 762 472 732 434 q 837 529 793 509 q 936 549 881 549 q 1030 530 989 549 q 1101 474 1072 510 q 1145 386 1130 437 q 1160 270 1160 334 q 1145 154 1160 207 q 1101 63 1131 101 q 1028 3 1072 24 q 926 -19 984 -19 m 928 22 q 982 31 958 22 q 1023 67 1006 41 q 1049 143 1040 94 q 1059 269 1059 191 q 1050 393 1059 345 q 1025 467 1041 440 q 985 502 1008 493 q 932 511 962 511 q 878 502 902 511 q 837 466 854 492 q 810 390 819 439 q 801 264 801 342 q 810 140 801 188 q 835 66 819 93 q 874 31 851 40 q 928 22 898 22 m 955 1008 q 979 994 969 1002 q 998 977 989 987 l 294 -23 q 271 -10 281 -17 q 251 7 260 -3 l 955 1008 z "},"‰":{"ha":1799,"x_min":81,"x_max":1717,"o":"m 309 427 q 212 447 254 427 q 141 503 170 467 q 97 591 112 539 q 81 707 81 642 q 98 827 81 773 q 145 918 115 880 q 220 976 176 956 q 319 996 264 996 q 413 976 372 996 q 484 920 455 956 q 528 832 513 884 q 543 716 543 781 q 528 600 543 653 q 484 509 513 547 q 411 449 454 471 q 309 427 367 427 m 311 468 q 365 477 340 468 q 406 514 389 487 q 432 589 423 541 q 441 715 441 637 q 433 839 441 791 q 408 913 424 886 q 368 948 391 939 q 315 958 345 958 q 261 948 285 958 q 219 912 237 939 q 193 837 202 885 q 184 710 184 788 q 193 587 184 634 q 218 513 201 539 q 257 477 234 486 q 311 468 281 468 m 926 -19 q 829 1 871 -19 q 758 57 787 20 q 714 144 729 93 q 699 260 699 196 q 715 380 699 327 q 762 472 732 434 q 837 529 793 509 q 936 549 881 549 q 1030 530 989 549 q 1101 474 1072 510 q 1145 386 1130 437 q 1160 270 1160 334 q 1145 154 1160 207 q 1101 63 1131 101 q 1028 3 1072 24 q 926 -19 984 -19 m 928 22 q 982 31 958 22 q 1023 67 1006 41 q 1049 143 1040 94 q 1059 269 1059 191 q 1050 393 1059 345 q 1025 467 1041 440 q 985 502 1008 493 q 932 511 962 511 q 878 502 902 511 q 837 466 854 492 q 810 390 819 439 q 801 264 801 342 q 810 140 801 188 q 835 66 819 93 q 874 31 851 40 q 928 22 898 22 m 1482 -19 q 1386 1 1428 -19 q 1315 57 1343 20 q 1271 144 1286 93 q 1255 260 1255 196 q 1272 380 1255 327 q 1319 472 1289 434 q 1394 529 1350 509 q 1493 549 1438 549 q 1587 530 1546 549 q 1658 474 1629 510 q 1702 386 1687 437 q 1717 270 1717 334 q 1702 154 1717 207 q 1658 63 1687 101 q 1585 3 1628 24 q 1482 -19 1541 -19 m 1485 22 q 1538 31 1514 22 q 1580 67 1563 41 q 1606 143 1597 94 q 1615 269 1615 191 q 1607 393 1615 345 q 1581 467 1598 440 q 1542 502 1565 493 q 1489 511 1518 511 q 1435 502 1459 511 q 1393 466 1411 492 q 1367 390 1376 439 q 1358 264 1358 342 q 1367 140 1358 188 q 1392 66 1375 93 q 1431 31 1408 40 q 1485 22 1455 22 m 955 1008 q 979 994 969 1002 q 998 977 989 987 l 294 -23 q 271 -10 281 -17 q 251 7 260 -3 l 955 1008 z "},"⁄":{"ha":612,"x_min":-68,"x_max":680,"o":"m 636 1008 q 660 994 650 1002 q 680 977 670 987 l -24 -23 q -48 -10 -38 -17 q -68 7 -58 -3 l 636 1008 z "},"¼":{"ha":1133,"x_min":75,"x_max":1079,"o":"m 615 169 l 923 550 l 968 550 l 968 192 l 1079 192 l 1076 128 l 968 128 l 968 -7 l 878 -7 l 878 128 l 615 128 l 615 169 m 908 1008 q 932 994 922 1002 q 951 977 942 987 l 248 -23 q 224 -10 234 -17 q 204 7 214 -3 l 908 1008 m 280 985 l 280 481 l 386 481 l 386 437 l 85 437 l 85 481 l 191 481 l 191 942 l 75 942 l 75 985 l 280 985 m 876 422 l 689 192 l 878 192 l 878 421 l 876 422 z "},"½":{"ha":1196,"x_min":75,"x_max":1097,"o":"m 280 985 l 280 481 l 386 481 l 386 437 l 85 437 l 85 481 l 191 481 l 191 942 l 75 942 l 75 985 l 280 985 m 908 1008 q 932 994 922 1002 q 951 977 942 987 l 248 -23 q 224 -10 234 -17 q 204 7 214 -3 l 908 1008 m 694 36 l 737 68 q 851 153 804 117 q 926 221 897 189 q 967 289 955 254 q 980 371 980 323 q 972 438 980 411 q 951 481 965 465 q 918 505 938 498 q 873 511 899 511 q 817 501 842 511 q 771 471 791 490 q 793 441 786 457 q 800 410 800 425 q 783 372 800 385 q 745 359 766 359 q 708 373 725 359 q 690 416 690 387 q 703 465 690 441 q 741 507 716 488 q 802 538 766 526 q 885 549 838 549 q 970 536 934 549 q 1031 500 1007 523 q 1068 447 1056 477 q 1080 382 1080 416 q 1070 320 1080 349 q 1043 268 1060 292 q 1004 222 1026 243 q 960 182 983 201 q 913 147 937 163 q 871 115 890 130 l 828 81 l 829 77 l 978 77 q 1015 79 1000 77 q 1038 88 1029 81 q 1052 107 1047 94 q 1059 142 1057 120 l 1097 142 l 1097 0 l 694 0 l 694 36 z "},"¾":{"ha":1157,"x_min":54,"x_max":1103,"o":"m 639 169 l 947 550 l 991 550 l 991 192 l 1103 192 l 1103 128 l 991 128 l 991 -7 l 902 -7 l 902 128 l 639 128 l 639 169 m 932 1008 q 956 994 946 1002 q 975 977 966 987 l 271 -23 q 248 -10 258 -17 q 228 7 237 -3 l 932 1008 m 900 422 l 713 192 l 902 192 l 902 421 l 900 422 m 186 693 q 184 713 184 704 q 183 732 183 722 q 262 745 230 736 q 314 769 294 754 q 343 807 334 785 q 352 858 352 829 q 344 906 352 886 q 323 937 336 925 q 292 953 310 948 q 256 958 275 958 q 224 955 240 958 q 195 948 209 952 q 169 937 180 943 q 149 922 157 930 q 164 893 159 909 q 170 864 170 878 q 156 827 170 842 q 121 812 142 812 q 103 814 112 812 q 86 824 94 817 q 73 840 78 830 q 68 865 68 850 q 82 914 68 890 q 123 956 97 937 q 187 985 150 974 q 269 996 224 996 q 346 985 311 996 q 405 957 380 975 q 441 914 429 939 q 454 862 454 890 q 422 783 454 819 q 323 728 389 747 l 323 724 q 383 708 356 720 q 430 677 410 696 q 460 636 450 659 q 471 585 471 612 q 456 523 471 552 q 413 473 441 494 q 346 439 385 452 q 257 427 306 427 q 173 438 210 427 q 109 467 135 449 q 68 508 82 485 q 54 556 54 532 q 69 600 54 583 q 110 618 84 618 q 151 601 138 618 q 164 562 164 584 q 157 528 164 545 q 139 499 151 511 q 185 475 154 485 q 250 466 217 466 q 294 471 273 466 q 332 490 315 477 q 358 524 349 503 q 368 577 368 545 q 334 666 368 635 q 230 696 299 696 q 210 696 221 696 q 186 693 199 695 z "},"+":{"ha":768,"x_min":88,"x_max":680,"o":"m 680 319 l 680 259 l 414 259 l 414 -7 l 354 -7 l 354 259 l 88 259 l 88 319 l 354 319 l 354 585 l 414 585 l 414 319 l 680 319 z "},"−":{"ha":768,"x_min":88,"x_max":680,"o":"m 680 319 l 680 259 l 88 259 l 88 319 l 680 319 z "},"±":{"ha":768,"x_min":88,"x_max":680,"o":"m 680 387 l 680 327 l 414 327 l 414 129 l 354 129 l 354 327 l 88 327 l 88 387 l 354 387 l 354 585 l 414 585 l 414 387 l 680 387 m 680 60 l 680 0 l 88 0 l 88 60 l 680 60 z "},"×":{"ha":768,"x_min":93,"x_max":675,"o":"m 633 580 l 675 538 l 427 290 l 675 47 l 633 5 l 386 249 l 135 -2 l 93 40 l 343 290 l 93 538 l 135 580 l 385 332 l 633 580 z "},"÷":{"ha":768,"x_min":88,"x_max":680,"o":"m 312 490 q 332 541 312 520 q 383 562 353 562 q 434 541 414 562 q 455 490 455 520 q 434 439 455 459 q 383 418 414 418 q 332 439 353 418 q 312 490 312 459 m 312 87 q 332 139 312 118 q 383 159 353 159 q 434 139 414 159 q 455 87 455 118 q 434 37 455 57 q 383 16 414 16 q 332 37 353 16 q 312 87 312 57 m 680 319 l 680 259 l 88 259 l 88 319 l 680 319 z "},"=":{"ha":768,"x_min":88,"x_max":680,"o":"m 680 183 l 680 123 l 88 123 l 88 183 l 680 183 m 680 454 l 680 395 l 88 395 l 88 454 l 680 454 z "},"<":{"ha":768,"x_min":88,"x_max":677,"o":"m 180 288 l 677 83 l 654 28 l 88 264 l 88 314 l 654 551 l 677 496 l 180 290 l 180 288 z "},">":{"ha":768,"x_min":91,"x_max":680,"o":"m 587 290 l 91 496 l 114 551 l 680 314 l 680 264 l 114 28 l 91 83 l 587 288 l 587 290 z "},"¬":{"ha":768,"x_min":88,"x_max":673,"o":"m 673 319 l 673 -7 l 613 -7 l 613 259 l 88 259 l 88 319 l 673 319 z "},"°":{"ha":516,"x_min":54,"x_max":462,"o":"m 54 688 q 70 768 54 730 q 114 833 86 805 q 178 877 141 861 q 258 892 216 892 q 337 877 300 892 q 402 833 374 861 q 446 768 430 805 q 462 688 462 730 q 446 609 462 646 q 402 544 430 572 q 337 501 374 517 q 258 485 300 485 q 178 501 216 485 q 114 544 141 517 q 70 609 86 572 q 54 688 54 646 m 110 688 q 121 629 110 656 q 153 581 133 602 q 200 548 173 559 q 258 536 227 536 q 316 548 289 536 q 363 581 343 559 q 395 629 383 602 q 406 688 406 656 q 395 748 406 720 q 363 797 383 776 q 316 829 343 817 q 258 842 289 842 q 200 829 227 842 q 153 797 173 817 q 121 748 133 776 q 110 688 110 720 z "},"^":{"ha":692,"x_min":34,"x_max":659,"o":"m 590 475 l 347 916 l 345 916 l 102 475 l 34 475 l 321 992 l 371 992 l 659 475 l 590 475 z "},"~":{"ha":768,"x_min":95,"x_max":673,"o":"m 673 378 q 657 287 670 323 q 623 227 644 250 q 576 194 603 204 q 521 184 550 184 q 471 192 493 184 q 430 211 449 199 q 396 237 412 222 q 366 267 380 252 q 310 314 336 296 q 251 333 284 333 q 217 326 233 333 q 187 304 201 319 q 164 262 174 288 q 149 196 154 235 l 95 200 q 115 298 98 260 q 155 357 132 336 q 206 386 179 378 q 256 393 233 393 q 302 387 281 393 q 342 369 323 380 q 376 344 360 358 q 408 315 393 330 q 436 290 422 302 q 464 268 450 277 q 495 252 479 258 q 529 246 511 246 q 556 251 542 246 q 582 270 570 255 q 605 311 595 284 q 620 384 615 338 l 673 378 z "},"¦":{"ha":610,"x_min":271,"x_max":339,"o":"m 271 1008 l 339 1008 l 339 408 l 271 408 l 271 1008 m 271 -383 l 271 217 l 339 217 l 339 -383 l 271 -383 z "},"_":{"ha":620,"x_min":-24,"x_max":644,"o":"m -24 -123 l 644 -123 l 644 -180 l -24 -180 l -24 -123 z "},"ª":{"ha":481,"x_min":58,"x_max":447,"o":"m 447 498 q 412 493 428 494 q 387 492 396 492 q 344 496 361 492 q 317 507 327 500 q 303 524 307 514 q 298 547 298 534 l 292 547 q 236 498 268 512 q 172 485 204 485 q 87 513 117 485 q 58 586 58 542 q 117 682 58 649 q 292 716 177 714 q 293 747 293 731 q 294 773 294 764 q 290 813 294 798 q 278 839 286 829 q 258 852 270 848 q 229 856 245 856 q 159 838 184 856 q 180 794 180 817 q 166 762 180 776 q 130 749 153 749 q 94 761 110 749 q 78 797 78 772 q 89 832 78 815 q 120 863 99 850 q 172 884 140 876 q 244 892 203 892 q 303 886 277 892 q 347 864 329 880 q 373 824 364 849 q 382 760 382 798 q 382 735 382 754 q 382 693 382 717 q 381 644 382 669 q 381 599 381 618 q 382 566 381 579 q 386 546 382 553 q 397 534 390 538 q 418 531 404 531 q 431 532 423 531 q 447 534 438 532 l 447 498 m 292 682 q 221 674 248 680 q 178 656 193 667 q 157 631 163 646 q 152 597 152 616 q 165 548 152 565 q 203 530 178 530 q 231 536 216 530 q 260 554 247 541 q 283 588 274 567 q 292 641 292 609 l 292 682 z "},"º":{"ha":506,"x_min":54,"x_max":452,"o":"m 54 686 q 68 765 54 728 q 107 831 81 803 q 171 876 133 859 q 257 892 209 892 q 341 877 304 892 q 402 833 377 861 q 439 769 427 806 q 452 692 452 732 q 438 612 452 650 q 399 546 425 574 q 335 502 373 518 q 250 485 298 485 q 165 501 202 485 q 104 544 129 517 q 67 608 79 572 q 54 686 54 645 m 154 687 q 160 608 154 640 q 179 557 166 576 q 210 530 191 538 q 252 522 228 522 q 295 530 277 522 q 327 558 314 538 q 346 610 339 578 q 352 690 352 642 q 346 769 352 737 q 328 820 340 801 q 297 848 315 840 q 254 856 279 856 q 211 847 229 856 q 179 819 192 839 q 160 767 167 800 q 154 687 154 734 z "},"¤":{"ha":799,"x_min":109,"x_max":690,"o":"m 648 680 l 690 637 l 593 541 q 632 471 618 509 q 646 390 646 433 q 632 310 646 347 q 594 241 618 272 l 690 146 l 648 104 l 553 199 q 483 160 522 174 q 401 146 444 146 q 320 159 358 146 q 250 197 281 173 l 151 98 l 109 140 l 208 239 q 170 309 184 271 q 157 390 157 347 q 170 470 157 433 q 208 539 184 508 l 109 637 l 151 680 l 249 582 q 319 621 281 607 q 401 635 357 635 q 482 621 444 635 q 551 583 520 607 l 648 680 m 218 390 q 232 316 218 351 q 271 256 246 282 q 329 216 295 231 q 401 201 362 201 q 472 216 439 201 q 531 256 506 231 q 570 316 555 282 q 585 390 585 351 q 570 464 585 429 q 531 524 555 498 q 472 565 506 550 q 401 580 439 580 q 329 565 362 580 q 271 524 295 550 q 232 464 246 498 q 218 390 218 429 z "},"€":{"ha":774,"x_min":41,"x_max":707,"o":"m 654 214 q 682 209 668 212 q 707 201 695 205 q 620 34 682 87 q 459 -19 558 -19 q 338 4 392 -19 q 245 66 285 26 q 181 162 206 106 q 145 282 156 217 l 41 282 l 56 336 l 139 336 q 138 359 138 346 q 138 382 138 372 q 138 408 138 397 q 139 425 139 418 l 49 425 l 64 479 l 144 479 q 184 612 156 553 q 256 713 213 671 q 356 777 300 755 q 479 800 412 800 q 572 787 530 800 q 644 752 614 774 q 690 702 674 730 q 707 643 707 674 q 700 607 707 621 q 681 583 692 592 q 655 570 669 574 q 629 566 642 566 q 599 572 612 566 q 575 587 585 577 q 560 609 566 596 q 555 637 555 622 q 564 676 555 655 q 591 715 572 697 q 538 740 568 734 q 479 747 508 747 q 406 735 439 747 q 346 695 372 724 q 302 613 319 665 q 279 479 285 561 l 582 479 l 567 425 l 276 425 l 276 388 q 276 361 276 374 q 277 336 276 349 l 544 336 l 529 282 l 280 282 q 304 159 287 207 q 346 83 321 111 q 401 45 370 56 q 468 35 433 35 q 529 44 500 35 q 581 73 557 52 q 624 127 605 93 q 654 214 642 161 z "},"$":{"ha":725,"x_min":75,"x_max":650,"o":"m 340 335 q 251 369 294 351 q 173 411 207 386 q 118 473 139 436 q 98 565 98 510 q 117 658 98 618 q 170 726 136 698 q 248 770 203 754 q 344 791 293 787 l 344 909 l 397 909 l 397 792 q 494 777 450 790 q 569 742 538 764 q 618 692 601 720 q 636 633 636 664 q 629 597 636 612 q 610 574 622 583 q 585 561 599 565 q 558 557 571 557 q 528 562 542 557 q 505 577 515 568 q 490 600 495 587 q 484 627 484 612 q 493 667 484 646 q 521 705 502 688 q 493 720 509 714 q 461 730 478 726 q 428 736 445 734 q 397 739 412 739 l 397 453 q 489 419 444 437 q 570 374 534 401 q 628 311 606 348 q 650 219 650 273 q 630 125 650 166 q 574 56 609 84 q 492 11 538 27 q 393 -10 445 -5 l 393 -136 l 340 -136 l 340 -12 q 233 4 282 -11 q 149 43 184 19 q 94 98 114 67 q 75 163 75 129 q 97 224 75 199 q 159 250 120 250 q 189 245 174 250 q 214 230 203 240 q 232 205 225 220 q 239 170 239 190 q 229 125 239 146 q 197 88 219 104 q 267 52 229 62 q 340 41 306 42 l 340 335 m 206 603 q 214 555 206 575 q 239 520 222 535 q 282 493 256 505 q 344 468 308 481 l 344 738 q 291 726 315 734 q 247 701 266 717 q 217 660 228 684 q 206 603 206 636 m 528 179 q 520 228 528 207 q 495 264 511 248 q 453 293 478 280 q 393 319 427 307 l 393 43 q 446 56 421 46 q 489 82 471 65 q 518 122 507 98 q 528 179 528 146 z "},"¢":{"ha":679,"x_min":71,"x_max":618,"o":"m 342 713 l 395 713 l 395 595 q 480 580 441 593 q 546 546 518 566 q 588 498 573 525 q 603 443 603 471 q 596 409 603 423 q 578 387 589 395 q 554 374 568 378 q 528 370 541 370 q 476 391 495 370 q 456 442 456 412 q 464 478 456 460 q 490 513 472 496 q 445 536 471 529 q 395 546 419 544 l 395 34 q 452 46 425 36 q 500 77 478 57 q 538 127 522 97 q 566 201 555 158 q 593 196 580 199 q 618 188 606 193 q 540 41 596 92 q 395 -18 484 -11 l 395 -136 l 342 -136 l 342 -18 q 229 13 279 -13 q 143 79 178 38 q 90 172 109 119 q 71 284 71 225 q 90 398 71 344 q 145 493 109 452 q 230 561 180 534 q 342 594 280 588 l 342 713 m 204 286 q 215 171 204 217 q 243 96 225 125 q 287 53 262 67 q 342 35 313 39 l 342 545 q 289 527 314 541 q 245 485 264 514 q 215 408 227 456 q 204 286 204 359 z "},"£":{"ha":709,"x_min":56,"x_max":656,"o":"m 552 395 l 552 340 l 295 340 q 290 275 295 306 q 273 217 285 245 q 241 162 261 189 q 193 109 222 136 l 195 105 l 449 105 q 522 110 495 105 q 565 129 549 114 q 589 173 581 144 q 605 251 597 201 l 656 251 l 656 0 l 56 0 l 56 47 q 114 95 92 71 q 149 145 136 120 q 165 197 161 171 q 169 250 169 223 q 167 294 169 271 q 163 340 165 317 l 60 340 l 60 395 l 156 395 q 151 446 153 420 q 149 496 149 473 q 167 624 149 568 q 219 719 185 680 q 304 779 254 758 q 419 800 354 800 q 504 790 463 800 q 575 761 545 780 q 625 715 606 743 q 644 652 644 687 q 636 614 644 629 q 618 589 629 599 q 593 575 607 579 q 566 571 579 571 q 535 577 549 571 q 511 592 522 583 q 496 615 501 602 q 490 643 490 628 q 499 682 490 661 q 527 721 508 703 q 471 742 500 737 q 422 747 441 747 q 349 731 377 747 q 305 689 321 715 q 283 629 289 663 q 278 559 278 595 q 283 475 278 517 q 291 395 288 433 l 552 395 z "},"¥":{"ha":852,"x_min":14,"x_max":822,"o":"m 708 380 l 708 328 l 491 328 l 491 237 l 708 237 l 708 184 l 491 184 l 491 54 l 627 54 l 627 0 l 230 0 l 230 54 l 366 54 l 366 184 l 149 184 l 149 237 l 366 237 l 366 328 l 149 328 l 149 380 l 354 380 l 134 726 l 14 726 l 14 780 l 397 780 l 397 726 l 286 726 l 464 446 l 640 726 l 525 726 l 525 780 l 822 780 l 822 726 l 707 726 l 491 383 l 491 380 l 708 380 z "},"ƒ":{"ha":712,"x_min":7,"x_max":688,"o":"m 264 354 l 161 354 l 161 408 l 264 408 l 264 448 q 284 601 264 535 q 339 711 304 667 q 421 777 374 755 q 523 800 468 800 q 589 790 559 800 q 641 766 619 781 q 676 728 663 750 q 688 682 688 707 q 683 652 688 667 q 668 628 677 638 q 645 611 659 617 q 616 605 632 605 q 590 610 603 605 q 567 623 577 614 q 552 645 557 632 q 546 674 546 658 q 553 710 546 692 q 576 741 561 728 q 552 747 565 745 q 519 749 539 749 q 469 743 493 749 q 427 714 445 736 q 397 646 408 691 q 386 526 386 602 l 386 408 l 535 408 l 535 354 l 386 354 l 386 -56 q 370 -197 386 -136 q 324 -300 353 -258 q 252 -362 294 -341 q 159 -383 210 -383 q 97 -374 125 -383 q 49 -351 69 -366 q 18 -316 29 -336 q 7 -273 7 -296 q 27 -221 7 -241 q 78 -200 47 -200 q 104 -204 92 -200 q 126 -218 117 -209 q 141 -239 136 -227 q 147 -266 147 -251 q 140 -299 147 -283 q 119 -327 133 -315 q 141 -331 129 -330 q 163 -333 153 -333 q 209 -324 190 -333 q 240 -293 228 -315 q 258 -237 252 -272 q 264 -149 264 -201 l 264 354 z "},"`":{"ha":543,"x_min":59,"x_max":325,"o":"m 59 930 q 159 997 108 976 l 325 716 q 310 702 317 708 q 292 692 302 696 l 59 930 z "},"´":{"ha":543,"x_min":218,"x_max":484,"o":"m 251 692 q 233 702 241 696 q 218 716 225 708 l 384 997 q 484 930 435 976 l 251 692 z "},"ˆ":{"ha":543,"x_min":68,"x_max":474,"o":"m 102 692 q 84 702 92 696 q 68 716 76 708 l 247 991 l 296 991 l 474 716 q 459 702 467 708 q 441 692 451 696 l 271 863 l 102 692 z "},"ˇ":{"ha":543,"x_min":68,"x_max":474,"o":"m 441 997 q 459 987 451 993 q 474 972 467 981 l 296 697 l 247 697 l 68 972 q 84 987 76 981 q 102 997 92 993 l 271 825 l 441 997 z "},"˜":{"ha":543,"x_min":56,"x_max":500,"o":"m 500 920 q 451 781 485 830 q 362 731 417 731 q 304 747 330 731 q 255 781 278 763 q 214 812 232 800 q 176 824 195 824 q 156 820 167 824 q 136 806 146 817 q 117 777 125 795 q 102 730 108 759 q 78 731 91 730 q 56 738 66 733 q 105 878 71 829 q 195 926 139 926 q 248 913 225 926 q 295 882 271 900 q 318 863 307 872 q 338 848 328 854 q 358 837 349 841 q 379 833 368 833 q 399 837 389 833 q 420 851 410 841 q 439 880 431 862 q 454 928 448 899 q 478 926 465 928 q 500 920 490 924 z "},"¨":{"ha":543,"x_min":57,"x_max":486,"o":"m 135 769 q 79 790 102 769 q 57 846 57 812 q 63 878 57 863 q 80 902 69 892 q 104 919 90 913 q 135 924 119 924 q 191 903 168 924 q 213 847 213 882 q 207 815 213 829 q 190 791 201 801 q 165 775 180 781 q 135 769 151 769 m 408 769 q 352 790 374 769 q 330 846 330 812 q 336 878 330 863 q 352 902 342 892 q 377 919 363 913 q 408 924 391 924 q 463 903 441 924 q 486 847 486 882 q 479 815 486 829 q 463 791 473 801 q 438 775 452 781 q 408 769 424 769 z "},"¯":{"ha":543,"x_min":89,"x_max":454,"o":"m 89 860 l 454 860 l 454 802 l 89 802 l 89 860 z "},"˘":{"ha":543,"x_min":85,"x_max":457,"o":"m 457 953 q 441 845 455 890 q 403 771 427 800 q 346 727 379 741 q 271 713 312 713 q 197 727 231 713 q 139 771 163 741 q 101 845 115 800 q 85 953 87 890 q 106 956 95 955 q 127 958 117 958 q 173 848 138 885 q 271 812 208 812 q 369 848 334 812 q 416 958 404 885 q 436 956 425 958 q 457 953 448 955 z "},"˚":{"ha":543,"x_min":114,"x_max":429,"o":"m 114 838 q 125 888 114 865 q 156 930 136 912 q 206 958 176 947 q 275 968 236 968 q 341 958 312 968 q 389 931 370 948 q 418 891 408 913 q 429 842 429 868 q 418 792 429 816 q 387 751 407 769 q 336 723 366 733 q 268 713 307 713 q 202 723 231 713 q 154 750 173 733 q 124 790 134 767 q 114 838 114 812 m 195 840 q 217 772 195 791 q 271 753 238 753 q 301 758 287 753 q 325 772 315 762 q 341 800 336 783 q 347 842 347 817 q 326 909 347 890 q 272 928 304 928 q 242 923 256 928 q 217 908 228 919 q 201 881 207 898 q 195 840 195 864 z "},"¸":{"ha":543,"x_min":163,"x_max":404,"o":"m 186 -234 q 221 -253 204 -247 q 254 -259 239 -259 q 303 -240 283 -259 q 322 -186 322 -220 q 303 -134 322 -151 q 251 -117 283 -117 q 239 -117 245 -117 q 224 -119 232 -118 l 224 7 l 272 7 l 272 -69 l 281 -69 q 331 -78 308 -69 q 370 -101 353 -86 q 395 -137 386 -116 q 404 -182 404 -158 q 392 -235 404 -212 q 360 -273 380 -258 q 316 -296 340 -288 q 265 -304 291 -304 q 210 -295 237 -304 q 163 -265 182 -285 q 172 -248 166 -256 q 186 -234 177 -240 z "},"µ":{"ha":756,"x_min":122,"x_max":720,"o":"m 195 87 q 188 31 191 56 q 183 -14 185 6 q 180 -50 181 -34 q 180 -79 180 -65 q 186 -145 180 -121 q 204 -187 193 -170 q 230 -218 216 -204 q 257 -252 243 -232 q 273 -280 267 -267 q 278 -310 278 -294 q 258 -361 278 -342 q 212 -379 239 -379 q 162 -361 180 -379 q 135 -318 144 -344 q 124 -264 126 -293 q 122 -213 122 -235 l 122 578 l 239 578 l 239 255 q 248 170 239 203 q 275 115 258 136 q 316 87 292 95 q 368 79 340 79 q 422 88 397 79 q 465 120 447 97 q 494 182 484 143 q 504 281 504 222 l 504 578 l 621 578 l 621 150 q 622 100 621 120 q 629 68 623 80 q 645 51 634 56 q 675 46 656 46 q 720 50 692 46 l 720 0 q 667 -7 692 -5 q 628 -8 643 -8 q 569 -2 592 -8 q 533 17 547 3 q 514 52 519 31 q 507 105 508 73 l 503 106 q 353 -20 458 -20 q 305 -13 328 -20 q 261 8 281 -5 q 225 42 241 22 q 199 87 210 62 l 195 87 z "},"◻":{"ha":827,"x_min":122,"x_max":705,"o":"m 122 614 l 705 614 l 705 31 l 122 31 l 122 614 m 176 85 l 651 85 l 651 559 l 176 559 l 176 85 z "},"◼":{"ha":827,"x_min":122,"x_max":705,"o":"m 122 614 l 705 614 l 705 31 l 122 31 l 122 614 z "},"◽":{"ha":827,"x_min":239,"x_max":589,"o":"m 239 497 l 589 497 l 589 147 l 239 147 l 239 497 m 286 195 l 541 195 l 541 450 l 286 450 l 286 195 z "},"◾":{"ha":827,"x_min":239,"x_max":589,"o":"m 239 497 l 589 497 l 589 147 l 239 147 l 239 497 z "},"‌":{"ha":0,"x_min":-24,"x_max":24,"o":"m 24 1526 l 24 -1050 l -24 -1050 l -24 1526 l 24 1526 z "},"‍":{"ha":0,"x_min":-149,"x_max":149,"o":"m 24 -1050 l -24 -1050 l -24 1472 l -115 1380 l -149 1413 l -33 1528 l -149 1642 l -115 1675 l 0 1559 l 115 1675 l 149 1642 l 33 1528 l 149 1413 l 115 1380 l 24 1472 l 24 -1050 z "},"​":{"ha":0,"x_min":0,"x_max":0,"o":""},"◌":{"ha":806,"x_min":68,"x_max":738,"o":"m 648 529 q 616 496 648 496 q 583 529 583 496 q 616 562 583 562 q 648 529 648 562 m 551 593 q 519 561 551 561 q 484 593 484 561 q 519 627 484 627 q 551 593 551 627 m 714 431 q 680 397 714 397 q 648 431 648 397 q 682 463 648 463 q 714 431 714 463 m 738 315 q 706 283 738 283 q 671 315 671 283 q 706 349 671 349 q 738 315 738 349 m 435 618 q 402 584 435 584 q 370 618 370 584 q 402 650 370 650 q 435 618 435 650 m 321 593 q 288 561 321 561 q 255 593 255 561 q 288 627 255 627 q 321 593 321 627 m 714 201 q 680 168 714 168 q 648 201 648 168 q 680 235 648 235 q 714 201 714 235 m 223 529 q 190 496 223 496 q 157 527 157 496 q 190 562 157 562 q 223 529 223 562 m 648 102 q 616 69 648 69 q 583 102 583 69 q 616 135 583 135 q 648 102 648 135 m 551 37 q 519 5 551 5 q 484 37 484 5 q 519 71 484 71 q 551 37 551 71 m 158 431 q 126 397 158 397 q 92 431 92 397 q 125 463 92 463 q 158 431 158 463 m 134 315 q 127 291 134 299 q 102 283 120 283 q 68 315 68 283 q 102 349 68 349 q 127 340 120 349 q 134 315 134 332 m 435 15 q 402 -19 435 -19 q 370 15 370 -19 q 402 47 370 47 q 435 15 435 47 m 158 201 q 125 168 158 168 q 92 201 92 168 q 125 235 92 235 q 158 201 158 235 m 321 39 q 288 5 321 5 q 255 37 255 5 q 288 71 255 71 q 321 39 321 71 m 223 102 q 190 69 223 69 q 157 102 157 69 q 190 135 157 135 q 223 102 223 135 z "},"͏":{"ha":0,"x_min":0,"x_max":0,"o":""},"⁠":{"ha":0,"x_min":0,"x_max":0,"o":""},"ꦀ":{"ha":0,"x_min":-848,"x_max":-343,"o":"m -343 880 q -389 822 -362 849 q -449 775 -416 795 q -519 743 -482 755 q -595 732 -557 732 q -671 743 -634 732 q -742 775 -709 755 q -802 822 -774 795 q -848 880 -829 849 q -831 898 -840 890 q -811 912 -823 907 q -763 872 -787 890 q -712 843 -739 854 q -676 933 -705 892 q -595 1008 -648 975 q -514 933 -543 975 q -479 843 -486 892 q -427 872 -451 854 q -380 912 -404 890 q -359 898 -368 907 q -343 880 -351 890 m -595 821 q -530 827 -560 821 q -539 869 -534 851 q -554 901 -545 887 q -573 924 -562 914 q -595 943 -583 934 q -618 924 -608 934 q -637 901 -629 914 q -651 869 -645 887 q -661 827 -657 851 q -595 821 -630 821 z "},"ꦁ":{"ha":0,"x_min":-734,"x_max":-445,"o":"m -445 794 q -489 768 -469 778 q -527 753 -509 758 q -560 746 -545 747 q -588 744 -575 744 q -655 754 -628 744 q -701 780 -683 764 q -726 816 -718 796 q -734 857 -734 836 q -728 889 -734 873 q -712 918 -723 905 q -685 937 -701 930 q -648 945 -669 945 q -594 924 -612 945 q -575 877 -575 903 q -583 843 -575 859 q -606 812 -590 826 l -606 810 q -593 808 -598 808 q -582 808 -588 808 q -532 815 -558 808 q -473 842 -507 823 q -445 794 -455 823 z "},"ꦂ":{"ha":0,"x_min":-560,"x_max":-126,"o":"m -174 1637 q -126 1618 -147 1632 l -492 722 q -528 729 -511 723 q -560 744 -545 734 l -174 1637 z "},"ꦃ":{"ha":492,"x_min":122,"x_max":526,"o":"m 189 0 q 254 -83 218 -35 q 327 -188 290 -130 q 400 -312 364 -245 q 464 -453 436 -378 q 509 -609 492 -528 q 526 -777 526 -690 q 504 -978 526 -878 q 437 -1168 481 -1077 q 386 -1152 408 -1164 q 411 -1005 401 -1080 q 420 -850 420 -930 q 394 -582 420 -705 q 326 -352 368 -458 q 231 -159 284 -247 q 125 2 178 -71 q 204 155 172 80 q 257 297 237 231 q 197 337 222 313 q 155 387 172 360 q 130 444 138 414 q 122 502 122 473 q 131 558 122 532 q 157 606 140 585 q 199 638 174 626 q 256 650 224 650 q 314 638 289 650 q 355 604 338 626 q 381 552 372 583 q 389 486 389 522 q 371 370 389 431 q 325 246 353 309 q 260 120 296 183 q 189 0 224 58 m 288 471 q 274 543 288 518 q 233 568 260 568 q 210 562 220 568 q 193 545 200 555 q 183 520 186 534 q 180 491 180 506 q 201 417 180 454 q 272 352 222 380 q 284 417 280 387 q 288 471 288 447 z "},"ꦄ":{"ha":1790,"x_min":115,"x_max":1790,"o":"m 1790 -20 q 1765 -25 1777 -24 q 1738 -27 1752 -27 q 1721 -2 1733 -9 q 1692 4 1708 4 q 1660 1 1678 4 q 1626 -8 1642 -3 q 1615 16 1619 3 q 1609 43 1611 28 q 1653 54 1629 49 q 1696 61 1677 60 q 1639 112 1672 92 q 1567 145 1607 132 l 1567 0 l 1442 0 l 1442 173 q 1379 180 1411 177 q 1314 184 1347 182 l 1314 172 q 1301 80 1314 117 q 1266 21 1289 43 q 1212 -10 1243 -1 q 1146 -19 1181 -19 q 1047 -3 1093 -19 q 961 30 1002 12 q 886 59 922 46 q 809 72 850 72 q 722 55 769 72 q 625 -3 674 38 q 607 14 615 5 q 591 32 598 22 q 659 94 625 68 q 723 134 692 119 q 783 156 754 149 q 837 163 812 163 q 885 157 862 163 q 930 143 908 152 q 973 123 952 134 q 1015 100 994 111 q 1090 59 1053 77 q 1166 41 1127 41 q 1202 48 1185 41 q 1231 70 1219 54 q 1250 112 1243 85 q 1257 177 1257 138 l 1257 189 q 1191 194 1224 191 q 1127 202 1158 197 q 1070 217 1097 208 q 1023 240 1043 226 q 991 273 1003 254 q 980 320 980 293 q 986 356 980 338 q 1005 388 992 374 q 1038 413 1018 403 q 1086 427 1058 423 q 1095 403 1092 416 q 1099 376 1098 390 q 1053 358 1068 374 q 1038 321 1038 342 q 1057 282 1038 297 q 1107 260 1076 268 q 1177 248 1138 252 q 1257 241 1216 244 l 1257 519 q 1265 586 1257 561 q 1292 626 1274 612 q 1337 645 1310 640 q 1402 650 1364 650 q 1477 644 1445 650 q 1528 618 1508 637 q 1557 565 1548 599 q 1567 478 1567 532 l 1567 199 q 1652 166 1613 185 q 1719 120 1691 146 q 1767 59 1748 94 q 1790 -20 1785 24 m 432 907 q 319 822 368 878 q 238 696 271 767 q 189 544 205 625 q 173 380 173 463 q 188 236 173 298 q 229 131 203 173 q 288 66 254 88 q 359 45 322 45 q 404 55 385 45 q 437 84 424 66 q 457 129 450 103 q 464 184 464 154 q 433 285 464 248 q 336 322 402 322 l 336 376 q 392 384 370 376 q 428 406 415 391 q 447 440 441 420 q 452 488 452 461 q 436 565 452 536 q 387 593 419 593 q 343 576 363 593 q 309 519 322 559 l 256 538 q 316 625 277 600 q 406 650 355 650 q 479 637 448 650 q 532 602 511 624 q 564 552 553 581 q 575 492 575 523 q 551 411 575 446 q 481 356 528 376 l 481 351 q 588 183 588 300 q 571 100 588 137 q 526 36 555 62 q 459 -5 498 9 q 377 -19 420 -19 q 268 9 316 -19 q 185 89 219 37 q 133 214 151 140 q 115 379 115 288 q 132 553 115 466 q 185 718 149 640 q 275 857 220 795 q 405 956 330 920 q 432 907 423 935 m 1442 486 q 1439 545 1442 523 q 1429 578 1436 566 q 1410 593 1422 589 q 1379 596 1398 596 q 1350 593 1362 596 q 1330 583 1338 591 q 1318 562 1322 576 q 1314 524 1314 547 l 1314 237 q 1380 232 1348 235 q 1442 224 1412 229 l 1442 486 z "},"ꦅ":{"ha":1316,"x_min":122,"x_max":1194,"o":"m 1069 0 l 1069 455 q 1064 518 1069 492 q 1047 562 1059 545 q 1013 588 1034 579 q 961 596 992 596 q 873 564 901 596 q 846 453 846 531 l 792 453 q 767 562 792 527 q 685 596 742 596 q 638 589 656 596 q 609 569 620 581 q 594 543 599 557 q 590 515 590 528 q 602 460 590 491 q 548 444 576 448 q 537 482 541 463 q 533 517 533 500 q 541 564 533 541 q 567 607 549 588 q 615 638 585 627 q 687 650 644 650 q 768 633 736 650 q 821 587 800 616 l 825 587 q 883 636 848 622 q 978 650 919 650 q 1070 641 1030 650 q 1138 607 1111 631 q 1180 544 1166 583 q 1194 446 1194 505 l 1194 0 l 1069 0 m 438 151 q 445 100 438 119 q 469 70 452 81 q 512 56 485 60 q 579 53 539 53 q 642 53 613 53 q 700 54 671 53 l 701 56 q 670 89 686 73 q 635 117 655 104 q 587 136 614 129 q 521 143 559 143 l 521 197 q 592 191 562 197 q 645 174 623 184 q 685 151 668 163 q 716 125 702 138 q 758 90 741 103 q 793 68 774 76 q 836 57 811 60 q 900 54 861 54 l 900 0 q 830 -1 864 -1 q 761 -1 797 -1 q 685 -1 725 -1 q 597 -1 645 -1 q 468 1 522 -1 q 380 19 414 4 q 330 64 346 34 q 314 151 314 95 l 314 513 q 312 554 314 538 q 304 580 309 570 q 292 593 300 589 q 274 596 285 596 q 239 587 256 596 q 209 555 222 577 q 188 496 195 532 q 180 406 180 460 l 180 203 q 184 138 180 164 q 199 94 189 113 q 226 62 210 75 q 267 34 243 48 q 256 10 264 21 q 237 -9 249 -1 q 183 25 205 7 q 147 67 161 44 q 128 121 134 91 q 122 190 122 151 l 122 399 q 124 458 122 428 q 133 515 126 488 q 151 568 139 543 q 184 611 163 593 q 234 640 204 629 q 306 650 264 650 q 361 644 337 650 q 403 621 386 637 q 429 577 420 604 q 438 509 438 550 l 438 151 m 820 -703 q 811 -560 818 -618 q 793 -463 804 -502 q 767 -402 782 -425 q 733 -369 752 -380 q 693 -353 715 -357 q 646 -346 671 -349 q 579 -334 610 -342 q 527 -313 549 -326 q 492 -281 505 -300 q 479 -236 479 -262 q 494 -183 479 -207 q 536 -143 509 -159 q 598 -117 562 -126 q 677 -108 635 -108 q 684 -108 678 -108 q 695 -109 690 -108 l 695 -163 q 689 -162 692 -162 q 685 -162 686 -162 q 625 -182 647 -162 q 604 -232 604 -203 q 611 -261 604 -250 q 632 -280 619 -273 q 660 -291 644 -287 q 693 -296 676 -294 q 741 -306 714 -299 q 794 -328 767 -312 q 847 -370 821 -343 q 895 -441 873 -397 q 929 -550 916 -486 q 944 -703 942 -614 l 820 -703 z "},"ꦆ":{"ha":1682,"x_min":122,"x_max":1560,"o":"m 754 453 q 730 562 754 527 q 651 596 706 596 q 605 589 623 596 q 577 569 587 581 q 563 543 567 557 q 559 515 559 528 q 570 460 559 491 q 517 444 545 448 q 506 482 509 463 q 502 517 502 500 q 510 564 502 541 q 535 607 517 588 q 582 638 553 627 q 652 650 610 650 q 731 633 701 650 q 783 587 762 616 l 787 587 q 845 636 809 622 q 936 650 881 650 q 1025 640 985 650 q 1092 606 1065 630 q 1134 543 1120 583 q 1149 446 1149 504 l 1149 85 q 1157 54 1149 63 q 1190 45 1166 45 q 1227 56 1219 45 q 1236 85 1236 67 l 1236 404 q 1235 465 1236 432 q 1227 530 1234 498 q 1205 589 1220 562 q 1162 633 1190 616 l 1162 637 q 1251 642 1209 640 q 1325 643 1292 643 q 1433 635 1388 643 q 1506 606 1478 628 q 1547 543 1534 584 q 1560 437 1560 503 l 1560 0 l 1436 0 l 1436 443 q 1430 519 1436 490 q 1410 564 1423 548 q 1374 584 1396 579 q 1319 589 1352 589 q 1293 588 1307 589 q 1267 587 1280 588 l 1267 585 q 1282 545 1277 567 q 1291 500 1288 524 q 1294 454 1293 477 q 1294 408 1294 430 l 1294 87 q 1285 37 1294 56 q 1261 8 1277 18 q 1221 -6 1244 -3 q 1166 -9 1197 -9 q 1099 -5 1126 -9 q 1055 11 1072 0 q 1032 41 1039 22 q 1025 89 1025 60 l 1025 455 q 1000 563 1025 529 q 917 596 975 596 q 834 564 861 596 q 808 453 808 531 l 754 453 m 438 151 q 445 100 438 119 q 469 70 452 81 q 512 56 485 60 q 579 53 539 53 q 642 53 613 53 q 700 54 671 53 l 701 56 q 670 89 686 73 q 635 117 655 104 q 587 136 614 129 q 521 143 559 143 l 521 197 q 592 191 562 197 q 644 174 622 184 q 684 151 667 163 q 715 125 701 138 q 756 90 739 103 q 792 68 774 76 q 836 57 811 60 q 900 54 861 54 l 900 0 q 830 -1 864 -1 q 761 -1 797 -1 q 685 -1 725 -1 q 597 -1 645 -1 q 468 1 522 -1 q 380 19 414 4 q 330 64 346 34 q 314 151 314 95 l 314 513 q 312 554 314 538 q 304 580 309 570 q 292 593 300 589 q 274 596 285 596 q 239 587 256 596 q 209 555 222 577 q 188 496 195 532 q 180 406 180 460 l 180 203 q 184 138 180 164 q 199 94 189 113 q 226 62 210 75 q 267 34 243 48 q 256 10 264 21 q 237 -9 249 -1 q 183 25 205 7 q 147 67 161 44 q 128 121 134 91 q 122 190 122 151 l 122 399 q 124 458 122 428 q 133 515 126 488 q 151 568 139 543 q 184 611 163 593 q 234 640 204 629 q 306 650 264 650 q 361 644 337 650 q 403 621 386 637 q 429 577 420 604 q 438 509 438 550 l 438 151 m 960 -703 q 951 -560 958 -618 q 933 -463 944 -502 q 907 -402 922 -425 q 873 -369 892 -380 q 832 -353 854 -357 q 786 -346 810 -349 q 719 -334 749 -342 q 666 -313 688 -326 q 632 -281 644 -300 q 619 -236 619 -262 q 634 -183 619 -207 q 675 -143 649 -159 q 738 -117 702 -126 q 817 -108 774 -108 q 824 -108 818 -108 q 835 -109 829 -108 l 835 -163 q 828 -162 831 -162 q 825 -162 825 -162 q 765 -182 787 -162 q 743 -232 743 -203 q 751 -261 743 -250 q 771 -280 759 -273 q 800 -291 784 -287 q 833 -296 816 -294 q 880 -306 854 -299 q 934 -328 907 -312 q 987 -370 961 -343 q 1034 -441 1013 -397 q 1068 -550 1055 -486 q 1084 -703 1082 -614 l 960 -703 z "},"ꦇ":{"ha":1682,"x_min":122,"x_max":1560,"o":"m 754 453 q 730 562 754 527 q 651 596 706 596 q 605 589 623 596 q 577 569 587 581 q 563 543 567 557 q 559 515 559 528 q 570 460 559 491 q 517 444 545 448 q 506 482 509 463 q 502 517 502 500 q 510 564 502 541 q 535 607 517 588 q 582 638 553 627 q 652 650 610 650 q 731 633 701 650 q 783 587 762 616 l 787 587 q 845 636 809 622 q 936 650 881 650 q 1025 640 985 650 q 1092 606 1065 630 q 1134 543 1120 583 q 1149 446 1149 504 l 1149 85 q 1157 54 1149 63 q 1190 45 1166 45 q 1227 56 1219 45 q 1236 85 1236 67 l 1236 404 q 1235 465 1236 432 q 1227 530 1234 498 q 1205 589 1220 562 q 1162 633 1190 616 l 1162 637 q 1251 642 1209 640 q 1325 643 1292 643 q 1433 635 1388 643 q 1506 606 1478 628 q 1547 543 1534 584 q 1560 437 1560 503 l 1560 0 l 1436 0 l 1436 443 q 1430 519 1436 490 q 1410 564 1423 548 q 1374 584 1396 579 q 1319 589 1352 589 q 1293 588 1307 589 q 1267 587 1280 588 l 1267 585 q 1282 545 1277 567 q 1291 500 1288 524 q 1294 454 1293 477 q 1294 408 1294 430 l 1294 87 q 1285 37 1294 56 q 1261 8 1277 18 q 1221 -6 1244 -3 q 1166 -9 1197 -9 q 1099 -5 1126 -9 q 1055 11 1072 0 q 1032 41 1039 22 q 1025 89 1025 60 l 1025 455 q 1000 563 1025 529 q 917 596 975 596 q 834 564 861 596 q 808 453 808 531 l 754 453 m 438 151 q 445 100 438 119 q 469 70 452 81 q 512 56 485 60 q 579 53 539 53 q 642 53 613 53 q 700 54 671 53 l 701 56 q 670 89 686 73 q 635 117 655 104 q 587 136 614 129 q 521 143 559 143 l 521 197 q 592 191 562 197 q 644 174 622 184 q 684 151 667 163 q 715 125 701 138 q 756 90 739 103 q 792 68 774 76 q 836 57 811 60 q 900 54 861 54 l 900 0 q 830 -1 864 -1 q 761 -1 797 -1 q 685 -1 725 -1 q 597 -1 645 -1 q 468 1 522 -1 q 380 19 414 4 q 330 64 346 34 q 314 151 314 95 l 314 513 q 312 554 314 538 q 304 580 309 570 q 292 593 300 589 q 274 596 285 596 q 239 587 256 596 q 209 555 222 577 q 188 496 195 532 q 180 406 180 460 l 180 203 q 184 138 180 164 q 199 94 189 113 q 226 62 210 75 q 267 34 243 48 q 256 10 264 21 q 237 -9 249 -1 q 183 25 205 7 q 147 67 161 44 q 128 121 134 91 q 122 190 122 151 l 122 399 q 124 458 122 428 q 133 515 126 488 q 151 568 139 543 q 184 611 163 593 q 234 640 204 629 q 306 650 264 650 q 361 644 337 650 q 403 621 386 637 q 429 577 420 604 q 438 509 438 550 l 438 151 m 751 -365 q 793 -386 770 -375 q 838 -412 817 -396 q 873 -451 859 -428 q 887 -511 887 -475 q 872 -575 887 -547 q 832 -626 857 -604 q 772 -666 806 -649 q 701 -693 739 -682 q 625 -711 664 -705 q 551 -719 587 -718 l 551 -665 q 726 -615 669 -654 q 783 -504 783 -576 q 780 -472 783 -486 q 767 -447 776 -458 q 746 -427 759 -436 q 715 -409 733 -418 q 673 -389 695 -399 q 631 -363 650 -378 q 600 -328 612 -349 q 588 -275 588 -307 q 603 -215 588 -242 q 642 -168 617 -189 q 698 -132 666 -147 q 765 -107 730 -117 q 836 -92 800 -97 q 904 -84 871 -86 l 904 -138 q 745 -181 799 -148 q 692 -278 692 -214 q 706 -329 692 -309 q 751 -365 720 -349 z "},"ꦈ":{"ha":1316,"x_min":104,"x_max":1468,"o":"m 1069 0 l 1069 455 q 1064 518 1069 492 q 1047 562 1059 545 q 1013 588 1034 579 q 961 596 992 596 q 873 564 901 596 q 846 453 846 531 l 792 453 q 767 562 792 527 q 685 596 742 596 q 638 589 656 596 q 609 569 620 581 q 594 543 599 557 q 590 515 590 528 q 602 460 590 491 q 548 444 576 448 q 537 482 541 463 q 533 517 533 500 q 541 564 533 541 q 567 607 549 588 q 615 638 585 627 q 687 650 644 650 q 768 633 736 650 q 821 587 800 616 l 825 587 q 883 636 848 622 q 978 650 919 650 q 1070 641 1030 650 q 1138 607 1111 631 q 1180 544 1166 583 q 1194 446 1194 505 l 1194 0 l 1069 0 m 438 151 q 445 100 438 119 q 469 70 452 81 q 512 56 485 60 q 579 53 539 53 q 642 53 613 53 q 700 54 671 53 l 701 56 q 670 89 686 73 q 635 117 655 104 q 587 136 614 129 q 521 143 559 143 l 521 197 q 592 191 562 197 q 645 174 623 184 q 685 151 668 163 q 716 125 702 138 q 758 90 741 103 q 793 68 774 76 q 836 57 811 60 q 900 54 861 54 l 900 0 q 830 -1 864 -1 q 761 -1 797 -1 q 685 -1 725 -1 q 597 -1 645 -1 q 468 1 522 -1 q 380 19 414 4 q 330 64 346 34 q 314 151 314 95 l 314 513 q 312 554 314 538 q 304 580 309 570 q 292 593 300 589 q 274 596 285 596 q 239 587 256 596 q 209 555 222 577 q 188 496 195 532 q 180 406 180 460 l 180 203 q 184 138 180 164 q 199 94 189 113 q 226 62 210 75 q 267 34 243 48 q 256 10 264 21 q 237 -9 249 -1 q 183 25 205 7 q 147 67 161 44 q 128 121 134 91 q 122 190 122 151 l 122 399 q 124 458 122 428 q 133 515 126 488 q 151 568 139 543 q 184 611 163 593 q 234 640 204 629 q 306 650 264 650 q 361 644 337 650 q 403 621 386 637 q 429 577 420 604 q 438 509 438 550 l 438 151 m 1194 14 l 1194 -19 q 1170 -191 1194 -111 q 1105 -343 1147 -271 q 1005 -481 1063 -416 q 877 -609 947 -547 q 729 -732 808 -671 q 568 -857 650 -793 q 398 -988 473 -928 q 271 -1096 323 -1047 q 191 -1183 219 -1144 q 163 -1254 163 -1222 q 171 -1280 163 -1270 q 196 -1290 179 -1290 q 273 -1266 222 -1290 q 394 -1207 323 -1243 q 551 -1131 464 -1172 q 738 -1054 638 -1090 q 946 -995 837 -1019 q 1168 -972 1055 -972 q 1250 -975 1208 -972 q 1329 -985 1291 -979 q 1403 -1000 1368 -991 q 1468 -1019 1438 -1008 q 1461 -1045 1465 -1034 q 1450 -1067 1457 -1057 q 1403 -1053 1431 -1060 q 1340 -1040 1375 -1046 q 1263 -1030 1305 -1034 q 1173 -1026 1221 -1026 q 948 -1050 1056 -1026 q 744 -1109 840 -1074 q 563 -1187 647 -1145 q 408 -1264 478 -1228 q 281 -1324 337 -1300 q 187 -1348 226 -1348 q 157 -1343 172 -1348 q 131 -1325 142 -1338 q 111 -1291 119 -1313 q 104 -1234 104 -1268 q 124 -1127 104 -1178 q 180 -1029 144 -1077 q 269 -934 217 -981 q 385 -840 321 -887 q 524 -743 450 -792 q 682 -640 599 -694 q 820 -550 760 -589 q 922 -474 879 -510 q 994 -403 965 -438 q 1039 -325 1022 -368 q 1063 -229 1056 -282 q 1069 -105 1069 -176 l 1069 14 l 1194 14 z "},"ꦉ":{"ha":1316,"x_min":122,"x_max":1194,"o":"m 1194 0 l 1069 0 l 1069 486 q 1066 545 1069 523 q 1056 578 1063 566 q 1037 593 1049 589 q 1006 596 1025 596 q 977 593 989 596 q 957 583 965 591 q 945 562 949 576 q 941 524 941 547 l 941 149 q 926 61 941 93 q 876 14 910 30 q 788 -6 842 -2 q 656 -9 734 -9 q 489 -5 555 -9 q 384 16 422 0 q 329 63 345 33 q 314 146 314 94 l 314 513 q 312 554 314 538 q 304 580 309 570 q 292 593 300 589 q 274 596 285 596 q 239 587 256 596 q 209 555 222 577 q 188 496 195 532 q 180 406 180 460 l 180 203 q 184 138 180 164 q 199 94 189 113 q 226 62 210 75 q 267 34 243 48 q 256 10 264 21 q 237 -9 249 -1 q 183 25 205 7 q 147 67 161 44 q 128 121 134 91 q 122 190 122 151 l 122 399 q 124 458 122 428 q 133 515 126 488 q 151 568 139 543 q 184 611 163 593 q 234 640 204 629 q 306 650 264 650 q 361 644 337 650 q 403 621 386 637 q 429 577 420 604 q 438 509 438 550 l 438 146 q 448 91 438 111 q 483 60 458 71 q 550 47 508 50 q 654 45 591 45 q 768 48 724 45 q 839 61 813 51 q 874 93 864 72 q 884 149 884 113 l 884 519 q 892 586 884 561 q 919 626 901 612 q 964 645 937 640 q 1029 650 991 650 q 1104 644 1072 650 q 1155 618 1135 637 q 1184 565 1175 599 q 1194 478 1194 532 l 1194 0 m 732 -703 q 723 -560 730 -618 q 705 -463 716 -502 q 679 -402 694 -425 q 645 -369 664 -380 q 605 -353 627 -357 q 558 -346 583 -349 q 491 -334 522 -342 q 438 -313 460 -326 q 404 -281 416 -300 q 391 -236 391 -262 q 406 -183 391 -207 q 448 -143 421 -159 q 510 -117 474 -126 q 589 -108 547 -108 q 596 -108 590 -108 q 607 -109 602 -108 l 607 -163 q 601 -162 604 -162 q 597 -162 597 -162 q 537 -182 559 -162 q 515 -232 515 -203 q 523 -261 515 -250 q 544 -280 531 -273 q 572 -291 556 -287 q 605 -296 588 -294 q 652 -306 626 -299 q 706 -328 679 -312 q 759 -370 733 -343 q 806 -441 785 -397 q 841 -550 827 -486 q 856 -703 854 -614 l 732 -703 z "},"ꦊ":{"ha":1316,"x_min":107,"x_max":1432,"o":"m 1069 0 l 1069 455 q 1064 518 1069 492 q 1047 562 1059 545 q 1013 588 1034 579 q 961 596 992 596 q 873 564 901 596 q 846 453 846 531 l 792 453 q 767 562 792 527 q 685 596 742 596 q 638 589 656 596 q 609 569 620 581 q 594 543 599 557 q 590 515 590 528 q 602 460 590 491 q 548 444 576 448 q 537 482 541 463 q 533 517 533 500 q 541 564 533 541 q 567 607 549 588 q 615 638 585 627 q 687 650 644 650 q 768 633 736 650 q 821 587 800 616 l 825 587 q 883 636 848 622 q 978 650 919 650 q 1070 641 1030 650 q 1138 607 1111 631 q 1180 544 1166 583 q 1194 446 1194 505 l 1194 0 l 1069 0 m 438 151 q 445 100 438 119 q 469 70 452 81 q 512 56 485 60 q 579 53 539 53 q 642 53 613 53 q 700 54 671 53 l 701 56 q 670 89 686 73 q 635 117 655 104 q 587 136 614 129 q 521 143 559 143 l 521 197 q 592 191 562 197 q 645 174 623 184 q 685 151 668 163 q 716 125 702 138 q 758 90 741 103 q 793 68 774 76 q 836 57 811 60 q 900 54 861 54 l 900 0 q 830 -1 864 -1 q 761 -1 797 -1 q 685 -1 725 -1 q 597 -1 645 -1 q 468 1 522 -1 q 380 19 414 4 q 330 64 346 34 q 314 151 314 95 l 314 513 q 312 554 314 538 q 304 580 309 570 q 292 593 300 589 q 274 596 285 596 q 239 587 256 596 q 209 555 222 577 q 188 496 195 532 q 180 406 180 460 l 180 203 q 184 138 180 164 q 199 94 189 113 q 226 62 210 75 q 267 34 243 48 q 256 10 264 21 q 237 -9 249 -1 q 183 25 205 7 q 147 67 161 44 q 128 121 134 91 q 122 190 122 151 l 122 399 q 124 458 122 428 q 133 515 126 488 q 151 568 139 543 q 184 611 163 593 q 234 640 204 629 q 306 650 264 650 q 361 644 337 650 q 403 621 386 637 q 429 577 420 604 q 438 509 438 550 l 438 151 m 1069 14 l 1194 14 l 1194 -297 q 1266 -268 1236 -283 q 1317 -235 1296 -253 q 1353 -196 1338 -218 q 1379 -144 1367 -174 q 1407 -149 1392 -144 q 1432 -160 1421 -153 q 1398 -244 1420 -208 q 1346 -310 1377 -281 q 1277 -362 1316 -339 q 1194 -403 1238 -385 l 1194 -1090 q 1174 -1217 1194 -1164 q 1119 -1304 1154 -1270 q 1036 -1353 1084 -1337 q 935 -1369 989 -1369 q 848 -1358 885 -1369 q 780 -1335 811 -1348 q 722 -1313 749 -1323 q 663 -1302 694 -1302 q 606 -1313 631 -1302 q 552 -1335 581 -1323 q 489 -1358 524 -1348 q 404 -1369 454 -1369 q 275 -1343 331 -1369 q 182 -1270 220 -1317 q 126 -1158 145 -1223 q 107 -1013 107 -1092 q 135 -834 107 -913 q 213 -695 163 -756 q 330 -587 263 -633 q 475 -506 397 -541 q 638 -445 553 -471 q 808 -397 723 -418 q 943 -365 877 -380 q 1069 -332 1008 -349 l 1069 14 m 832 -506 q 660 -546 744 -524 q 502 -598 576 -568 q 366 -666 428 -627 q 259 -757 304 -705 q 190 -877 214 -809 q 165 -1031 165 -945 q 182 -1153 165 -1101 q 230 -1241 199 -1206 q 307 -1295 262 -1277 q 406 -1314 351 -1314 q 486 -1303 452 -1314 q 550 -1280 521 -1293 q 606 -1258 579 -1268 q 664 -1247 633 -1247 q 723 -1258 694 -1247 q 782 -1280 751 -1268 q 844 -1303 812 -1293 q 916 -1314 877 -1314 q 982 -1301 954 -1314 q 1030 -1261 1011 -1289 q 1060 -1192 1050 -1234 q 1069 -1090 1069 -1149 l 1069 -445 q 832 -506 960 -479 z "},"ꦋ":{"ha":1316,"x_min":107,"x_max":1567,"o":"m 1069 455 q 1064 518 1069 492 q 1047 562 1059 545 q 1013 588 1034 579 q 961 596 992 596 q 873 564 901 596 q 846 453 846 531 l 792 453 q 767 562 792 527 q 685 596 742 596 q 638 589 656 596 q 609 569 620 581 q 594 543 599 557 q 590 515 590 528 q 602 460 590 491 q 548 444 576 448 q 537 482 541 463 q 533 517 533 500 q 541 564 533 541 q 567 607 549 588 q 615 638 585 627 q 687 650 644 650 q 768 633 736 650 q 821 587 800 616 l 825 587 q 883 636 848 622 q 978 650 919 650 q 1070 641 1030 650 q 1138 607 1111 631 q 1180 544 1166 583 q 1194 446 1194 505 l 1194 -294 q 1342 -313 1278 -297 q 1450 -353 1407 -328 q 1514 -411 1493 -378 q 1536 -483 1536 -444 q 1511 -559 1536 -527 q 1449 -608 1486 -591 l 1449 -614 q 1539 -682 1512 -638 q 1567 -784 1567 -726 q 1552 -866 1567 -830 q 1512 -925 1537 -901 q 1454 -962 1487 -949 q 1382 -975 1420 -975 q 1318 -966 1349 -975 q 1257 -942 1287 -957 q 1265 -916 1260 -928 q 1280 -892 1270 -903 q 1325 -910 1303 -904 q 1369 -917 1347 -917 q 1442 -883 1416 -917 q 1468 -788 1468 -848 q 1460 -729 1468 -755 q 1436 -684 1452 -703 q 1394 -654 1419 -665 q 1335 -644 1369 -644 l 1335 -589 q 1414 -568 1388 -589 q 1440 -508 1440 -546 q 1381 -425 1440 -453 q 1194 -393 1322 -397 l 1194 -1090 q 1174 -1217 1194 -1164 q 1119 -1304 1154 -1270 q 1036 -1353 1084 -1337 q 935 -1369 989 -1369 q 848 -1358 885 -1369 q 780 -1335 811 -1348 q 722 -1313 749 -1323 q 663 -1302 694 -1302 q 606 -1313 631 -1302 q 552 -1335 581 -1323 q 489 -1358 524 -1348 q 404 -1369 454 -1369 q 275 -1343 331 -1369 q 182 -1270 220 -1317 q 126 -1158 145 -1223 q 107 -1013 107 -1092 q 149 -809 107 -903 q 262 -638 191 -715 q 428 -501 333 -561 q 630 -398 524 -441 q 850 -329 737 -355 q 1069 -296 963 -304 l 1069 455 m 165 -1025 q 182 -1151 165 -1097 q 230 -1241 199 -1204 q 307 -1295 262 -1277 q 406 -1314 351 -1314 q 486 -1303 452 -1314 q 550 -1280 521 -1293 q 606 -1258 579 -1268 q 664 -1247 633 -1247 q 723 -1258 694 -1247 q 782 -1280 751 -1268 q 844 -1303 812 -1293 q 916 -1314 877 -1314 q 982 -1301 954 -1314 q 1030 -1261 1011 -1289 q 1060 -1192 1050 -1234 q 1069 -1090 1069 -1149 l 1069 -395 q 835 -427 949 -402 q 620 -491 721 -451 q 436 -586 519 -531 q 292 -708 353 -641 q 198 -856 232 -776 q 165 -1025 165 -936 m 438 151 q 445 100 438 119 q 469 70 452 81 q 512 56 485 60 q 579 53 539 53 q 642 53 613 53 q 700 54 671 53 l 701 56 q 670 89 686 73 q 635 117 655 104 q 587 136 614 129 q 521 143 559 143 l 521 197 q 592 191 562 197 q 645 174 623 184 q 685 151 668 163 q 716 125 702 138 q 758 90 741 103 q 793 68 774 76 q 836 57 811 60 q 900 54 861 54 l 900 0 q 830 -1 864 -1 q 761 -1 797 -1 q 685 -1 725 -1 q 597 -1 645 -1 q 468 1 522 -1 q 380 19 414 4 q 330 64 346 34 q 314 151 314 95 l 314 513 q 312 554 314 538 q 304 580 309 570 q 292 593 300 589 q 274 596 285 596 q 239 587 256 596 q 209 555 222 577 q 188 496 195 532 q 180 406 180 460 l 180 203 q 184 138 180 164 q 199 94 189 113 q 226 62 210 75 q 267 34 243 48 q 256 10 264 21 q 237 -9 249 -1 q 183 25 205 7 q 147 67 161 44 q 128 121 134 91 q 122 190 122 151 l 122 399 q 124 458 122 428 q 133 515 126 488 q 151 568 139 543 q 184 611 163 593 q 234 640 204 629 q 306 650 264 650 q 361 644 337 650 q 403 621 386 637 q 429 577 420 604 q 438 509 438 550 l 438 151 z "},"ꦌ":{"ha":1119,"x_min":95,"x_max":1133,"o":"m 474 479 q 524 494 503 484 q 557 516 545 504 q 575 542 570 528 q 581 568 581 555 q 574 590 581 581 q 548 599 566 599 q 486 576 522 599 q 412 515 450 553 q 338 427 374 477 q 272 325 301 378 q 226 220 243 272 q 208 124 208 168 q 211 98 208 111 q 225 75 214 85 q 255 59 235 65 q 308 53 275 53 q 369 57 336 53 q 433 68 402 62 q 491 80 465 74 q 534 90 518 86 q 576 99 549 93 q 636 112 603 106 q 708 123 670 119 q 787 128 747 128 q 912 112 851 128 q 1022 57 974 96 q 1100 -48 1070 18 q 1133 -215 1131 -115 q 1106 -221 1119 -220 q 1079 -223 1093 -223 q 1026 -88 1061 -144 q 946 4 991 -32 q 847 57 900 40 q 743 74 795 74 q 681 69 713 74 q 616 57 649 64 q 551 41 583 50 q 490 24 519 33 q 377 -5 433 8 q 271 -19 321 -19 q 189 -6 222 -19 q 135 31 155 7 q 104 84 114 54 q 95 151 95 115 q 118 274 95 213 q 180 392 142 336 q 267 496 218 448 q 367 579 316 544 q 468 634 418 614 q 555 654 517 654 q 595 647 578 654 q 622 629 612 640 q 637 602 633 617 q 642 570 642 586 q 628 515 642 540 q 592 471 614 490 q 542 440 570 452 q 485 425 513 429 q 477 451 479 437 q 474 479 474 464 z "},"ꦍ":{"ha":1119,"x_min":95,"x_max":1133,"o":"m 474 479 q 524 494 503 484 q 557 516 545 504 q 575 542 570 528 q 581 568 581 555 q 574 590 581 581 q 548 599 566 599 q 486 576 522 599 q 412 515 450 553 q 338 427 374 477 q 272 325 301 378 q 226 220 243 272 q 208 124 208 168 q 211 98 208 111 q 225 75 214 85 q 255 59 235 65 q 308 53 275 53 q 369 57 336 53 q 433 68 402 62 q 491 80 465 74 q 534 90 518 86 q 576 99 549 93 q 636 112 603 106 q 708 123 670 119 q 787 128 747 128 q 912 112 851 128 q 1022 57 974 96 q 1100 -48 1070 18 q 1133 -215 1131 -115 q 1106 -221 1119 -220 q 1079 -223 1093 -223 q 1026 -88 1061 -144 q 946 4 991 -32 q 847 57 900 40 q 743 74 795 74 q 681 69 713 74 q 616 57 649 64 q 551 41 583 50 q 490 24 519 33 q 377 -5 433 8 q 271 -19 321 -19 q 189 -6 222 -19 q 135 31 155 7 q 104 84 114 54 q 95 151 95 115 q 118 274 95 213 q 180 392 142 336 q 267 496 218 448 q 367 579 316 544 q 468 634 418 614 q 555 654 517 654 q 595 647 578 654 q 622 629 612 640 q 637 602 633 617 q 642 570 642 586 q 628 515 642 540 q 592 471 614 490 q 542 440 570 452 q 485 425 513 429 q 477 451 479 437 q 474 479 474 464 m 627 1093 q 670 1073 646 1083 q 714 1046 693 1062 q 749 1007 735 1030 q 764 947 764 983 q 749 883 764 912 q 708 832 734 854 q 649 792 683 809 q 578 765 615 776 q 502 747 541 753 q 427 739 463 741 l 427 793 q 603 843 546 804 q 660 954 660 882 q 656 986 660 972 q 644 1011 652 1000 q 623 1031 635 1022 q 591 1049 610 1040 q 549 1069 572 1059 q 508 1095 527 1080 q 477 1131 489 1109 q 465 1183 465 1152 q 479 1243 465 1216 q 518 1290 494 1270 q 574 1326 543 1311 q 642 1351 606 1341 q 712 1367 677 1361 q 781 1374 748 1372 l 781 1320 q 622 1277 675 1310 q 568 1180 568 1244 q 582 1129 568 1149 q 627 1093 596 1109 z "},"ꦎ":{"ha":1316,"x_min":104,"x_max":1468,"o":"m 705 641 q 764 642 734 642 q 824 643 795 642 q 878 643 853 643 q 921 643 903 643 q 1059 636 1006 643 q 1142 608 1112 629 q 1183 549 1172 587 q 1194 450 1194 511 l 1194 0 l 1069 0 l 1069 446 q 1062 526 1069 497 q 1039 569 1055 555 q 995 586 1022 583 q 926 589 967 589 q 911 589 922 589 q 890 588 901 589 l 889 585 q 922 549 910 570 q 941 504 935 528 q 949 453 947 479 q 951 401 951 427 l 951 176 q 936 73 951 110 q 884 17 920 35 q 793 -5 849 -1 q 655 -9 736 -9 q 482 -4 550 -9 q 375 21 414 1 q 319 80 335 41 q 304 187 304 119 l 304 334 q 305 402 304 367 q 313 471 306 437 q 334 535 319 505 q 376 589 349 565 l 376 591 q 282 581 320 591 q 222 545 245 570 q 190 481 199 521 q 180 382 180 441 l 180 203 q 184 138 180 164 q 199 94 189 113 q 226 62 210 75 q 267 34 243 48 q 256 10 264 21 q 237 -9 249 -1 q 183 25 205 7 q 147 67 161 44 q 128 121 134 91 q 122 190 122 151 l 122 374 q 135 497 122 446 q 180 582 149 549 q 264 630 212 614 q 394 645 316 645 q 416 645 402 645 q 447 645 430 645 q 482 643 464 644 q 517 641 500 642 l 517 589 q 469 548 486 575 q 442 486 451 521 q 430 412 433 451 q 428 337 428 374 l 428 187 q 438 108 428 136 q 473 65 448 79 q 541 48 498 52 q 649 45 584 45 q 772 48 725 45 q 847 65 820 52 q 884 104 874 78 q 894 176 894 131 l 894 401 q 889 474 894 440 q 868 533 884 508 q 819 573 851 558 q 732 587 787 587 q 719 587 723 587 q 705 587 715 587 l 705 641 m 1194 14 l 1194 -19 q 1170 -191 1194 -111 q 1105 -343 1147 -271 q 1005 -481 1063 -416 q 877 -609 947 -547 q 729 -732 808 -671 q 568 -857 650 -793 q 398 -988 473 -928 q 271 -1096 323 -1047 q 191 -1183 219 -1144 q 163 -1254 163 -1222 q 171 -1280 163 -1270 q 196 -1290 179 -1290 q 273 -1266 222 -1290 q 394 -1207 323 -1243 q 551 -1131 464 -1172 q 738 -1054 638 -1090 q 946 -995 837 -1019 q 1168 -972 1055 -972 q 1250 -975 1208 -972 q 1329 -985 1291 -979 q 1403 -1000 1368 -991 q 1468 -1019 1438 -1008 q 1461 -1045 1465 -1034 q 1450 -1067 1457 -1057 q 1403 -1053 1431 -1060 q 1340 -1040 1375 -1046 q 1263 -1030 1305 -1034 q 1173 -1026 1221 -1026 q 948 -1050 1056 -1026 q 744 -1109 840 -1074 q 563 -1187 647 -1145 q 408 -1264 478 -1228 q 281 -1324 337 -1300 q 187 -1348 226 -1348 q 157 -1343 172 -1348 q 131 -1325 142 -1338 q 111 -1291 119 -1313 q 104 -1234 104 -1268 q 124 -1127 104 -1178 q 180 -1029 144 -1077 q 269 -934 217 -981 q 385 -840 321 -887 q 524 -743 450 -792 q 682 -640 599 -694 q 820 -550 760 -589 q 922 -474 879 -510 q 994 -403 965 -438 q 1039 -325 1022 -368 q 1063 -229 1056 -282 q 1069 -105 1069 -176 l 1069 14 l 1194 14 z "},"ꦏ":{"ha":1682,"x_min":122,"x_max":1560,"o":"m 431 0 l 307 0 l 307 513 q 305 554 307 538 q 298 580 303 570 q 287 593 294 589 q 269 596 279 596 q 236 587 252 596 q 207 555 220 577 q 187 496 195 532 q 180 406 180 460 l 180 203 q 184 138 180 164 q 198 94 188 113 q 223 62 208 75 q 260 34 238 48 q 250 10 257 21 q 230 -9 242 -1 q 179 25 199 7 q 146 67 159 44 q 127 121 133 91 q 122 190 122 151 l 122 399 q 124 458 122 428 q 132 516 126 488 q 150 568 138 544 q 182 611 162 593 q 232 640 203 629 q 302 650 261 650 q 357 644 333 650 q 397 621 380 637 q 422 577 414 604 q 431 509 431 550 l 431 300 q 525 294 476 300 q 622 277 574 288 l 622 464 q 636 561 622 524 q 680 617 650 597 q 758 644 710 637 q 874 650 806 650 q 985 644 935 650 q 1072 618 1036 638 q 1128 558 1108 597 q 1149 454 1149 519 l 1149 85 q 1157 54 1149 63 q 1190 45 1166 45 q 1227 56 1219 45 q 1236 85 1236 67 l 1236 404 q 1235 465 1236 432 q 1227 530 1234 498 q 1205 589 1220 562 q 1162 633 1190 616 l 1162 637 q 1251 642 1209 640 q 1325 643 1292 643 q 1433 635 1388 643 q 1506 606 1478 628 q 1547 543 1534 584 q 1560 437 1560 503 l 1560 0 l 1436 0 l 1436 443 q 1430 520 1436 491 q 1409 564 1423 549 q 1372 584 1395 579 q 1314 589 1349 589 q 1293 588 1307 589 q 1267 587 1278 588 l 1267 585 q 1282 545 1277 567 q 1291 500 1288 524 q 1294 454 1293 477 q 1294 408 1294 430 l 1294 87 q 1285 37 1294 56 q 1261 8 1277 18 q 1221 -6 1244 -3 q 1166 -9 1197 -9 q 1099 -5 1126 -9 q 1055 11 1072 0 q 1032 41 1039 22 q 1025 89 1025 60 l 1025 463 q 1017 533 1025 507 q 990 573 1009 559 q 939 592 970 587 q 859 596 907 596 q 777 592 811 596 q 722 574 743 587 q 690 535 700 560 q 680 467 680 509 l 680 261 q 744 232 714 249 q 797 194 774 215 q 832 146 819 172 q 845 90 845 121 q 838 50 845 69 q 818 15 831 30 q 782 -10 804 -1 q 729 -19 760 -19 q 684 -12 704 -19 q 651 10 665 -5 q 629 49 637 25 q 622 107 622 73 l 622 222 q 536 241 583 233 q 431 250 488 248 l 431 0 m 723 45 q 754 57 741 45 q 768 94 768 68 q 746 151 768 123 q 680 201 723 179 l 680 99 q 683 73 680 83 q 693 56 687 62 q 707 47 699 50 q 723 45 715 45 z "},"ꦐ":{"ha":1682,"x_min":122,"x_max":1560,"o":"m 431 0 l 307 0 l 307 513 q 305 554 307 538 q 298 580 303 570 q 287 593 294 589 q 269 596 279 596 q 236 587 252 596 q 207 555 220 577 q 187 496 195 532 q 180 406 180 460 l 180 203 q 184 138 180 164 q 198 94 188 113 q 223 62 208 75 q 260 34 238 48 q 250 10 257 21 q 230 -9 242 -1 q 179 25 199 7 q 146 67 159 44 q 127 121 133 91 q 122 190 122 151 l 122 399 q 124 458 122 428 q 132 516 126 488 q 150 568 138 544 q 182 611 162 593 q 232 640 203 629 q 302 650 261 650 q 357 644 333 650 q 397 621 380 637 q 422 577 414 604 q 431 509 431 550 l 431 300 q 525 294 476 300 q 622 277 574 288 l 622 464 q 636 561 622 524 q 680 617 650 597 q 758 644 710 637 q 874 650 806 650 q 985 644 935 650 q 1072 618 1036 638 q 1128 558 1108 597 q 1149 454 1149 519 l 1149 85 q 1157 54 1149 63 q 1190 45 1166 45 q 1227 56 1219 45 q 1236 85 1236 67 l 1236 404 q 1235 465 1236 432 q 1227 530 1234 498 q 1205 589 1220 562 q 1162 633 1190 616 l 1162 637 q 1251 642 1209 640 q 1325 643 1292 643 q 1433 635 1388 643 q 1506 606 1478 628 q 1547 543 1534 584 q 1560 437 1560 503 l 1560 0 l 1436 0 l 1436 443 q 1430 520 1436 491 q 1409 564 1423 549 q 1372 584 1395 579 q 1314 589 1349 589 q 1293 588 1307 589 q 1267 587 1278 588 l 1267 585 q 1282 545 1277 567 q 1291 500 1288 524 q 1294 454 1293 477 q 1294 408 1294 430 l 1294 87 q 1285 37 1294 56 q 1261 8 1277 18 q 1221 -6 1244 -3 q 1166 -9 1197 -9 q 1099 -5 1126 -9 q 1055 11 1072 0 q 1032 41 1039 22 q 1025 89 1025 60 l 1025 463 q 1017 533 1025 507 q 990 573 1009 559 q 939 592 970 587 q 859 596 907 596 q 777 592 811 596 q 722 574 743 587 q 690 535 700 560 q 680 467 680 509 l 680 261 q 744 232 714 249 q 797 194 774 215 q 832 146 819 172 q 845 90 845 121 q 838 50 845 69 q 818 15 831 30 q 782 -10 804 -1 q 729 -19 760 -19 q 684 -12 704 -19 q 651 10 665 -5 q 629 49 637 25 q 622 107 622 73 l 622 222 q 536 241 583 233 q 431 250 488 248 l 431 0 m 723 45 q 754 57 741 45 q 768 94 768 68 q 746 151 768 123 q 680 201 723 179 l 680 99 q 683 73 680 83 q 693 56 687 62 q 707 47 699 50 q 723 45 715 45 m 904 -703 q 895 -560 902 -618 q 877 -463 888 -502 q 851 -402 866 -425 q 818 -369 836 -380 q 777 -353 799 -357 q 730 -346 755 -349 q 663 -334 694 -342 q 611 -313 633 -326 q 576 -281 589 -300 q 564 -236 564 -262 q 578 -183 564 -207 q 620 -143 593 -159 q 683 -117 646 -126 q 762 -108 719 -108 q 768 -108 762 -108 q 779 -109 774 -108 l 779 -163 q 773 -162 776 -162 q 769 -162 770 -162 q 709 -182 731 -162 q 688 -232 688 -203 q 695 -261 688 -250 q 716 -280 703 -273 q 744 -291 728 -287 q 777 -296 760 -294 q 825 -306 798 -299 q 878 -328 851 -312 q 931 -370 905 -343 q 979 -441 958 -397 q 1013 -550 1000 -486 q 1028 -703 1026 -614 l 904 -703 z "},"ꦑ":{"ha":1499,"x_min":122,"x_max":1510,"o":"m 431 0 l 307 0 l 307 513 q 305 554 307 538 q 298 580 303 570 q 287 593 294 589 q 269 596 279 596 q 236 587 252 596 q 207 555 220 577 q 187 496 195 532 q 180 406 180 460 l 180 203 q 184 138 180 164 q 198 94 188 113 q 223 62 208 75 q 260 34 238 48 q 250 10 257 21 q 230 -9 242 -1 q 179 25 199 7 q 146 67 159 44 q 127 121 133 91 q 122 190 122 151 l 122 399 q 124 458 122 428 q 132 516 126 488 q 150 568 138 544 q 182 611 162 593 q 232 640 203 629 q 302 650 261 650 q 357 644 333 650 q 397 621 380 637 q 422 577 414 604 q 431 509 431 550 l 431 300 q 525 294 476 300 q 622 277 573 288 l 622 464 q 636 561 622 524 q 680 617 650 597 q 758 644 710 637 q 874 650 806 650 q 985 644 935 650 q 1072 618 1036 638 q 1128 558 1108 597 q 1149 454 1149 519 l 1149 89 q 1155 57 1149 64 q 1173 49 1162 49 q 1199 62 1188 49 q 1218 101 1209 76 q 1237 164 1227 127 q 1262 249 1247 201 q 1292 335 1275 290 q 1334 424 1310 379 q 1392 511 1358 468 q 1473 594 1426 555 q 1492 579 1482 588 q 1510 554 1501 570 q 1436 476 1467 517 q 1382 395 1404 436 q 1344 313 1360 354 q 1316 232 1329 271 q 1285 125 1298 172 q 1255 46 1272 78 q 1212 -2 1238 14 q 1140 -19 1185 -19 q 1054 10 1084 -19 q 1025 107 1025 39 l 1025 463 q 1017 533 1025 507 q 990 573 1009 559 q 939 592 970 587 q 859 596 907 596 q 777 592 811 596 q 722 574 743 587 q 690 535 700 560 q 680 467 680 509 l 680 261 q 744 232 714 249 q 797 194 774 215 q 832 146 819 172 q 845 90 845 121 q 838 50 845 69 q 818 15 831 30 q 782 -10 804 -1 q 729 -19 760 -19 q 684 -12 704 -19 q 651 10 665 -5 q 629 49 637 25 q 622 107 622 73 l 622 221 q 536 240 583 233 q 431 250 488 248 l 431 0 m 723 45 q 754 57 741 45 q 768 94 768 68 q 746 151 768 123 q 680 201 723 179 l 680 99 q 683 73 680 83 q 693 56 687 62 q 707 47 699 50 q 723 45 715 45 z "},"ꦒ":{"ha":1682,"x_min":102,"x_max":1560,"o":"m 1560 0 l 1436 0 l 1436 496 q 1430 547 1436 527 q 1411 577 1424 566 q 1374 592 1397 588 q 1316 596 1351 596 q 1258 592 1282 596 q 1219 578 1234 589 q 1196 549 1203 568 q 1188 500 1188 530 l 1188 87 q 1180 37 1188 56 q 1155 8 1171 18 q 1115 -6 1139 -3 q 1059 -9 1090 -9 q 992 -5 1019 -9 q 949 11 966 0 q 926 41 933 22 q 919 89 919 60 l 919 496 q 913 547 919 527 q 893 577 907 566 q 856 592 880 588 q 798 596 833 596 q 739 592 763 596 q 699 578 714 589 q 675 549 683 568 q 668 500 668 530 l 668 87 q 660 37 668 56 q 635 8 651 18 q 595 -6 618 -3 q 541 -9 572 -9 q 476 -5 503 -9 q 434 11 450 0 q 411 41 418 22 q 404 89 404 60 l 404 399 q 398 461 404 436 q 379 502 391 486 q 348 524 366 517 q 305 530 329 530 q 246 518 273 530 q 200 478 219 506 q 170 405 180 450 q 159 294 159 360 q 168 199 159 238 q 192 133 176 159 q 231 92 208 107 q 286 71 255 77 q 271 20 286 39 q 142 105 182 37 q 102 296 102 174 q 115 423 102 368 q 157 517 128 479 q 230 576 185 555 q 338 596 275 596 q 424 583 388 596 q 483 544 460 570 q 516 480 505 518 q 526 393 526 442 l 526 85 q 535 53 526 62 q 566 45 543 45 q 602 55 593 45 q 610 85 610 65 l 610 498 q 622 575 610 545 q 659 622 634 605 q 724 644 684 638 q 820 650 764 650 q 910 645 869 650 q 981 622 951 640 q 1027 573 1010 605 q 1043 487 1043 541 l 1043 85 q 1052 54 1043 63 q 1084 45 1061 45 q 1121 56 1112 45 q 1131 85 1131 67 l 1131 498 q 1142 575 1131 545 q 1179 622 1154 605 q 1244 644 1204 638 q 1339 650 1284 650 q 1428 645 1388 650 q 1498 622 1469 640 q 1544 573 1527 605 q 1560 487 1560 541 l 1560 0 z "},"ꦓ":{"ha":1682,"x_min":115,"x_max":1560,"o":"m 1560 0 l 1436 0 l 1436 425 q 1430 517 1436 484 q 1412 566 1425 551 q 1377 585 1398 582 q 1323 589 1356 589 q 1311 589 1320 589 q 1293 588 1301 589 l 1292 585 q 1325 549 1313 570 q 1344 504 1337 528 q 1352 453 1350 479 q 1354 401 1354 427 l 1354 123 q 1333 19 1354 57 q 1259 -19 1311 -19 q 1219 -11 1235 -19 q 1190 8 1202 -3 q 1179 19 1185 13 q 1167 32 1173 26 q 1153 41 1160 37 q 1135 45 1145 45 q 1106 35 1119 45 q 1084 17 1093 25 q 1068 4 1076 11 q 1047 -7 1059 -2 q 1020 -16 1036 -12 q 984 -19 1004 -19 q 874 20 908 -19 q 840 134 840 58 l 840 496 q 833 547 840 527 q 813 577 827 566 q 774 592 798 588 q 712 596 749 596 q 649 592 675 596 q 605 576 623 588 q 580 543 588 565 q 572 487 572 522 l 572 181 q 575 136 572 159 q 592 95 579 113 q 630 65 606 77 q 697 54 655 54 l 697 1 q 605 -1 648 -1 q 514 -2 562 -2 q 415 1 455 -2 q 351 17 375 4 q 317 55 328 29 q 307 125 307 80 l 307 465 q 305 507 307 490 q 298 532 302 523 q 286 545 293 542 q 267 549 278 549 q 232 539 249 549 q 202 507 215 530 q 181 449 189 485 q 173 359 173 412 l 173 203 q 178 138 173 164 q 193 94 182 113 q 219 62 203 75 q 260 34 236 48 q 250 10 257 21 q 230 -9 242 -1 q 176 25 198 7 q 140 67 154 44 q 121 121 127 91 q 115 190 115 151 l 115 351 q 117 410 115 380 q 126 468 119 440 q 144 520 132 496 q 177 564 157 545 q 227 592 197 582 q 299 603 257 603 q 355 596 330 603 q 396 573 379 589 q 422 530 413 557 q 431 462 431 503 l 431 180 q 433 112 431 137 q 443 74 434 87 q 470 57 452 60 q 522 53 488 53 q 540 53 528 53 q 559 54 552 53 l 560 56 q 533 85 543 68 q 520 121 524 102 q 515 160 515 140 q 514 197 514 180 l 514 484 q 527 569 514 536 q 566 620 539 602 q 634 644 593 638 q 733 650 675 650 q 827 645 785 650 q 900 622 869 640 q 947 573 930 605 q 964 487 964 541 l 964 126 q 977 63 964 81 q 1017 45 990 45 q 1054 55 1040 45 q 1082 77 1068 64 q 1110 99 1095 90 q 1148 109 1125 109 q 1189 97 1173 109 q 1217 74 1205 86 q 1239 53 1229 60 q 1261 45 1250 45 q 1289 64 1281 45 q 1297 119 1297 84 l 1297 401 q 1292 474 1297 440 q 1271 533 1287 508 q 1222 573 1254 558 q 1135 587 1190 587 l 1128 587 l 1128 641 q 1179 642 1153 642 q 1229 643 1205 642 q 1274 643 1253 643 q 1310 643 1295 643 q 1436 635 1388 643 q 1513 605 1485 628 q 1550 541 1540 583 q 1560 430 1560 499 l 1560 0 z "},"ꦔ":{"ha":1316,"x_min":122,"x_max":1194,"o":"m 1069 0 l 1069 455 q 1064 518 1069 492 q 1047 562 1059 545 q 1013 588 1034 579 q 961 596 992 596 q 873 564 901 596 q 846 453 846 531 l 792 453 q 767 562 792 527 q 685 596 742 596 q 638 589 656 596 q 609 569 620 581 q 594 543 599 557 q 590 515 590 528 q 602 460 590 491 q 548 444 576 448 q 537 482 541 463 q 533 517 533 500 q 541 564 533 541 q 567 607 549 588 q 615 638 585 627 q 687 650 644 650 q 768 633 736 650 q 821 587 800 616 l 825 587 q 883 636 848 622 q 978 650 919 650 q 1070 641 1030 650 q 1138 607 1111 631 q 1180 544 1166 583 q 1194 446 1194 505 l 1194 0 l 1069 0 m 438 151 q 445 100 438 119 q 469 70 452 81 q 512 56 485 60 q 579 53 539 53 q 642 53 613 53 q 700 54 671 53 l 701 56 q 670 89 686 73 q 635 117 655 104 q 587 136 614 129 q 521 143 559 143 l 521 197 q 592 191 562 197 q 645 174 623 184 q 685 151 668 163 q 716 125 702 138 q 758 90 741 103 q 793 68 774 76 q 836 57 811 60 q 900 54 861 54 l 900 0 q 830 -1 864 -1 q 761 -1 797 -1 q 685 -1 725 -1 q 597 -1 645 -1 q 468 1 522 -1 q 380 19 414 4 q 330 64 346 34 q 314 151 314 95 l 314 513 q 312 554 314 538 q 304 580 309 570 q 292 593 300 589 q 274 596 285 596 q 239 587 256 596 q 209 555 222 577 q 188 496 195 532 q 180 406 180 460 l 180 203 q 184 138 180 164 q 199 94 189 113 q 226 62 210 75 q 267 34 243 48 q 256 10 264 21 q 237 -9 249 -1 q 183 25 205 7 q 147 67 161 44 q 128 121 134 91 q 122 190 122 151 l 122 399 q 124 458 122 428 q 133 515 126 488 q 151 568 139 543 q 184 611 163 593 q 234 640 204 629 q 306 650 264 650 q 361 644 337 650 q 403 621 386 637 q 429 577 420 604 q 438 509 438 550 l 438 151 z "},"ꦕ":{"ha":1316,"x_min":122,"x_max":1194,"o":"m 1194 0 l 1069 0 l 1069 444 q 1063 524 1069 495 q 1043 568 1057 553 q 1006 585 1029 582 q 948 589 983 589 q 937 589 947 589 q 915 588 926 589 l 914 585 q 947 549 935 570 q 966 504 960 528 q 975 453 972 479 q 977 401 977 427 l 977 145 q 968 64 977 96 q 943 13 959 32 q 905 -13 927 -5 q 859 -20 884 -20 q 795 -8 823 -20 q 745 21 768 3 q 704 63 723 39 q 668 112 686 87 q 637 154 652 133 q 604 193 621 175 q 565 226 586 212 q 517 249 543 241 l 517 139 q 507 60 517 91 q 481 12 498 29 q 444 -13 465 -6 q 400 -19 423 -19 q 306 18 340 -19 q 273 130 273 56 q 304 247 273 202 q 393 305 335 291 l 393 513 q 389 555 393 538 q 374 580 384 571 q 350 593 365 589 q 316 596 336 596 q 258 588 283 596 q 215 558 233 579 q 189 500 198 536 q 180 407 180 463 l 180 203 q 184 135 180 161 q 197 91 188 109 q 220 59 205 73 q 256 32 235 46 q 245 8 252 19 q 225 -12 237 -3 q 176 24 196 5 q 144 66 157 43 q 127 120 132 90 q 122 190 122 151 l 122 408 q 123 458 122 431 q 131 512 125 485 q 151 564 138 539 q 190 608 165 589 q 252 639 214 627 q 345 650 290 650 q 415 644 383 650 q 469 621 447 637 q 504 577 492 604 q 517 509 517 550 l 517 306 q 583 279 553 297 q 636 239 612 262 q 680 191 660 216 q 718 142 700 165 q 749 101 734 120 q 781 67 764 82 q 815 44 798 52 q 854 35 833 35 q 890 45 877 35 q 909 71 903 55 q 917 109 916 87 q 919 153 919 130 l 919 401 q 915 476 919 442 q 893 535 910 511 q 841 573 876 559 q 746 587 806 587 q 743 587 745 587 q 730 587 740 587 l 730 641 q 790 642 759 642 q 849 643 821 642 q 900 643 878 643 q 935 643 923 643 q 1065 636 1015 643 q 1144 608 1116 629 q 1183 548 1173 587 q 1194 448 1194 510 l 1194 0 m 330 136 q 340 81 330 98 q 368 64 351 64 q 387 74 378 64 q 395 111 395 83 l 395 250 q 346 209 362 238 q 330 136 330 180 z "},"ꦖ":{"ha":1682,"x_min":122,"x_max":1573,"o":"m 1472 336 q 1517 313 1497 327 q 1549 280 1536 299 q 1567 235 1561 260 q 1573 176 1573 209 q 1531 41 1573 85 q 1400 -3 1489 -3 q 1374 -2 1388 -3 q 1345 0 1360 -1 l 1345 58 q 1358 57 1351 58 q 1372 57 1366 57 q 1411 64 1396 57 q 1435 85 1426 71 q 1447 121 1444 99 q 1451 172 1451 142 q 1446 234 1451 209 q 1429 274 1441 258 q 1397 297 1417 290 q 1345 305 1377 304 l 1345 359 q 1380 364 1365 359 q 1407 385 1396 370 q 1423 426 1417 399 q 1428 492 1428 452 q 1425 541 1428 521 q 1413 573 1421 560 q 1391 591 1405 585 q 1357 596 1377 596 q 1333 593 1343 596 q 1314 583 1322 591 q 1302 560 1306 574 q 1297 522 1297 545 l 1297 94 q 1288 42 1297 62 q 1260 11 1278 22 q 1215 -5 1242 -1 q 1152 -9 1187 -9 q 1078 -4 1108 -9 q 1030 15 1048 2 q 1004 47 1012 27 q 996 96 996 67 l 996 494 q 993 547 996 526 q 983 578 990 567 q 965 592 977 589 q 936 596 954 596 q 908 593 920 596 q 890 583 897 591 q 879 560 882 574 q 876 522 876 545 l 876 94 q 866 42 876 62 q 838 11 857 22 q 793 -5 820 -1 q 730 -9 766 -9 q 656 -4 686 -9 q 608 15 627 2 q 582 47 590 27 q 574 96 574 67 l 574 494 q 571 547 574 526 q 562 578 568 567 q 543 592 555 589 q 514 596 532 596 q 487 593 498 596 q 468 583 475 591 q 457 560 460 574 q 454 522 454 545 l 454 142 q 442 68 454 98 q 411 19 431 38 q 363 -8 391 0 q 302 -16 335 -16 q 264 -13 284 -16 q 223 -2 243 -10 q 185 21 203 6 q 153 59 167 35 q 131 116 139 82 q 122 195 122 149 l 122 387 q 126 450 122 416 q 143 519 130 484 q 182 589 156 555 q 251 650 208 623 q 273 637 264 645 q 292 618 283 629 q 271 577 279 597 q 257 531 262 557 q 249 470 251 505 q 246 384 246 435 l 246 168 q 252 109 246 132 q 267 71 257 85 q 291 51 277 56 q 322 45 305 45 q 380 76 363 45 q 396 173 396 107 l 396 517 q 405 585 396 559 q 430 625 413 610 q 474 645 448 640 q 537 650 501 650 q 610 643 580 650 q 660 618 640 636 q 689 567 680 600 q 698 485 698 535 l 698 92 q 709 57 698 70 q 755 45 721 45 q 786 49 774 45 q 806 59 799 53 q 815 74 812 66 q 818 92 818 83 l 818 517 q 826 585 818 559 q 852 625 835 610 q 896 645 869 640 q 959 650 923 650 q 1032 643 1002 650 q 1082 618 1062 636 q 1111 567 1101 600 q 1120 485 1120 535 l 1120 92 q 1131 57 1120 70 q 1177 45 1143 45 q 1208 49 1196 45 q 1227 59 1221 53 q 1237 74 1234 66 q 1240 92 1240 83 l 1240 517 q 1249 584 1240 558 q 1276 625 1258 610 q 1321 645 1295 640 q 1384 650 1348 650 q 1459 643 1428 650 q 1511 619 1491 636 q 1541 574 1531 602 q 1551 503 1551 546 q 1530 400 1551 439 q 1472 339 1509 361 l 1472 336 z "},"ꦗ":{"ha":1316,"x_min":122,"x_max":1246,"o":"m 633 304 q 850 280 746 302 q 1036 219 954 258 q 1174 124 1118 179 q 1246 0 1229 68 l 1116 0 q 1077 81 1104 45 q 1010 145 1049 117 q 924 194 971 173 q 824 227 876 214 q 719 247 772 240 q 614 253 665 253 l 614 216 q 627 150 614 177 q 663 104 641 122 q 713 76 685 86 q 771 61 741 66 q 828 55 800 56 q 878 54 856 54 l 878 0 q 810 -1 842 -1 q 744 -1 778 -1 q 672 -1 710 -1 q 587 -1 633 -1 q 459 1 512 -1 q 372 19 406 4 q 323 64 338 34 q 307 151 307 95 l 307 511 q 305 553 307 536 q 298 579 303 570 q 286 592 294 589 q 268 596 279 596 q 236 587 252 596 q 207 557 220 578 q 187 500 195 536 q 180 410 180 464 l 180 203 q 184 138 180 164 q 199 94 189 113 q 226 62 210 75 q 267 34 243 48 q 256 10 264 21 q 237 -9 249 -1 q 183 25 205 7 q 147 67 161 44 q 128 121 134 91 q 122 190 122 151 l 122 403 q 127 490 122 446 q 150 570 132 534 q 202 628 168 606 q 298 650 237 650 q 353 644 328 650 q 395 620 377 637 q 422 576 412 604 q 431 507 431 549 l 431 151 q 438 100 431 119 q 461 70 445 81 q 504 56 477 60 q 571 53 531 53 q 594 53 580 53 q 633 54 608 53 l 633 56 q 574 125 591 87 q 556 208 556 163 l 556 352 q 580 473 556 418 q 650 567 604 528 q 762 629 696 607 q 911 650 828 650 q 1025 638 972 650 q 1119 604 1078 627 q 1190 549 1161 582 q 1232 474 1219 516 l 1230 468 q 1031 454 1122 467 q 865 420 940 441 q 732 370 791 399 q 631 307 673 340 l 633 304 m 1057 513 q 978 572 1028 553 q 870 591 927 591 q 767 574 814 591 q 685 526 720 557 q 630 451 650 495 q 607 353 610 408 q 1057 513 774 480 z "},"ꦘ":{"ha":1316,"x_min":122,"x_max":1246,"o":"m 633 304 q 850 280 746 302 q 1036 219 954 258 q 1174 124 1118 179 q 1246 0 1229 68 l 1116 0 q 1077 81 1104 45 q 1010 145 1049 117 q 924 194 971 173 q 824 227 876 214 q 719 247 772 240 q 614 253 665 253 l 614 216 q 627 150 614 177 q 663 104 641 122 q 713 76 685 86 q 771 61 741 66 q 828 55 800 56 q 878 54 856 54 l 878 0 q 810 -1 842 -1 q 744 -1 778 -1 q 672 -1 710 -1 q 587 -1 633 -1 q 459 1 512 -1 q 372 19 406 4 q 323 64 338 34 q 307 151 307 95 l 307 511 q 305 553 307 536 q 298 579 303 570 q 286 592 294 589 q 268 596 279 596 q 236 587 252 596 q 207 557 220 578 q 187 500 195 536 q 180 410 180 464 l 180 203 q 184 138 180 164 q 199 94 189 113 q 226 62 210 75 q 267 34 243 48 q 256 10 264 21 q 237 -9 249 -1 q 183 25 205 7 q 147 67 161 44 q 128 121 134 91 q 122 190 122 151 l 122 403 q 127 490 122 446 q 150 570 132 534 q 202 628 168 606 q 298 650 237 650 q 353 644 328 650 q 395 620 377 637 q 422 576 412 604 q 431 507 431 549 l 431 151 q 438 100 431 119 q 461 70 445 81 q 504 56 477 60 q 571 53 531 53 q 594 53 580 53 q 633 54 608 53 l 633 56 q 574 125 591 87 q 556 208 556 163 l 556 352 q 580 473 556 418 q 650 567 604 528 q 762 629 696 607 q 911 650 828 650 q 1025 638 972 650 q 1119 604 1078 627 q 1190 549 1161 582 q 1232 474 1219 516 l 1230 468 q 1031 454 1122 467 q 865 420 940 441 q 732 370 791 399 q 631 307 673 340 l 633 304 m 1057 513 q 978 572 1028 553 q 870 591 927 591 q 767 574 814 591 q 685 526 720 557 q 630 451 650 495 q 607 353 610 408 q 1057 513 774 480 m 733 -703 q 724 -560 731 -618 q 706 -463 718 -502 q 680 -402 695 -425 q 647 -369 665 -380 q 606 -353 628 -357 q 559 -346 584 -349 q 492 -334 523 -342 q 440 -313 462 -326 q 405 -281 418 -300 q 393 -236 393 -262 q 408 -183 393 -207 q 449 -143 422 -159 q 512 -117 475 -126 q 591 -108 548 -108 q 597 -108 591 -108 q 608 -109 603 -108 l 608 -163 q 602 -162 605 -162 q 598 -162 599 -162 q 538 -182 560 -162 q 517 -232 517 -203 q 525 -261 517 -250 q 545 -280 532 -273 q 573 -291 557 -287 q 606 -296 589 -294 q 654 -306 627 -299 q 707 -328 680 -312 q 761 -370 734 -343 q 808 -441 787 -397 q 842 -550 829 -486 q 857 -703 855 -614 l 733 -703 z "}}}
